<svg data-name="Layer 1" xmlns="http://www.w3.org/2000/svg" width="1133.5" height="614"><defs><linearGradient id="a" x1="471.5" y1="431.8" x2="653" y2="431.8" gradientUnits="userSpaceOnUse"><stop offset="0" stop-color="gray" stop-opacity=".3"/><stop offset=".5" stop-color="gray" stop-opacity=".1"/><stop offset="1" stop-color="gray" stop-opacity=".1"/></linearGradient></defs><path d="M124 410s-11-61-51-91a93 93 0 01-34-49 149 149 0 01-5-29" fill="none" stroke="#535461" stroke-miterlimit="10" stroke-width="2"/><path d="M9 222c3 7 25 20 25 20s3-25 0-31-12-10-19-6-10 11-6 17zM7 268c6 4 33 3 33 3s-12-22-19-26a14 14 0 00-19 5 13 13 0 005 18zM39 329c8 0 31-13 31-13s-23-13-30-13-14 6-14 13 6 13 13 13zM75 370c8 2 32-7 32-7s-19-17-27-18-15 3-16 10 4 14 11 15zM66 260c-2 7-23 23-23 23s-5-25-3-32 11-10 18-7 11 10 8 16zM108 309c-5 6-29 15-29 15s2-25 7-31a14 14 0 0119-2 13 13 0 013 18zM141 362c-4 6-26 19-26 19s-2-25 1-32a14 14 0 0119-5 13 13 0 016 18z" fill="#0899bc"/><path d="M9 222c3 7 25 20 25 20s3-25 0-31-12-10-19-6-10 11-6 17zM7 268c6 4 33 3 33 3s-12-22-19-26a14 14 0 00-19 5 13 13 0 005 18zM39 329c8 0 31-13 31-13s-23-13-30-13-14 6-14 13 6 13 13 13zM75 370c8 2 32-7 32-7s-19-17-27-18-15 3-16 10 4 14 11 15zM66 260c-2 7-23 23-23 23s-5-25-3-32 11-10 18-7 11 10 8 16zM108 309c-5 6-29 15-29 15s2-25 7-31a14 14 0 0119-2 13 13 0 013 18zM141 362c-4 6-26 19-26 19s-2-25 1-32a14 14 0 0119-5 13 13 0 016 18z" opacity=".3"/><path d="M122 409s17-60-7-103a89 89 0 01-10-58 150 150 0 018-28" fill="none" stroke="#535461" stroke-miterlimit="10" stroke-width="2"/><path d="M98 193c0 7 15 28 15 28s13-22 13-29-7-13-15-13-13 7-13 14zM77 234c4 6 28 15 28 15s-1-24-6-30a14 14 0 00-19-4 13 13 0 00-3 19zM80 302c7 3 33 0 33 0s-14-20-21-24-16 0-19 7 0 14 7 17zM95 354c6 4 33 5 33 5s-11-23-17-27a14 14 0 00-20 3 13 13 0 004 19zM134 250c-5 5-30 11-30 11s5-24 10-29a15 15 0 0120-1 13 13 0 010 19zM151 310c-7 4-33 2-33 2s13-21 20-25a14 14 0 0119 5 13 13 0 01-6 18zM159 371c-6 4-32 7-32 7s9-23 15-28a14 14 0 0119 2 13 13 0 01-2 19z" fill="#0899bc"/><path d="M1119 557a76 76 0 01-15 13c-24 17-59 24-93 29l-22 2c-47 5-94 7-141 8l-20 1a21225 21225 0 01-315 4c-56-1-112-2-168-5l-16-1c-49-2-99-7-146-17a426 426 0 01-71-21c-18-7-35-16-49-27-11-8-19-18-25-29-12-24-6-52 9-76s35-46 54-69c40-49 65-110 29-160-11-14-26-27-34-42-13-21-10-45-6-68 6-31 18-64 52-83C178-3 228-2 273 5c66 10 127 32 188 52h1l8 2 3 2 16 4 1 1h1l1 1h1l20 6 2 1h1l11 3h1c47 13 94 23 144 24 62 2 135-12 176-47 41-34 116-36 171-16 52 20 85 61 83 103-4 60-74 107-116 160-19 24-33 54-19 80 24 49 120 60 155 105 17 22 15 50-3 71z" fill="#0899bc" opacity=".1"/><path d="M313 432L183 591a426 426 0 01-71-21c-18-7-35-16-49-27l142-117zM1119 557a76 76 0 01-15 13c-24 17-59 24-93 29l-22 2-138-169 108-6zM522 435v6l-5 95v11l-1 5-3 62c-56-1-112-2-168-5l71-174zM848 609l-20 1-143 3-56-178h104z" fill="#65617d"/><path d="M313 432L183 591a426 426 0 01-71-21c-18-7-35-16-49-27l142-117zM1119 557a76 76 0 01-15 13c-24 17-59 24-93 29l-22 2-138-169 108-6zM522 435v6l-5 95v11l-1 5-3 62c-56-1-112-2-168-5l71-174zM848 609l-20 1-143 3-56-178h104z" opacity=".1"/><path d="M588 533c-3 0-19 7-19 7s-5 2-17 4c-9 1-10-3-10-6a10 10 0 011-2v-18l28-17a2 2 0 011 0c3 0 12 3 17 6 6 4 13 2 13 2s13-11 17-3a7 7 0 010 1c3 11-28 26-31 26z" fill="#3f3d56"/><path d="M543 522v-4l28-17a2 2 0 011 0l3 3c2 2-16 23-32 18z" opacity=".1"/><path d="M539 519l-2-11s0-9-4-11-12-64-12-64 0-14-2-16 0-3 0-3a17 17 0 00-1-6 28 28 0 01-2-6s1-5 0-6l-2-6a23 23 0 00-4-5 302 302 0 012-91h16l2 7 3 13 2 4 13 40a35 35 0 012 4l3 4a9 9 0 000 7c2 3 7 18 5 26s-3 7-3 7-2 6 1 8 1 5 1 5l4 34s-1 15 4 20 5 18 5 18l-4 2 9 10c2 3-19 27-36 16z" fill="#65617d"/><path d="M575 503c-2 5-20 25-36 15l-2-11c4-3 17-14 29-15v1l9 10z" opacity=".1"/><path d="M539 519l-2-11c4-3 17-13 29-15s7 7 9 10-19 27-36 16z" fill="#65617d"/><circle cx="584.1" cy="509.7" r=".8" fill="#fff"/><circle cx="579.2" cy="508.9" r=".8" fill="#fff"/><circle cx="588.3" cy="510.4" r=".8" fill="#fff"/><circle cx="574" cy="508.2" r=".8" fill="#fff"/><path d="M588 533c-3 0-19 7-19 7s-5 2-17 4c-9 1-10-3-10-6a10 10 0 007 1l25-5s13-5 14-7l31-21a7 7 0 010 1c3 11-28 26-31 26z" opacity=".1"/><path fill="#0899bc" d="M566 298h7v231h-7z"/><path d="M573 301a10 10 0 0119-1 17 17 0 012 1 3 3 0 005-2 16 16 0 10-31 9 16 16 0 015-7zM564 521h12v17h-12z" fill="#0899bc"/><path d="M513 93a42 42 0 00-6 11c-5 13-2 23-2 23s-43-10-39-15c3-3 5-14 6-22l1-10s52-4 40 13z" fill="#fabdbd"/><path d="M525 543a13 13 0 01-4 8c-4 2-35 3-42 1s-26-3-31-4-7-4-9-7l1-4 5-11 1-4v-2c14 9 32-7 32-7a4 4 0 012 0c4 0 7 5 7 7s10 7 10 7c3 3 15 8 15 8s8 1 11 4a5 5 0 012 4z" fill="#3f3d56"/><path d="M525 543a13 13 0 01-4 8c-4 2-35 3-42 1s-26-3-31-4-7-4-9-7l1-4a124 124 0 0113 4c6 3 20 7 22 5 0 0 32 9 50-3zM514 390a23 23 0 00-4-5c-7-5 0-70 2-87l13 1c2 4-8 77-11 91zM480 513v3c-22 23-31 15-34 6v-2c14 9 32-7 32-7a4 4 0 012 0z" opacity=".1"/><path d="M524 304l-12 89s-5 25-7 26l-8 6s-1 12-3 15-3 12-3 12l-5 25c-1 9-6 20-6 20v18c-27 28-34 9-36 0a31 31 0 010-4l15-94s4-5 3-7 1-6 1-6v-5s4-5 0-8 0-23 0-23-4-11-2-15 0-8 2-11 0 0-6-8c-3-5-5-12-7-19l-2-10s74-11 76-6a20 20 0 010 5z" fill="#65617d"/><path d="M513 93a42 42 0 00-6 11 29 29 0 01-9 1c-11 0-17-8-22-16l-4 1 1-10s52-4 40 13z" opacity=".1"/><path d="M527 76a29 29 0 11-8-20 29 29 0 018 20z" fill="#fabdbd"/><path d="M524 304c-10 2-28 5-29 7-2 3-17 4-26 5-5 1-13 0-19-1l-2-10s74-11 76-6a20 20 0 010 5z" opacity=".1"/><path d="M530 301s-33 6-35 8-17 4-26 5-25-1-27-2c-7-5-3-59 0-66s2-45-1-60 1-34 1-34 5-14 4-17 4-8 4-8 7-13 11-14a5 5 0 003-4l1-7c0-4 4-4 4-4 11 2 38 18 38 18-1 4 5 15 5 15l1 1a247 247 0 0111 101l2 27 2 21 2 20z" fill="#0899bc"/><path d="M501 246s-9 22-7 25 7-25 7-25zM512 256s-10 16-6 20 6-20 6-20zM480 509v5c-27 29-34 9-36 0 5 5 17 10 36-5z" opacity=".1"/><path d="M480 509v6c-27 28-34 9-36 0 5 4 17 10 36-6z" fill="#65617d"/><circle cx="477" cy="524" r=".8" fill="#fff"/><circle cx="489.2" cy="531.5" r=".8" fill="#fff"/><circle cx="484.5" cy="528.5" r=".8" fill="#fff"/><circle cx="493" cy="534.2" r=".8" fill="#fff"/><circle cx="481" cy="526.2" r=".8" fill="#fff"/><path d="M486 333s-7 18-16 19 16-19 16-19zM487 360s-11 20-15 20 15-20 15-20zM493 425s-14 8-11 8 11-8 11-8zM465 425l17-5-17 5zM542 402s10-3 10 0-10 0-10 0zM552 414s-9 0-8 3 8-3 8-3zM513 133c-8-3-21-9-26-14s-17-8-23-9l1-7c0-4 4-4 4-4 11 2 38 19 38 19-1 3 5 14 5 14l1 1z" opacity=".1"/><path d="M513 132c-8-3-21-9-26-15s-17-7-23-8l1-7c0-4 4-4 4-4 11 2 38 18 38 18-1 4 5 15 5 15l1 1z" fill="#0899bc"/><path d="M526 260c-12-7-28-20-28-21l-7-8-13-25-5-10 12-12 27 16 7 13a48 48 0 016 6v14c-1 3 0 15 1 27z" opacity=".1"/><path d="M474 194l4 12 14 22 6 9c0 1 25 20 36 25s24 10 25 14 7 33 24 23-5-30-5-30l-14-13s-30-23-32-31-13-14-13-14l-7-13-26-17z" fill="#fabdbd"/><path d="M469 128s-24 11-17 29 24 50 24 50-2-11 3-12 34 4 34 4-8-13-7-21-11-57-37-50z" opacity=".1"/><path d="M471 126s-24 11-16 29l24 51s-2-12 2-13 32 4 32 4-6-13-5-21-10-57-37-50z" opacity=".1"/><path d="M470 127s-24 11-17 29 25 50 25 50-2-11 2-12 32 4 32 4-6-14-5-21-10-57-37-50z" fill="#0899bc"/><path d="M519 56c-4 1-7 2-10 0l-6-4-6 3a23 23 0 00-3 6 62 62 0 01-5 10c-2 2-3 4-6 4s-5-3-9-4c-7-2-3 6-2 9a23 23 0 011 10 29 29 0 0146-34z" opacity=".1"/><path d="M474 70c3 1 5 5 9 4 2 0 4-2 5-4a62 62 0 006-10 23 23 0 013-6c1-1 3-3 5-2 3 0 4 2 6 3 4 3 9 1 13-1 2 0 4-1 4-3v-5c0-2 1-2 2-3s1-3 0-4l-3-1-5-6c-2-2-5 0-8 0l-12-3c-4-1-7-3-11-2l-6 5a26 26 0 01-12 5c-3 0-5 0-7 2-2 1-3 5-2 8l1 8c0 5-4 8-5 13a5 5 0 001 4 9 9 0 002 2 9 9 0 014 6v4a8 8 0 009 6 23 23 0 00-1-10c-1-3-6-12 2-10z" fill="#7c5c5c"/><g opacity=".1"><path d="M521 34zM527 42v-4a2 2 0 00-1 0 4 4 0 010 3l-2 3v5c0 2-3 3-5 4-4 1-8 3-12 1-2-2-4-4-6-4-2-1-4 1-6 2a22 22 0 00-3 6 63 63 0 01-5 10c-2 2-3 4-6 5-3 0-5-4-8-5-8-2-4 7-3 10a23 23 0 012 10 8 8 0 01-7-3 8 8 0 008 5 23 23 0 00-1-10c-1-4-6-12 2-10 3 1 5 5 9 4 2 0 4-2 5-4a63 63 0 006-10 23 23 0 013-6 6 6 0 015-2c3 0 4 2 6 3 4 2 9 1 13-1 2 0 4-1 4-4v-4l2-4zM459 72l-2-2a3 3 0 001 2 9 9 0 002 1 8 8 0 012 2 9 9 0 00-3-3z"/></g><path d="M529 71s-8-6-13 0h-3c-3-8-17-4-17-4l-20 3v1l20-2s0 8 3 11 8 1 8 1c4 0 5-6 6-8h3c-1 2-1 8 3 10 7 2 9-4 9-4l1-8z" opacity=".1"/><path d="M529 70s-8-6-13 0h-3c-3-8-17-4-17-4l-20 3v1l20-1s0 8 3 10 8 1 8 1c4 0 5-5 6-8h3c-1 3-1 8 3 10 7 2 9-3 9-3l1-9z" fill="#3f3d56"/><path d="M653 650a7 7 0 00-1-1c-2-6-9-2-14 1l-3 2c-1 0-7 2-12-2a46 46 0 00-16-6V443c3 1 6 0 9-2a13 13 0 005-4 8 8 0 001-1 10 10 0 014 5 16 16 0 012 2 3 3 0 004 0 2 2 0 000-2 16 16 0 00-9-13c-2-9-11-17-11-17l-14-13s-30-23-33-31c-1-4-4-7-7-10v-30s-5-41-12-54v-1s-5-8-6-13a5 5 0 010-2l-2-1a38 38 0 011-9l1-2v-1h1a29 29 0 0018-19 22 22 0 000-2l1-1a6 6 0 001-2l1-5v-1a11 11 0 001-2 3 3 0 00-1-1 16 16 0 00-3-2 29 29 0 00-6-11l-1-1v-1l2-1c2 0 4-1 4-3a3 3 0 001-1 9 9 0 00-1-3 4 4 0 010-1l2-4a5 5 0 001-1 3 3 0 000-2 2 2 0 00-1-1l-2-1c-3-1-3-4-6-5-2-2-5-1-8-1-4 0-8-1-11-3s-8-2-12-1l-6 4a26 26 0 01-12 6l-7 1c-2 2-2 5-2 7v1c0 3 2 6 1 9a13 13 0 01-1 4l-4 8a6 6 0 000 3 3 3 0 000 1 3 3 0 001 1 9 9 0 002 1 9 9 0 014 7v4a6 6 0 001 1 8 8 0 006 5 2 2 0 001 0v2l-1 6h-2s-4 0-4 4l-1 7a5 5 0 01-3 4c-4 1-11 14-11 14s-5 6-4 9a7 7 0 010 2l-3 14a117 117 0 00-3 23 65 65 0 001 11c2 9 3 26 3 40v3l-2 17c-2 4-4 24-4 41 0 13 2 24 5 26a35 35 0 007 1v2h1v1c1 7 4 14 6 18 5 7 7 5 6 7v1a7 7 0 00-1 3v5a7 7 0 01-1 3 5 5 0 000 3l2 12v1l-1 12 1 11a4 4 0 012 3 9 9 0 01-2 4v6a10 10 0 00-1 4 4 4 0 000 1 3 3 0 010 1c0 3-3 6-3 6l-3 19-12 76a33 33 0 000 4 32 32 0 002 6v1l-1 4-5 11v2a9 9 0 000 1 6 6 0 000 1c1 3 3 7 8 7s25 2 32 4a12 12 0 002 0l1 1h22a104 104 0 0012-1 11 11 0 004-2 13 13 0 004-7 5 5 0 00-1-4 15 15 0 00-6-3 34 34 0 00-6-1s-12-6-15-9c0 0-9-4-9-7 0-2-4-6-7-7v-16-1-1l1-1v-1l2-5v-1a77 77 0 002-10l4-18v-1-2-1l1-2v-1l1-4v-1a19 19 0 012-7 12 12 0 002-3v-1a68 68 0 001-10v-1l9-6 7-25v-1-4a15 15 0 012 2l2 5v6a27 27 0 001 6 17 17 0 011 6 3 3 0 00-1 2 2 2 0 001 2c3 2 2 15 2 15a258 258 0 001 8 360 360 0 0015 67v1l2 11a18 18 0 004 2v14a10 10 0 000 3c0 3 1 7 9 6h1l5-1 12-4 4-2h3l7-3 2-1a11 11 0 013 0 4 4 0 001 0v-1c7-2 32-15 30-25zm-69-146a35 35 0 00-3-4l-12-40-2-4-3-13-2-20-2-21v-1l-1-2a91 91 0 008 5c11 5 24 10 25 14 1 2 3 13 9 20l-1 1v179a11 11 0 00-2-2c-4-6-4-21-4-21l-4-33a4 4 0 000-1c1-1 2-3-1-5s-1-5-1-7 2-1 3-5l1-3c2-7-3-22-5-26a8 8 0 01-1-5l1-1v-1s-3-2-3-4zm15 132h1v1l-1-1z" transform="translate(-33 -143)" fill="url(#a)"/><path d="M588 533c-3 0-19 7-19 7s-5 2-17 4c-9 1-10-3-10-6a10 10 0 011-2v-18l28-17a2 2 0 011 0c3 0 12 3 17 6 6 4 13 2 13 2s13-11 17-3a7 7 0 010 1c3 11-28 26-31 26z" fill="#3f3d56"/><path d="M543 522v-4l28-17a2 2 0 011 0l3 3c2 2-16 23-32 18z" opacity=".1"/><path d="M539 519l-2-11s0-9-4-11-12-64-12-64 0-14-2-16 0-3 0-3a17 17 0 00-1-6 28 28 0 01-2-6s1-5 0-6l-2-6a23 23 0 00-4-5 302 302 0 012-91h16l2 7 3 13 2 4 13 40a35 35 0 012 4l3 4a9 9 0 000 7c2 3 7 18 5 26s-3 7-3 7-2 6 1 8 1 5 1 5l4 34s-1 15 4 20 5 18 5 18l-4 2 9 10c2 3-19 27-36 16z" fill="#65617d"/><path d="M575 503c-2 5-20 25-36 15l-2-11c4-3 17-14 29-15v1l9 10z" opacity=".1"/><path d="M539 519l-2-11c4-3 17-13 29-15s7 7 9 10-19 27-36 16z" fill="#65617d"/><circle cx="584.1" cy="509.7" r=".8" fill="#fff"/><circle cx="579.2" cy="508.9" r=".8" fill="#fff"/><circle cx="588.3" cy="510.4" r=".8" fill="#fff"/><circle cx="574" cy="508.2" r=".8" fill="#fff"/><path d="M588 533c-3 0-19 7-19 7s-5 2-17 4c-9 1-10-3-10-6a10 10 0 007 1l25-5s13-5 14-7l31-21a7 7 0 010 1c3 11-28 26-31 26z" opacity=".1"/><path fill="#0899bc" d="M566 298h7v231h-7z"/><path d="M573 301a10 10 0 0119-1 17 17 0 012 1 3 3 0 005-2 16 16 0 10-31 9 16 16 0 015-7zM564 521h12v17h-12z" fill="#0899bc"/><path d="M513 93a42 42 0 00-6 11c-5 13-2 23-2 23s-43-10-39-15c3-3 5-14 6-22l1-10s52-4 40 13z" fill="#fabdbd"/><path d="M525 543a13 13 0 01-4 8c-4 2-35 3-42 1s-26-3-31-4-7-4-9-7l1-4 5-11 1-4v-2c14 9 32-7 32-7a4 4 0 012 0c4 0 7 5 7 7s10 7 10 7c3 3 15 8 15 8s8 1 11 4a5 5 0 012 4z" fill="#3f3d56"/><path d="M525 543a13 13 0 01-4 8c-4 2-35 3-42 1s-26-3-31-4-7-4-9-7l1-4a124 124 0 0113 4c6 3 20 7 22 5 0 0 32 9 50-3zM514 390a23 23 0 00-4-5c-7-5 0-70 2-87l13 1c2 4-8 77-11 91zM480 513v3c-22 23-31 15-34 6v-2c14 9 32-7 32-7a4 4 0 012 0z" opacity=".1"/><path d="M524 304l-12 89s-5 25-7 26l-8 6s-1 12-3 15-3 12-3 12l-5 25c-1 9-6 20-6 20v18c-27 28-34 9-36 0a31 31 0 010-4l15-94s4-5 3-7 1-6 1-6v-5s4-5 0-8 0-23 0-23-4-11-2-15 0-8 2-11 0 0-6-8c-3-5-5-12-7-19l-2-10s74-11 76-6a20 20 0 010 5z" fill="#65617d"/><path d="M513 93a42 42 0 00-6 11 29 29 0 01-9 1c-11 0-17-8-22-16l-4 1 1-10s52-4 40 13z" opacity=".1"/><path d="M527 76a29 29 0 11-8-20 29 29 0 018 20z" fill="#fabdbd"/><path d="M524 304c-10 2-28 5-29 7-2 3-17 4-26 5-5 1-13 0-19-1l-2-10s74-11 76-6a20 20 0 010 5z" opacity=".1"/><path d="M530 301s-33 6-35 8-17 4-26 5-25-1-27-2c-7-5-3-59 0-66s2-45-1-60 1-34 1-34 5-14 4-17 4-8 4-8 7-13 11-14a5 5 0 003-4l1-7c0-4 4-4 4-4 11 2 38 18 38 18-1 4 5 15 5 15l1 1a247 247 0 0111 101l2 27 2 21 2 20z" fill="#0899bc"/><path d="M501 246s-9 22-7 25 7-25 7-25zM512 256s-10 16-6 20 6-20 6-20zM480 509v5c-27 29-34 9-36 0 5 5 17 10 36-5z" opacity=".1"/><path d="M480 509v6c-27 28-34 9-36 0 5 4 17 10 36-6z" fill="#65617d"/><circle cx="477" cy="524" r=".8" fill="#fff"/><circle cx="489.2" cy="531.5" r=".8" fill="#fff"/><circle cx="484.5" cy="528.5" r=".8" fill="#fff"/><circle cx="493" cy="534.2" r=".8" fill="#fff"/><circle cx="481" cy="526.2" r=".8" fill="#fff"/><path d="M486 333s-7 18-16 19 16-19 16-19zM487 360s-11 20-15 20 15-20 15-20zM493 425s-14 8-11 8 11-8 11-8zM465 425l17-5-17 5zM542 402s10-3 10 0-10 0-10 0zM552 414s-9 0-8 3 8-3 8-3zM513 133c-8-3-21-9-26-14s-17-8-23-9l1-7c0-4 4-4 4-4 11 2 38 19 38 19-1 3 5 14 5 14l1 1z" opacity=".1"/><path d="M513 132c-8-3-21-9-26-15s-17-7-23-8l1-7c0-4 4-4 4-4 11 2 38 18 38 18-1 4 5 15 5 15l1 1z" fill="#0899bc"/><path d="M526 260c-12-7-28-20-28-21l-7-8-13-25-5-10 12-12 27 16 7 13a48 48 0 016 6v14c-1 3 0 15 1 27z" opacity=".1"/><path d="M474 194l4 12 14 22 6 9c0 1 25 20 36 25s24 10 25 14 7 33 24 23-5-30-5-30l-14-13s-30-23-32-31-13-14-13-14l-7-13-26-17z" fill="#fabdbd"/><path d="M469 128s-24 11-17 29 24 50 24 50-2-11 3-12 34 4 34 4-8-13-7-21-11-57-37-50z" opacity=".1"/><path d="M471 126s-24 11-16 29l24 51s-2-12 2-13 32 4 32 4-6-13-5-21-10-57-37-50z" opacity=".1"/><path d="M470 127s-24 11-17 29 25 50 25 50-2-11 2-12 32 4 32 4-6-14-5-21-10-57-37-50z" fill="#0899bc"/><path d="M519 56c-4 1-7 2-10 0l-6-4-6 3a23 23 0 00-3 6 62 62 0 01-5 10c-2 2-3 4-6 4s-5-3-9-4c-7-2-3 6-2 9a23 23 0 011 10 29 29 0 0146-34z" opacity=".1"/><path d="M474 70c3 1 5 5 9 4 2 0 4-2 5-4a62 62 0 006-10 23 23 0 013-6c1-1 3-3 5-2 3 0 4 2 6 3 4 3 9 1 13-1 2 0 4-1 4-3v-5c0-2 1-2 2-3s1-3 0-4l-3-1-5-6c-2-2-5 0-8 0l-12-3c-4-1-7-3-11-2l-6 5a26 26 0 01-12 5c-3 0-5 0-7 2-2 1-3 5-2 8l1 8c0 5-4 8-5 13a5 5 0 001 4 9 9 0 002 2 9 9 0 014 6v4a8 8 0 009 6 23 23 0 00-1-10c-1-3-6-12 2-10z" fill="#7c5c5c"/><g opacity=".1"><path d="M521 34zM527 42v-4a2 2 0 00-1 0 4 4 0 010 3l-2 3v5c0 2-3 3-5 4-4 1-8 3-12 1-2-2-4-4-6-4-2-1-4 1-6 2a22 22 0 00-3 6 63 63 0 01-5 10c-2 2-3 4-6 5-3 0-5-4-8-5-8-2-4 7-3 10a23 23 0 012 10 8 8 0 01-7-3 8 8 0 008 5 23 23 0 00-1-10c-1-4-6-12 2-10 3 1 5 5 9 4 2 0 4-2 5-4a63 63 0 006-10 23 23 0 013-6 6 6 0 015-2c3 0 4 2 6 3 4 2 9 1 13-1 2 0 4-1 4-4v-4l2-4zM459 72l-2-2a3 3 0 001 2 9 9 0 002 1 8 8 0 012 2 9 9 0 00-3-3z"/></g><path d="M529 71s-8-6-13 0h-3c-3-8-17-4-17-4l-20 3v1l20-2s0 8 3 11 8 1 8 1c4 0 5-6 6-8h3c-1 2-1 8 3 10 7 2 9-4 9-4l1-8z" opacity=".1"/><path d="M529 70s-8-6-13 0h-3c-3-8-17-4-17-4l-20 3v1l20-1s0 8 3 10 8 1 8 1c4 0 5-5 6-8h3c-1 3-1 8 3 10 7 2 9-3 9-3l1-9z" fill="#3f3d56"/><ellipse cx="980.4" cy="415.6" rx="16.8" ry="2.8" fill="#0899bc" opacity=".1"/><path d="M969 402s10 0 13-2 14-4 15-1 14 16 4 16-25-1-28-3-4-10-4-10z" fill="#a8a8a8"/><path d="M1001 414c-11 0-25-1-28-3-2-2-3-6-4-9s1 8 4 10 17 3 28 3c3 0 4-1 4-2l-4 1z" opacity=".2"/><ellipse cx="112.7" cy="440.7" rx="30.9" ry="5.2" fill="#0899bc" opacity=".1"/><path d="M92 416s18 0 23-4 27-8 28-2 27 30 7 30-46-3-52-6-6-18-6-18z" fill="#a8a8a8"/><path d="M150 438c-20 0-46-3-51-6-4-3-6-12-6-16h-1s1 15 6 18 32 6 52 6c6 0 8-2 8-5-1 2-3 3-8 3z" opacity=".2"/></svg>