<svg data-name="Layer 1" xmlns="http://www.w3.org/2000/svg" width="777.7" height="613.3"><path d="M142 72a10 10 0 00-9 13l-29 21 18 7 24-21a10 10 0 00-4-20z" fill="#ffb8b8"/><path d="M139 104l-36 36a30 30 0 01-18 9l-45 4a12 12 0 01-9-3 12 12 0 015-21l46-10 41-30a4 4 0 014 0l11 9a4 4 0 012 4 4 4 0 01-1 2z" fill="#2f2e41"/><path d="M571 123a12 12 0 00-6-12L340 1a12 12 0 00-16 6l-84 172a12 12 0 006 16l224 110a12 12 0 0016-6l84-172a12 12 0 001-4z" fill="#f2f2f2"/><path d="M440 505H149a14 14 0 01-14-13V96a14 14 0 0114-14h291a14 14 0 0114 14v396a14 14 0 01-14 13z" fill="#fff"/><circle cx="226" cy="181.3" r="19" fill="#e6e6e6"/><path d="M197 233a54 54 0 008 4h1a55 55 0 0018 3h4a54 54 0 008-1 55 55 0 005-1 55 55 0 0016-9 25 25 0 00-1-2 27 27 0 00-23-12h-10a28 28 0 00-25 16 25 25 0 00-1 2z" fill="#e6e6e6"/><path d="M232 239a4 4 0 00-1 0 53 53 0 008-1z" fill="#2f2e41"/><path d="M227 130a56 56 0 00-28 103 55 55 0 009 5h1a55 55 0 0018 3h4a55 55 0 008-1 55 55 0 005-2 56 56 0 00-17-108zm32 97a53 53 0 01-16 8v1l-5 1a51 51 0 01-7 1h-4a53 53 0 01-17-3h-1a51 51 0 01-8-4 53 53 0 1158-4z" fill="#ccc"/><path d="M440 505H149a14 14 0 01-14-13V96a14 14 0 0114-14h291a14 14 0 0114 14v396a14 14 0 01-14 13zM149 84a12 12 0 00-12 12v396a12 12 0 0012 12h291a12 12 0 0012-12V96a12 12 0 00-12-12z" fill="#ccc"/><path d="M384 185h-83a7 7 0 110-13h83a7 7 0 110 13zM411 207H301a7 7 0 110-13h110a7 7 0 010 13zM383 291H178a7 7 0 110-13h205a7 7 0 110 13zM410 313H178a7 7 0 110-13h232a7 7 0 010 13zM383 364H178a7 7 0 110-13h205a7 7 0 110 13zM410 386H178a7 7 0 010-13h232a7 7 0 110 13zM383 437H178a7 7 0 010-13h205a7 7 0 110 13zM410 459H178a7 7 0 010-13h232a7 7 0 010 13z" fill="#e6e6e6"/><path d="M561 236a12 12 0 00-6-12L330 114a12 12 0 00-16 6l-84 172a12 12 0 006 16l224 110a12 12 0 0016-6l84-172a12 12 0 001-4z" fill="#fff"/><path d="M561 236a12 12 0 00-6-12L330 114a12 12 0 00-16 6l-84 172a12 12 0 006 16l224 110a12 12 0 0016-6l84-172a12 12 0 001-4zm-86 176a11 11 0 01-14 5L236 307a11 11 0 01-5-14l84-173a11 11 0 0115-4l224 109a11 11 0 015 14z" fill="#3f3d56"/><path d="M537 244l-59 120a3 3 0 01-4 2L270 266a3 3 0 01-1 0 3 3 0 01-1-5l59-120a3 3 0 014-1l204 99a3 3 0 012 5z" fill="#e6e6e6"/><circle cx="357.8" cy="208.3" r="29.6" fill="#0899bc"/><path d="M401 331l-130-64a3 3 0 01-1 0l114-77a5 5 0 018 4l6 92v4z" fill="#3f3d56"/><path opacity=".2" style="isolation:isolate" d="M401 331l-44-22 37-21 3-1 1-1v4l3 41z"/><path d="M474 366l-113-55 37-21 3-1 49-28c3-2 7 0 8 4a6 6 0 011 1z" fill="#3f3d56"/><path fill="#ffb8b8" d="M126 377h12l6-47h-18v47z"/><path d="M123 373h24a15 15 0 0115 15v1h-39z" fill="#2f2e41"/><path fill="#ffb8b8" d="M31 369l12 2 16-47-19-4-9 49z"/><path d="M28 364l25 5a16 16 0 0113 19v1l-41-8z" fill="#2f2e41"/><path d="M144 214a10 10 0 00-14-6l-26-25-4 18 25 21a10 10 0 0019-8z" fill="#ffb8b8"/><circle cx="48.9" cy="60.6" r="24.6" fill="#ffb8b8"/><path d="M44 86c1 0 4-10 2-12l-2-6c-1-3-2-4 0-6s5-2 5 1c0-5 4-8 8-9l13-1c5-1 10-6 8-11a8 8 0 00-1-2c-2-3-6-4-9-5-6-2-13-4-19-4a29 29 0 00-26 18 26 26 0 00-1 4c-2 13 5 25 17 30zM38 220a4 4 0 01-2-3l-11-55-11-42a21 21 0 0110-24l8-7 16 7 7 7a44 44 0 0123 28l13 42 28 42a4 4 0 010 5c-4 4-81 0-81 0z" fill="#2f2e41"/><path d="M112 217l-42-30a30 30 0 01-11-16l-12-43a12 12 0 011-10 12 12 0 0122 2l17 43 37 35a4 4 0 011 4l-7 13a4 4 0 01-4 2 4 4 0 01-2 0z" fill="#2f2e41"/><path d="M25 362a4 4 0 010-4l19-70 1-70 66-4 20 35a92 92 0 0111 37l7 71a4 4 0 01-4 4l-19 2a4 4 0 01-4-3l-8-73-29-48-10 51-20 71a4 4 0 01-4 2H28a4 4 0 01-3-1z" fill="#2f2e41"/><path d="M526 594H33a33 33 0 01-33-33V290a33 33 0 0133-33h61a33 33 0 0122 9l65 47a23 23 0 0016 6h333a33 33 0 0133 33l-4 210a33 33 0 01-33 32z" fill="#fff"/><path d="M522 578H36a16 16 0 01-16-16V287a16 16 0 0116-16 14 14 0 0114 14v258a15 15 0 0015 15h455a10 10 0 0110 8 10 10 0 01-4 11 8 8 0 01-4 1z" fill="#f2f2f2"/><path d="M283 446l-1-1a1 1 0 010-2l11-12a1 1 0 012 0l12 12a1 1 0 010 2l-2 1a1 1 0 01-2 0l-6-7v17a1 1 0 01-2 1h-2a1 1 0 01-1-1v-17l-7 7a1 1 0 01-2 0z" fill="#0899bc"/><path d="M294 421a23 23 0 11-22 23 23 23 0 0122-23m0-3a26 26 0 1026 26 26 26 0 00-26-26z" fill="#3f3d56"/><path d="M526 594H33a33 33 0 01-33-33V290a33 33 0 0133-33h61a33 33 0 0122 9l65 47a23 23 0 0016 6h333a33 33 0 0133 33l-4 210a33 33 0 01-33 32zM33 259a31 31 0 00-31 31v271a31 31 0 0031 31h493a31 31 0 0031-30l4-210a31 31 0 00-31-31H197a25 25 0 01-17-7l-66-47a31 31 0 00-20-8z" fill="#3f3d56"/><path fill="#ffb8b8" d="M568 600h-12l-4-48h16v48z"/><path d="M571 611h-39a15 15 0 0115-15h24z" fill="#2f2e41"/><path fill="#ffb8b8" d="M705 600h-12l-6-48h18v48z"/><path d="M708 611h-39a15 15 0 0115-15h24z" fill="#2f2e41"/><path d="M665 453a11 11 0 000-14 9 9 0 00-1-1l9-34-15 5-6 32a11 11 0 001 12 8 8 0 0012 0z" fill="#ffb8b8"/><path d="M664 432l-8-1a4 4 0 01-3-2 6 6 0 01-1-4l10-56-7-36c-1-7 2-13 8-16a11 11 0 0111 2 14 14 0 015 10l5 46-15 54a4 4 0 01-5 3z" fill="#0899bc"/><circle cx="662" cy="272.8" r="24.6" fill="#ffb8b8"/><path d="M649 387a5 5 0 01-1 0l-39-15a5 5 0 01-3-6l1-11a27 27 0 016-24l1-1 12-21a12 12 0 0117-5l20 12a12 12 0 016 6 37 37 0 01-1 26l-14 36a5 5 0 01-5 3z" fill="#0899bc"/><path d="M548 588a5 5 0 01-4-6l29-130a351 351 0 0121-60l12-29 47 21 7 13a121 121 0 018 43l48 140a5 5 0 01-4 7h-26a4 4 0 01-1 0 5 5 0 01-4-3l-55-143a1 1 0 00-1 0 1 1 0 00-1 0l-52 143a5 5 0 01-6 4z" fill="#2f2e41"/><path d="M584 428a10 10 0 005-14l24-27-19-3-19 26a10 10 0 009 18z" fill="#ffb8b8"/><path d="M595 409a5 5 0 01-3-1l-8-4a5 5 0 01-2-7l31-48 5-37a14 14 0 1128 6l-11 45-36 44a5 5 0 01-4 2z" fill="#0899bc"/><path d="M640 253c3-10 19-14 33-10s23 14 26 24c5 22-22 40-17 62 3 14 21 28 42 31-23 5-50 1-71-11-13-7-24-17-24-28 0-7 4-12 9-17l16-15c5-5 8-11 6-18s-8-13-17-15z" fill="#2f2e41"/><path d="M777 613H396a1 1 0 010-2h381a1 1 0 010 2z" fill="#ccc"/></svg>