<svg xmlns="http://www.w3.org/2000/svg" data-name="Layer 1" viewBox="0 0 888 424"><path fill="#e6e6e6" d="M443 354l-5 5v-9l-1 13-4-4 4 5-1 33h4l-2-37 5-6zm8 11l-4 5-1-9v13l-4-4 4 5-2 33h4l-1-37 4-6zm12-6l-4 5-1-9v13l-4-4 4 5-2 33h4l-1-37 4-6zm-30 5l-4 5v-9l-1 13-4-4 4 5-1 33h4l-2-37 4-6zM13 0h328v420H13z"/><path fill="#fff" d="M35 25h284v180H35z"/><path fill="#fff" d="M35 198h284v193H35z"/><path fill="#3f3d56" d="M169 24h15v181h-15zm135 0h15v181h-15z"/><path fill="#3f3d56" d="M35 190h284v15H35z"/><path fill="#fff" d="M75 122l-25 17v14l38-31H75z"/><path fill="#e6e6e6" d="M117 122l-67 53v12l87-65h-20z"/><path fill="#3f3d56" d="M35 24h15v181H35z"/><path fill="#e6e6e6" d="M278 39l-57 72 17 2 49-77-9 3z"/><path fill="#3f3d56" d="M35 24h284v15H35zm0 83h284v15H35z"/><path fill="#e6e6e6" d="M550 0h328v420H550z"/><path fill="#fff" d="M572 25h284v180H572z"/><path fill="#fff" d="M572 197h284v193H572z"/><path fill="#3f3d56" d="M706 24h15v181h-15zm135 0h15v181h-15z"/><path fill="#3f3d56" d="M572 190h284v15H572z"/><path fill="#e6e6e6" d="M612 122l-26 17v14l39-31h-13zm42 0l-68 52v12l88-64h-20z"/><path fill="#3f3d56" d="M572 24h15v181h-15z"/><path fill="#e6e6e6" d="M815 39l-57 71 17 2 49-76-9 3z"/><path fill="#3f3d56" d="M572 24h284v15H572zm0 83h284v15H572z"/><path fill="#2f2e41" d="M707 241s1 3-5 7-8 15 0 19 9 8 5 11-10 12-1 14 10 7 7 8l6-3s1 9 9 7 29-43 18-49-39-14-39-14z"/><path fill="#ffb9b9" d="M698 323l-35 24s-26-27-26-43-14-46-21-33 8 41 8 41l26 61s15 3 23-4 32-19 32-19z"/><circle cx="731.6" cy="256.1" r="26.1" fill="#ffb9b9"/><path fill="#ffb9b9" d="M718 274s9 25 6 30-9 6-12 8c-2 1-22 8-22 14a22 22 0 003 10l3 16 23 15 31-4 23-13s4-35-6-40-23-19-22-24l2-15z"/><path fill="#0899bc" d="M768 345l-1 8-1 11-2 12-1 14h-68c-1-8-2-16-5-21a15 15 0 01-2-9c0-6 5-11 5-12l-12-14-2-2 12-9 2 3 5 10-1 7a578 578 0 0029 4c4 0 9 2 14 4h7a11 11 0 013-1 73 73 0 019-3l8-2h1z"/><path fill="#ffb9b9" d="M770 344v8l-2 17a37 37 0 010 7 102 102 0 01-4 14h-26l2-22v-4a125 125 0 000-13v-2c-2-19 9-39 9-39 4 0 7 2 11 5a33 33 0 0110 29z"/><path d="M768 369a37 37 0 010 7 102 102 0 01-4 14h-27a190 190 0 001-26v-7a10 10 0 010-3 4 4 0 011-3 3 3 0 011 0 7 7 0 014-1 15 15 0 013 1 44 44 0 0112 7 44 44 0 017 6l2 5z" opacity=".1" style="isolation:isolate"/><path fill="#0899bc" d="M737 355l3 13 16 8h14l7-30s-12-2-18 1-19 4-19 4z"/><path fill="#2f2e41" d="M732 230s1 4-6 7-9 18-1 22 11 9 7 12-11 13-2 16 11 7 8 9l7-4s1 10 10 8 16-46 7-57-30-13-30-13z"/><path fill="#2f2e41" d="M729 226c0-6 37 0 44 8 5 6 13 15 7 21s-8 11-3 14 14 9 6 14-9 10-6 11l-7-2s1 10-7 10-34-48-28-61c5-13-6-15-6-15z"/><path fill="#2f2e41" d="M733 224c-23-1-26 17-26 17 1 10 17 5 21 6l23-16a35 35 0 00-18-7z"/><path fill="#e6e6e6" d="M416 384l2 12a26 26 0 0051 0v-1l2-11z"/><path fill="#3f3d56" d="M0 420h888v2H0z"/><path fill="#9e616a" d="M92 387v6s-4 31-14 31-2-32-2-32v-5zm164-110l-2-5s-13-19-4-24 20 20 20 20l2 8z"/><circle cx="215.2" cy="244.9" r="25.9" fill="#9e616a"/><path fill="#9e616a" d="M197 248l-18 14 24 20 14-17-20-17z"/><path fill="#0899bc" d="M213 390h-90l6-72 6-54a9 9 0 019-8l38 4 27 15 1 8 27 19-18 36-12 22z"/><path fill="#0899bc" d="M135 310l-25 33-16 47H71l16-69 44-60a9 9 0 0110-3 8 8 0 002 0zm81 26l61 25 11-10-15-79-20 4 8 47-24-21-8-2-13 36z"/><path fill="#2f2e41" d="M190 253a67 67 0 013-30c6-16 24-11 35-8s24 19 20 27-20-3-26-8-17 11-17 11z"/><ellipse cx="361.5" cy="481.2" fill="#9e616a" rx="5.1" ry="2.8" transform="rotate(-70 114 473)"/></svg>