<svg xmlns="http://www.w3.org/2000/svg" data-name="Layer 1" width="983.9" height="586"><path d="M819 581c-9-7-14-19-13-31s11-22 22-25 25 4 28 16c2-22 4-45 16-63 10-17 28-29 48-31s40 6 52 22 16 38 7 55c-6 13-18 23-30 31a194 194 0 01-133 29" fill="#f2f2f2"/><path d="M953 454a318 318 0 00-44 44 319 319 0 00-50 83c-1 2 3 3 3 1a317 317 0 0194-126c1-1-1-4-3-2z" fill="#fff"/><path d="M484 37a1 1 0 01-1 1h-1l-2-2h2a1 1 0 012 1z" fill="#f2f2f2"/><path d="M508 0H257a7 7 0 00-7 7v136a7 7 0 007 7h251a7 7 0 007-7V7a7 7 0 00-7-7zm5 143a5 5 0 01-5 5H257a5 5 0 01-5-5V7a5 5 0 015-5h251a5 5 0 015 5z" fill="#3f3d56"/><path d="M355 59c-3-7-7-13-14-17s-15-8-24-9a61 61 0 00-24 2h-3a26 26 0 00-8 4c-3 2-6 6-7 9-2 4-3 7-2 11a16 16 0 006 8c2 2 4 4 7 4a5 5 0 001-1 2 2 0 001 0 13 13 0 003 1c5 0 9-2 13-4a23 23 0 014-1 12 12 0 016 1 9 9 0 011 0 19 19 0 018 7l5 9a12 12 0 009 5c5 1 12 0 16-3a11 11 0 003-3h1c4-7 1-16-2-23zm-69-10h3a11 11 0 00-5 2 14 14 0 00-2 2 7 7 0 014-4zm60 25h1a2 2 0 001 0h-2zm-2-24a30 30 0 015 7 48 48 0 00-6-6 3 3 0 001-1zm-3 28a2 2 0 000 1h-1v-1h1zm-21-22a3 3 0 000-1 2 2 0 001 0v1h-1zm16-5zm-4 18a2 2 0 000 1 2 2 0 010-1zm-9-19a3 3 0 00-1-1 31 31 0 00-4-1 31 31 0 013 0 39 39 0 014 2h-2zm-8-13a47 47 0 019 2h-1l-8-2z" fill="#ccc"/><path d="M326 115c-2 0-5 0-8-2a6 6 0 01-2-5 4 4 0 011-3 5 5 0 015-1l-2-15h2l2 18-1-1h-5a3 3 0 00-1 2 5 5 0 002 4l7 1zM304 91h9v1h-9zM330 91h9v1h-9zM290 69c-6 0-12-7-12-13-1-8 4-15 10-19 6-5 14-7 22-7a61 61 0 0141 14c6 4 11 10 13 18 2 6 1 14-4 18a12 12 0 01-10 3l-11-5c-6-4-11-11-18-13-6-2-13 0-17 5a9 9 0 00-1 4 1 1 0 001 1 1 1 0 001-1c1-6 9-9 14-7 8 2 14 9 20 14a24 24 0 0012 4 14 14 0 0010-3c5-4 7-12 6-19-1-8-7-14-12-20a63 63 0 00-43-15c-8 0-17 1-24 6-7 4-12 11-12 19-1 7 3 14 9 17a15 15 0 005 2c2 0 2-2 0-3zM484 37a1 1 0 01-1 1h-82a1 1 0 010-2h82a1 1 0 011 1zM483 53h-82a1 1 0 010-2h82a1 1 0 010 2zM483 68h-82a1 1 0 010-2h82a1 1 0 010 2zM483 83h-82a1 1 0 010-2h82a1 1 0 010 2zM483 98h-82a1 1 0 010-2h82a1 1 0 010 2zM483 113h-82a1 1 0 010-2h82a1 1 0 010 2z" fill="#3f3d56"/><path d="M186 247a11 11 0 01-7-3 11 11 0 01-4-9l-45-32a11 11 0 01-1-17l33-33a10 10 0 0117 7 22 22 0 01-6 13l-22 23 35 28a11 11 0 011 22 12 12 0 01-1 1zM239 437l12-4-12-48-17 6 17 46z" fill="#ffb8b8"/><path d="M278 435l-38 14-5-14 24-9a15 15 0 0119 9z" fill="#2f2e41"/><path fill="#ffb8b8" d="M132 439h12l6-49h-18v49z"/><path d="M169 451h-40v-15h25a15 15 0 0115 15zM145 426l-13-1a5 5 0 01-5-5c0-29-2-176 36-210a4 4 0 012-1c7-1 30-3 40 7a5 5 0 011 2l43 198a5 5 0 01-4 6l-16 2a4 4 0 01-5-4c-2-16-12-97-45-126a4 4 0 00-3-1 3 3 0 00-2 3c-7 20-26 88-24 125a4 4 0 01-5 5z" fill="#2f2e41"/><circle cx="171.4" cy="104.4" r="24.6" fill="#ffb8b8"/><path d="M147 151s23-27 42-6a74 74 0 0118 51l-1 24-43-7z" fill="#0899bc"/><path d="M207 203a13 13 0 01-10-5l-28-36a10 10 0 019-15h4a11 11 0 017 4l22 28 32-32a11 11 0 1110 13l-36 39a13 13 0 01-10 4z" fill="#ffb8b8"/><path d="M175 109l11-13c3-3 5-6 6-11 0-4-2-9-6-11l-13-4c-9-1-18 1-25 5s-11 14-10 23c2 6 7 12 5 19s-11 9-18 11c-12 4-23 11-30 21s-6 26 3 35c5 6 13 9 21 9a73 73 0 0043-14c5-5 9-12 9-19s-4-14-5-21a33 33 0 0110-31" fill="#2f2e41"/><path d="M688 357H437a7 7 0 01-7-7V214a7 7 0 017-7h251a7 7 0 017 7v136a7 7 0 01-7 7zM437 209a5 5 0 00-5 5v136a5 5 0 005 5h251a5 5 0 005-5V214a5 5 0 00-5-5z" fill="#3f3d56"/><path d="M535 266c-3-7-7-13-14-17s-15-8-24-9a61 61 0 00-24 2l-11 4c-3 2-6 6-7 9-2 4-3 7-2 11a16 16 0 006 8c2 2 5 4 9 3 5 2 11-1 16-3h11a19 19 0 018 7l5 9a13 13 0 009 5c7 1 16 0 20-6 4-7 1-16-2-23zm-69-10h3a11 11 0 00-5 2 13 13 0 00-2 2 7 7 0 014-4zm34 6a2 2 0 001 0v1h-1a2 2 0 000-1zm12 14a2 2 0 000 1 1 1 0 010-1zm8 9h1a2 2 0 000 1h-1zm6-4h1a2 2 0 001 0h-2zm-23-24a3 3 0 00-1-1 32 32 0 00-4-1 32 32 0 013 0 39 39 0 014 2h-2zm13 1l-2-2 2 2zm13 6a47 47 0 00-6-6 3 3 0 001-1 30 30 0 015 7zm-25-18h-1l-8-2a47 47 0 019 2z" fill="#0899bc"/><path d="M506 322c-2 0-5 0-8-2a6 6 0 01-2-5 4 4 0 011-3 5 5 0 015-1l-2-15h2l2 18-1-1h-5a3 3 0 00-1 2 5 5 0 002 4l7 1zM484 298h9v1h-9zM510 298h9v1h-9zM470 276c-6 0-12-7-12-13-1-8 4-15 10-19 6-5 14-7 22-7a61 61 0 0141 14c6 4 11 10 13 18 2 6 1 14-4 18a12 12 0 01-10 3l-11-5c-6-4-11-11-18-13-6-2-13 0-17 5a9 9 0 00-1 4 1 1 0 001 1 1 1 0 001-1c1-6 9-9 14-7 8 2 14 9 20 14a24 24 0 0012 4 14 14 0 0010-3c5-4 7-12 6-19-1-8-7-14-12-20a63 63 0 00-43-15c-8 0-17 1-24 6-7 4-12 11-12 19-1 7 3 14 9 17a15 15 0 005 2c2 0 2-2 0-3zM663 245h-82a1 1 0 010-2h82a1 1 0 010 2zM663 260h-82a1 1 0 010-2h82a1 1 0 010 2zM663 275h-82a1 1 0 010-2h82a1 1 0 010 2zM663 290h-82a1 1 0 010-2h82a1 1 0 010 2zM663 305h-82a1 1 0 010-2h82a1 1 0 010 2zM663 320h-82a1 1 0 010-2h82a1 1 0 010 2z" fill="#3f3d56"/><circle cx="815.7" cy="185.4" r="26.2" fill="#ffb8b8"/><path fill="#ffb8b8" d="M737 572l-12-4 9-50 19 6-16 48z"/><path d="M717 561l24 8-5 15-39-12v-1a15 15 0 0120-10z" fill="#2f2e41"/><path fill="#ffb8b8" d="M828 572h-13l-6-51h19v51z"/><path d="M805 568h26v16h-41v-1a15 15 0 0115-15zM828 555h-5l-16-3v-49-86a3 3 0 00-7-2c-10 24-27 75-38 109l-9 27a5 5 0 01-5 3l-22-7a4 4 0 01-3-5l49-208a5 5 0 015-3l25 6 32 6a4 4 0 012 2l11 7c2 1-4 1-2 3 10 8-4 162-12 197a5 5 0 01-5 3z" fill="#2f2e41"/><path d="M820 380a9 9 0 019-11l21-24 13 16-24 18a10 10 0 01-19 1z" fill="#ffb8b8"/><path d="M827 208c-2-6 6-20 5-27-1-4-12-1-14-5s-7-7-11-7c-5 0-11 4-15 2-5-1-7-8-5-13s7-8 12-10c8-4 17-7 26-4 5 1 9 5 13 8s8 6 11 11c5 8 4 19 0 27s-13 15-21 19" fill="#2f2e41"/><path d="M762 360c3-5 8-27 13-64l8-65a6 6 0 014-5l3-1c13-6 26-8 39-6a71 71 0 0135 16c0 1 5 30-6 50-11 19-11 71-11 71v1h-1c-17-5-82 3-83 3l-1 1z" fill="#ccc"/><path d="M832 364l34-45-17-37 1-44 14-2a36 36 0 0115 17l15 56a33 33 0 01-9 30l-41 41z" fill="#ccc"/><path d="M692 275a9 9 0 0114-1h32l-2 20-30-6a10 10 0 01-14-13z" fill="#ffb8b8"/><path d="M708 293l5-20 55-5 15-37 1-1 6-5c13-6 26-8 39-6v1a36 36 0 01-3 13c-6 12-41 63-42 63v1z" fill="#ccc"/><path d="M974 586H593a1 1 0 010-2h381a1 1 0 010 2zM382 451H1a1 1 0 110-2h381a1 1 0 010 2z" fill="#3f3d56"/></svg>