<svg data-name="Layer 1" xmlns="http://www.w3.org/2000/svg" xmlns:xlink="http://www.w3.org/1999/xlink" width="971.4" height="662"><defs><linearGradient id="a" x1="979.4" y1="738.6" x2="979.4" y2="646.8" gradientUnits="userSpaceOnUse"><stop offset="0" stop-color="gray" stop-opacity=".3"/><stop offset=".5" stop-color="gray" stop-opacity=".1"/><stop offset="1" stop-color="gray" stop-opacity=".1"/></linearGradient><linearGradient id="b" x1="600.7" y1="650.1" x2="600.7" y2="119" xlink:href="#a"/><linearGradient id="c" x1="485.7" y1="615.6" x2="485.7" y2="377.7" xlink:href="#a"/></defs><path d="M146 538c-7 26-32 43-32 43s-13-26-6-53 32-43 32-43 13 26 6 53z" fill="#3f3d56"/><path d="M135 532c-19 20-22 49-22 49s30-2 50-21 21-49 21-49-29 2-49 21z" fill="#0899bc"/><rect x="68.1" y="573.2" width="106.9" height="45.5" rx="15.2" fill="#0899bc"/><path d="M1010 663v-16h-82v76a16 16 0 0016 16h50a16 16 0 0016-16v-17a21 21 0 000-43zm0 35v-27a13 13 0 010 27z" transform="translate(-114 -119)" fill="url(#a)" opacity=".7"/><path d="M893 547a19 19 0 1019 19 19 19 0 00-19-19zm0 31a12 12 0 1112-12 12 12 0 01-12 12z" fill="#0899bc"/><path d="M893 547a19 19 0 1019 19 19 19 0 00-19-19zm0 31a12 12 0 1112-12 12 12 0 01-12 12z" opacity=".1"/><path d="M818 532h75v74a10 10 0 01-10 10h-55a10 10 0 01-10-10v-74z" fill="#0899bc"/><path fill="#e0e0e0" d="M0 616h971v33H0z"/><path d="M753 514c-10-38-69-65-114-71v-33h1v-2a111 111 0 0067-70 120 120 0 007-15c4-2 8-10 8-19a33 33 0 00-1-10 122 122 0 001-14 120 120 0 00-40-90 23 23 0 000-5c-1-16-17-27-33-27a33 33 0 006-35c-10 15-31 16-48 16 7-3 11-13 6-20-18 25-54 29-75 51a64 64 0 00-12 16 120 120 0 00-45 94 122 122 0 000 14 33 33 0 00-1 10c0 9 4 17 8 19a120 120 0 008 15 111 111 0 0066 70v35c-44 6-104 34-114 72-9 33-19 69-23 90a383 383 0 00352 4c-5-23-14-61-24-95z" transform="translate(-114 -119)" fill="url(#b)" opacity=".7"/><path d="M489 522c49 0 129-15 167-40-4-22-13-59-22-91-12-42-84-71-127-71h-41c-44 0-116 29-127 71-9 32-18 67-22 87 39 28 121 44 172 44z" fill="#0899bc"/><circle cx="486.8" cy="164.5" r="116.2" fill="#72351c"/><path d="M449 261h75v60a37 37 0 01-37 37 37 37 0 01-38-37v-60z" opacity=".1"/><path d="M460 259h53a11 11 0 0111 10v49a37 37 0 01-37 37 37 37 0 01-38-37v-49a11 11 0 0111-10z" fill="#fda57d"/><path d="M449 289a107 107 0 0075 1v-10h-75z" opacity=".1"/><circle cx="486.8" cy="187.7" r="106.8" fill="#fda57d"/><path d="M411 91s45 91 172 38l-30-46-52-19z" opacity=".1"/><path d="M411 89s45 92 172 38l-30-46-52-19z" fill="#72351c"/><path d="M410 83a62 62 0 0116-25c21-21 55-25 73-49 4 7 1 17-7 20 17 0 37-2 46-16a32 32 0 01-5 34c15 0 31 11 32 26 1 10-6 19-14 25s-18 8-28 10c-28 7-131 33-113-25zM594 189h-3l-55 49c-53-25-92 0-92 0l-58-47h-6a107 107 0 00214-2zm-107 67c-21 0-38-4-38-9s17-9 38-9 37 4 37 9-17 9-37 9z" fill="#72351c"/><ellipse cx="380" cy="187.6" rx="9.9" ry="18.6" fill="#fda57d"/><ellipse cx="593.5" cy="187.6" rx="9.9" ry="18.6" fill="#fda57d"/><rect x="279.2" y="377.7" width="413.1" height="237.9" rx="14.5" fill="url(#c)" opacity=".7"/><rect x="286.6" y="382.1" width="398.2" height="233.5" rx="26.8" fill="#535461"/><circle cx="485.7" cy="498.8" r="13.5" fill="#fff"/><path fill="#e0e0e0" d="M41 649h889v13H41z"/><path opacity=".1" d="M41 649h889v4H41zM879 532v69a15 15 0 01-14 15h7a15 15 0 0015-15v-69z"/><path d="M833 476l-4 2c-1 1 1 3 3 5l8 7c2 3 3 8 1 11-3 4-10 5-11 10 0 3 2 5 5 7 7 4 15 5 20 11 2-4 7-7 11-8l14-1 4-2c1-3-2-6-1-9 1-2 4-2 6-2 3-2 4-6 3-9s-3-7-6-9c-8-6-17-9-26-12-4-1-9-3-14-3l-13 2z" fill="#eee"/></svg>