<svg xmlns="http://www.w3.org/2000/svg" width="64" height="64" viewBox="0 0 64 64"><g transform="translate(-365 -301)"><path d="M0,0H64V64H0Z" transform="translate(365 301)" fill="#c1e4fc"/><g transform="translate(376 310)"><path d="M100.585,93.463A3.925,3.925,0,0,1,98.161,92.4a2.971,2.971,0,0,1,0-4.693l3.255-2.89a10.434,10.434,0,0,0,0-15.988A20.6,20.6,0,0,0,87.714,64,25.907,25.907,0,0,0,70.7,70.443a18.777,18.777,0,0,0,0,28.774,25.09,25.09,0,0,0,16.39,5.937h.182a24.118,24.118,0,0,0,15.946-5.616C104.623,98.126,101.538,93.526,100.585,93.463Z" transform="translate(-63.985 -63.998)" fill="none" stroke="#233d4d" stroke-miterlimit="10" stroke-width="3"/><circle cx="3.43" cy="3.43" r="3.43" transform="translate(5.146 12.006)" fill="#233d4d"/><circle cx="3.43" cy="3.43" r="3.43" transform="translate(6.003 23.045)" fill="#233d4d"/><circle cx="3.43" cy="3.43" r="3.43" transform="translate(13.72 5.148)" fill="#233d4d"/><circle cx="5.143" cy="5.143" r="5.143" transform="translate(15.435 27.332)" fill="#233d4d"/><circle cx="3.43" cy="3.43" r="3.43" transform="translate(24.865 5.148)" fill="#233d4d"/></g></g></svg>