<svg data-name="Layer 1" xmlns="http://www.w3.org/2000/svg" xmlns:xlink="http://www.w3.org/1999/xlink" width="949.8" height="661.5"><defs><linearGradient id="a" x1="585.6" y1="663" x2="585.6" y2="249" gradientUnits="userSpaceOnUse"><stop offset="0" stop-color="gray" stop-opacity=".3"/><stop offset=".5" stop-color="gray" stop-opacity=".1"/><stop offset="1" stop-color="gray" stop-opacity=".1"/></linearGradient><linearGradient id="b" x1="266.2" y1="487.1" x2="266.2" y2="486.9" xlink:href="#a"/><linearGradient id="c" x1="252.6" y1="605" x2="252.6" y2="271" xlink:href="#a"/><linearGradient id="d" x1="852.7" y1="602" x2="852.7" y2="195" xlink:href="#a"/></defs><circle cx="95.1" cy="66" r="46.5" fill="#0899bc"/><path d="M89 161c20 44-5 95-34 133-10 13-21 26-22 42-2 20 11 38 27 50 29 21 68 28 103 17 29-9 54-31 84-39 50-14 103 9 146 39 30 21 63 46 99 42 26-3 48-21 63-43 7-10 13-21 23-28 7-4 14-7 21-8 67-14 137 20 203 2 44-12 79-47 101-87s32-86 41-131c6-32 11-66-3-96-15-31-49-50-83-53s-69 6-101 20c-39 17-78 41-121 41-29 0-57-11-85-20-47-14-96-21-144-28-47-6-94-12-141-8-33 3-62 15-94 21-21 4-42 1-63 8-25 7-51 26-53 55-1 27 23 47 33 71z" fill="#0899bc" opacity=".1"/><path d="M727 319c-4-11-15-37-23-32-9 7 10 36 10 36 0 5-10 16-16 22v-1a3 3 0 01-1 1v-1c-1 5-20 10-20 10h-1c-5 0-19-1-25-11a55 55 0 00-12-14 10 10 0 00-6-2c-17-1-31-10-33-12h-1l-2-3a25 25 0 0014-23 17 17 0 002-9v-3l4-3c2-2 4-3 4-6a6 6 0 001-2 5 5 0 00-2-5c-3-2-8 0-10-3l-1-4c-1-3-5-5-8-5l-10 2a57 57 0 01-21 2 14 14 0 00-5 0 8 8 0 00-5 6 13 13 0 000 2 17 17 0 00-5 12v7a17 17 0 004 12 25 25 0 0011 18v1a41 41 0 01-1 7v-1s-14 8-29 8h-2a11 11 0 00-8 3c-4 4-12 10-17 10l-30 6-8-7h-1a19 19 0 00-2 0c-4-5-12-16-14-31 0 0 17-19 11-38-6-15-21 18-25 28a8 8 0 000 6l14 45a21 21 0 00-1 11l10 13s8 4 20 3a69 69 0 0025-4h3-1 13l7 23c0 2-4 32-7 39a17 17 0 00-1 7 53 53 0 002 13h7c-6 12-16 33-21 53l-10 20 7 89h1v1h4l-1 1-16 27s-12 24 14 19c0 0 10-2 13-19l17-15s1-11-4-15v-23c2-4-6-51-6-51s27-56 43-57a9 9 0 014 0c13 4 29 37 34 47l1 1v2l2 62h1l-1 1-1 7s12 24 11 27 8 16 20 13 5-23 5-23l-12-24v-1a23 23 0 003-3s-3-25 0-31 5-30 5-30-3-18-7-25l-18-63c6 4 10 6 13 6h1a9 9 0 004-1 12 12 0 002-1 3 3 0 000-1c5-4-5-20-11-30-6-9 2-34 3-36a10 10 0 011-1 11 11 0 014-1c6 0 13 4 22 5a102 102 0 0018 2h7a11 11 0 005-2 14 14 0 003-2l15-18v1a9 9 0 000-7l16-28a11 11 0 001-9z" transform="translate(-125 -119)" fill="url(#a)"/><path d="M420 506l-17 16c-3 16-12 18-12 18-25 5-14-19-14-19l16-26 2-4s11-3 18-1a6 6 0 013 1c5 4 4 15 4 15zM520 520c-11 3-19-9-19-12s-10-27-10-27l1-7 1-5 19 1 1 4 12 23s7 19-5 23z" fill="#444176"/><path d="M416 494c-2 3-16 2-23 1l2-4s11-3 18-1a6 6 0 013 1v3zM513 474c-9 6-20 1-21 0l1-6 19 2z" opacity=".1"/><path d="M516 440c-3 5 0 30 0 30-11 10-24 3-24 3l-2-62s-23-50-38-49-42 56-42 56 7 47 6 51v24c-2 4-27 0-27 0l-7-89 9-19a350 350 0 0125-61l18-4 59-12 21 77c4 7 6 24 6 24s-1 25-4 31z" fill="#565387"/><g opacity=".1"><path d="M497 473l-2-62s-22-50-38-49a9 9 0 00-2 0c15 6 35 49 35 49l2 62a24 24 0 0013 2 24 24 0 01-8-2z"/><path d="M394 493l-7-88 10-20a350 350 0 0124-61l19-4 53-11v-1l-59 12-18 4-5 9c-5 12-14 32-20 52l-9 19 7 89s13 2 21 2a161 161 0 01-16-2z"/></g><path d="M353 219s-19 1-17 21l6 1 8-9 4-7v-2z" fill="#ced2df"/><path d="M353 219s-19 1-17 21l6 1 8-9 4-7v-2z" opacity=".1"/><path d="M569 226s16 9 12 19l-6 2-6-4-1-9v-6z" fill="#ced2df"/><path d="M569 226s16 9 12 19l-6 2-6-4-1-9v-6z" opacity=".1"/><rect x="431.2" y="138.7" width="55.8" height="42.2" rx="21.1" ry="21.1" fill="#88455e"/><path d="M353 222l-12 19-1-4-16-52a8 8 0 010-6c4-10 18-43 24-27 6 18-11 37-11 37a60 60 0 0016 33zM566 230s19-18 18-25c0 0-18-28-9-35 7-5 18 21 22 32a11 11 0 01-1 9l-22 39zM445 181s3 21-7 30 29 8 29 8l13-13s-15-14-11-25z" fill="#ec8c9c"/><path d="M444 206s15 10 30-2l23 49-1 61s-49 25-70 10-3-24-3-24l-5-46 5-30 10-15 11-3z" opacity=".1"/><path d="M444 205s15 11 30-2l23 50-1 60s-49 26-70 10-3-24-3-24l-5-46 5-30 10-14 11-4z" fill="#ebf1f6"/><path d="M444 200s-14 8-29 7a11 11 0 00-7 3c-5 4-12 11-17 11l-30 6-7-8s-12 22-17 21l10 13s18 8 43-2h14l8 24s-4 31-7 38 1 20 1 20l27-1s1-14 3-15-7-60-7-60-6-33 16-45z" opacity=".1"/><path d="M434 320a89 89 0 00-2 12l-21 1 5-9zM353 222l-12 19-1-4c4-4 9-13 11-17l2 2z" opacity=".1"/><path d="M444 200s-14 8-29 7a11 11 0 00-8 3c-4 4-12 11-16 11l-30 6-8-8s-11 22-17 21l10 13s19 8 43-2h14l8 24s-4 31-7 38 1 20 1 20l27-1s1-14 3-15-7-60-7-60-6-33 17-45z" fill="#ced2df"/><path d="M474 198s13 10 32 11a10 10 0 015 3 54 54 0 0112 14c8 12 26 11 26 11s18-6 19-10c0 0 0 24 12 18l-15 17a10 10 0 01-8 3c-5 1-15 1-23-1-12-2-21-8-27-3 0 0-9 27-3 36s16 26 11 30-10 3-20-6-11-27-11-27l3-43s-9-32-18-39z" opacity=".1"/><path d="M581 244l-15 17a10 10 0 01-3 3 10 10 0 01-4 1l-24-1c-11-3-19-8-26-4a9 9 0 00-1 1s-9 26-3 36 16 25 11 29a11 11 0 01-2 2c-5 2-10 0-18-8a48 48 0 01-10-26l2-43s-9-33-18-39l4-14c3 2 16 10 33 11a10 10 0 015 3 54 54 0 0112 14c7 12 26 11 26 11a99 99 0 0013-6c2-1 5-2 6-4a3 3 0 000-1s1 24 12 18z" opacity=".1"/><path d="M580 245l-14 17a10 10 0 01-3 2 10 10 0 01-5 1c-5 1-15 1-23-1-11-2-20-7-26-4a9 9 0 00-2 1s-8 26-3 36 16 26 12 30a12 12 0 01-2 1c-5 2-10 1-18-7a48 48 0 01-11-27l2-43s-9-32-18-39l5-14c3 2 16 10 33 12a10 10 0 015 2 54 54 0 0112 14c7 12 26 11 26 11a99 99 0 0013-6l6-4c0 5 1 23 11 18z" fill="#ced2df"/><path d="M470 181h-25a61 61 0 010 12 26 26 0 0027 2c-3-4-4-9-2-14z" opacity=".1"/><circle cx="459.9" cy="172.5" r="24.8" fill="#ec8c9c"/><path d="M455 168l8-1 7 3c5 1 9-2 13-6l8-7 4-5c1-2 1-5-1-7-3-2-8 0-10-2l-1-5c-1-3-5-5-8-5l-9 2a54 54 0 01-20 2 13 13 0 00-6 0 8 8 0 00-4 6c-2 5 1 14 3 19s10 7 16 6z" opacity=".1"/><path d="M455 167h8l7 2c5 1 9-2 13-5l8-8 4-5c1-2 1-5-1-6-3-2-8 0-10-3l-1-5c-1-3-5-4-8-4l-9 2a54 54 0 01-20 2 13 13 0 00-6 0 8 8 0 00-4 5c-2 5 1 14 3 19s10 7 16 6z" fill="#88455e"/><path d="M411 275s6 0 9 4 7 4 7 4M362 230s5 10 2 11-2 8-2 8" opacity=".1"/><g opacity=".1"><path d="M364 226l30-5c5 0 12-7 16-11a11 11 0 015-3 11 11 0 00-8 3c-4 5-12 11-16 11l-27 5zM444 201v-1a72 72 0 01-22 7 68 68 0 0022-6zM409 333s-5-14-1-20 6-39 6-39l-7-23h-14l-1 1h11l8 23s-4 31-7 38 1 20 1 20l27-1z"/></g><g opacity=".1"><path d="M516 321a12 12 0 01-2 2c-4 2-10 1-18-8-8-8-10-20-10-25l-1 4s1 17 11 27c8 8 14 9 18 7a12 12 0 002-1c1-2 2-4 1-7a3 3 0 01-1 1zM576 245l-10 11a10 10 0 01-3 3 10 10 0 01-5 1l-23-1c-11-3-19-8-25-5a9 9 0 00-2 1s-6 18-5 29c1-11 5-23 5-23a9 9 0 012-1c6-3 14 2 25 4 8 2 18 2 23 1a10 10 0 005-1 10 10 0 003-2l15-17a6 6 0 01-5 0z"/></g><path d="M266 487a1 1 0 001 0 3 3 0 01-1 0z" transform="translate(-125 -119)" fill="url(#b)"/><path d="M368 321l-8-2a39 39 0 007-14v-1c-6 2-12-2-17-7s-7-12-11-16a53 53 0 00-6-6l-5-2c-2 0-4 3-7 3a10 10 0 01-5 0l-20-5a23 23 0 00-11 1l-7 6c-3 2-9 2-13 3a89 89 0 01-12 0 30 30 0 00-8 1c-5 1-9 5-13 9a7 7 0 00-2 3 4 4 0 000 1 7 7 0 001 3 39 39 0 005 10l4 7a13 13 0 010 4 29 29 0 010 4 54 54 0 01-3 11 21 21 0 00-2 6 10 10 0 000 2c-1 6 6 11 7 18a11 11 0 011 1c-1 4-3 8-6 10h1a8 8 0 01-1 1h2a45 45 0 00-10 12c-12 22-90 64-90 64l1 1h-1c-7 5-22 18-8 35 0 0 11-18 19-26h1a2 2 0 010 1l52-29 23-15a42 42 0 0112-5h-1a24 24 0 016-1c9 0 19 7 22 33 5 36 3 42 1 43a3 3 0 01-1 0 1 1 0 001 0 1 1 0 001 0v8h-13l1-1v-1c3 0 7-2 7-4 1-7-8-10-15-10l-50 2s-7 9 14 11l2 1 24 18h1l-3 2c13 3 25 52 32 74s22 22 34 18c12-3 13-37 13-41l21 25 2 2 1 1c16 7 33-7 28-23a438 438 0 00-31-82 11 11 0 002-1l-1-1h1s-5-26-6-44v-1-1l6-1v-1l2-23s8-16 2-23a14 14 0 01-3-7c-1-6 0-17 13-25 21-14 29-24 29-24s0-8-12-12zm-42 17v-11h12a30 30 0 006-1h1a103 103 0 01-19 12zm-59 171l5 4 1 9a75 75 0 00-6-13z" transform="translate(-125 -119)" fill="url(#c)"/><path d="M175 381l-1 5-1 4-1 7-12 8-3-2c-5-4-15-13-23-17a26 26 0 00-7-3z" fill="#ffbdc6"/><path d="M175 381l-1 5a38 38 0 01-8 0h-32a26 26 0 00-7-3z" opacity=".1"/><path d="M166 385s14 2 15-4-7-9-14-10-49 3-49 3-7 10 20 11z" fill="#7679b4"/><path d="M175 381l-1 5-1 4-1 7-12 8-3-2c-5-4-15-13-23-17a26 26 0 00-7-3z" opacity=".1"/><path d="M175 381l-1 5a38 38 0 01-8 0h-32a26 26 0 00-7-3z" opacity=".1"/><path d="M166 385s14 2 15-4-7-9-14-10-49 3-49 3-7 10 20 11z" opacity=".1"/><path fill="#a66477" d="M123 184h74v88h-74z"/><path opacity=".1" d="M123 184h74v88h-74z"/><path d="M35 335l-4 3c-8 8-18 25-18 25-14-16 1-29 8-33l2-2zM174 212s4 26 17 32-17 17-17 17l-39-15s22-7 18-28zM132 366l-1 5-1 4-1 7-12 8-3-2-23-17a26 26 0 00-7-3z" fill="#ffbdc6"/><path d="M132 366l-1 5a38 38 0 01-8 0H91a26 26 0 00-7-3z" opacity=".1"/><path d="M123 370s14 2 15-4-7-9-14-10-49 3-49 3-7 10 19 11z" fill="#7679b4"/><path d="M130 375l-1 7-12 8-3-2 16-13z" opacity=".1"/><path d="M211 468l-2-1-1-2-20-25v1c0 4-2 37-13 40s-26 4-32-18-18-70-31-73l18-15s12 14 17 28c0-1-8-40-1-47h59s9 27 16 40c5 10 12 33 17 49 4 16-12 30-27 23z" fill="#7679b4"/><path d="M209 364c-9 5-49 3-62 2h-4v-4l10-25 53-30-2 13c1 18 5 44 5 44z" opacity=".1"/><path d="M209 363c-9 5-49 3-62 2h-5l1-1h3l7-28 53-30-2 13c1 18 5 44 5 44z" fill="#f2f1f2"/><path d="M204 319c-10 3-34 10-43 27-6 12-11 17-14 19h-4v-1h3l7-28 53-31-2 14zM23 328l12 7-4 3c-1-3-8-7-11-8l3-2zM141 365a1 1 0 01-1 0 3 3 0 001 0z" opacity=".1"/><path d="M169 242s-11 1-19-7c0 0-33 9-44 31s-86 62-86 62 13 8 12 11l49-28 23-16c5-3 32-20 37 28s0 42 0 42 8 2 20-20 49-28 49-28l2-24s7-16 1-23a14 14 0 01-3-7c-1-6 0-16 13-25 20-13 28-23 28-23s0-8-12-12l-62-23-2 7 40 27s-20 16-35 16c0 0 2 12-11 12z" fill="#565388"/><path d="M176 223a80 80 0 01-2-10l-22 6a24 24 0 010 12 23 23 0 0024-8z" opacity=".1"/><circle cx="158.1" cy="207.6" r="23.2" fill="#ffbdc6"/><path d="M170 155c7 0 13 3 19 5a9 9 0 005 0l7-3 5 2a51 51 0 015 5c5 5 7 11 11 16s11 10 16 7c-3 15-16 27-30 28h-16a14 14 0 01-4 1c-3 0-6-2-8-5l-13-20-5-4c-2-1-5 1-7 2l-10 7c-3 3-4 7-3 12l2 6c0 4-3 7-4 10a39 39 0 000 5c0 5-3 9-7 12-1 1-3 2-3 4v4c-1 3-4 5-7 5a19 19 0 01-9-1c4-2 6-7 5-12-1-6-8-11-7-18a21 21 0 012-6 54 54 0 003-11 19 19 0 000-9l-5-7a39 39 0 01-4-10 7 7 0 01-1-3 7 7 0 012-3c4-4 8-8 13-9a28 28 0 017 0 82 82 0 0012-1c3 0 9 0 12-2 2-2 4-5 7-6a22 22 0 0110-1zM183 395s14 26 10 34M208 465l-20-25v1s-1-8 3-6c8 6 21 16 21 18l-4 12z" opacity=".1"/><g opacity=".1"><path d="M180 230s2 7-4 10c8-1 9-8 9-11a26 26 0 01-5 1zM25 327s75-42 86-63c8-15 27-24 37-28-7 2-32 12-41 30-11 21-86 62-86 62zM194 227c13-4 25-14 25-14l-39-28 1-4-4-1-1 7 39 27a94 94 0 01-21 13zM195 320a97 97 0 0115-3v-1a104 104 0 00-15 4zM147 363a1 1 0 01-1 0 3 3 0 001 0c1-1 3-7-1-42-4-38-22-35-32-30 10-3 24-1 28 32 4 35 2 41 0 42a9 9 0 005-2zM143 365a3 3 0 01-1 0 1 1 0 001 0z"/></g><path d="M170 154l19 5a9 9 0 005 0l7-3 5 2a51 51 0 015 5c5 5 7 11 11 17s11 9 16 6c-3 15-16 27-30 28-5 0-11-1-16 1a14 14 0 01-4 1c-3 0-6-3-8-6l-13-19c-1-2-3-4-5-4l-7 1-10 7c-3 3-4 8-3 12l2 6c0 4-3 7-4 10a39 39 0 000 5c0 5-3 9-7 12l-3 4v4c-1 3-4 5-7 6a19 19 0 01-9-2c4-1 6-7 5-12-1-6-8-11-7-18a21 21 0 012-6 54 54 0 003-11 19 19 0 000-9l-5-7a39 39 0 01-4-9 7 7 0 01-1-4 7 7 0 012-3c4-4 8-8 13-9a28 28 0 017 0 82 82 0 0012-1c3 0 9 0 12-2 2-2 4-5 7-6a22 22 0 0110-1z" fill="#a66477"/><path d="M959 221v-1h-1c0-10-13-29-18-24-4 5 2 18 6 24s-14 43-16 45-14 35-29 39l-8 2v-1c1-3 3-6 3-10s0-8-2-10l-3-2a11 11 0 010-4l-2-16h1c6-2 11-6 12-12a6 6 0 01-1 0 10 10 0 000-1c-4 2-9-3-13-5-7-4-16 0-24 1-8 0-16-3-25-2-5 0-11 3-10 8 0 3 2 5 3 7 1 6-3 12-7 17l-5 12c-8-9-18-19-19-23l-25-43-1 2-1-2c-3-9-12-30-23-27s4 27 11 35l1 2a3 3 0 01-1 0l27 47s5 9 10 12c0 0 35 43 35 52s16 32 16 32 5 38-4 44h1l-1 2c-7 7-15 22-4 49 17 39 20 54 20 54l-39 3-32 2c-2-2-7-7-14 0-9 8-15 36-15 36s-3 22 8 17c0 0 13-19 17-20 2 0 4-3 6-6h1c3-1 10-4 16-3l33 1-9 29s-3 20 5 19c6-1 16-16 20-25 4-2 14-11 21-11l50-19s12-6 5-28c-5-18-19-54-24-67l-1-1-2-5a82 82 0 01-4-20v-1a9 9 0 001-2s-4-46 0-51l1-1 1-1c3-4 8-13 6-24v-1a29 29 0 00-3-8 23 23 0 010-3v-2-1-3-1-1h1v-1-1h1v-1h1v-1c6-5 30-42 30-42s6-8 6-14c0 0 11-34 10-45zm-66 310l-2-20 10 15s-1 4-8 5z" transform="translate(-125 -119)" fill="url(#d)"/><path d="M669 408s-6-9-15 0-14 35-14 35-3 22 8 16c0 0 13-18 16-19s8-11 8-11zM730 430s-8-3-10 0l-11 31s-2 19 6 18 22-30 22-30z" fill="#493545"/><path d="M730 430s-8-3-10 0l-11 31s-2 19 6 18 22-30 22-30z" opacity=".1"/><path d="M757 375l17 27s-1 6-12 5l-36 23s-3 28 7 25c2 0 13-12 21-11l48-19s12-6 6-28-27-72-27-72l-32 18z" fill="#3e3d77"/><path d="M757 375l17 27s-1 6-12 5l-36 23s-3 28 7 25c2 0 13-12 21-11l48-19s12-6 6-28-27-72-27-72l-32 18z" opacity=".1"/><path d="M768 415c2 16-12 17-12 17s-62 1-69 0-17 3-17 3c-13-8-3-27-3-27l32-2 37-3s-2-15-18-54c-11-26-3-41 3-48a27 27 0 016-5l50 2a65 65 0 000 8 81 81 0 007 25c-3 0-22 17-22 17s3 52 6 67z" fill="#3e3d77"/><path d="M671 409l32-2 37-3s-2-15-19-53c-11-26-3-41 4-48a27 27 0 015-5l47 2v-1l-50-3a27 27 0 00-6 5c-6 7-15 22-3 48 16 39 18 54 18 54l-37 3c-6 2-32 2-32 2s-10 19 3 27l1-1c-9-9 0-25 0-25z" opacity=".1"/><path fill="#493545" d="M720 147h25v64h-25z"/><path opacity=".1" d="M720 147h25v64h-25z"/><path d="M760 137c1 0 2 0 2 2a9 9 0 011 3l1 19a11 11 0 001 4l3 3 2 9-3 10-4 14c-2 4-6 6-8 2s-2-9-2-15l-5-26 3-21 2-15c2 5 4 10 7 11z" fill="#493545"/><path d="M760 137c1 0 2 0 2 2a9 9 0 011 3l1 19a11 11 0 001 4l3 3 2 9-3 10-4 14c-2 4-6 6-8 2s-2-9-2-15l-5-26 3-21 2-15c2 5 4 10 7 11z" opacity=".1"/><path d="M653 109l-10 8-3-3c-7-9-22-31-11-35s20 18 23 26l1 4zM829 106c-4 6-10 0-10 0l-1-3c-4-5-10-18-6-23 5-6 17 14 18 23a5 5 0 01-1 3zM729 172s8 26 6 34 17 17 17 17h23s8-17 6-22-19-8-19-8-11 0-10-28z" fill="#c77485"/><path d="M653 109l-10 8-3-3c4-1 9-6 12-9l1 4zM829 106c-4 6-10 0-10 0l-1-3c2 2 11 0 12 0a5 5 0 01-1 3zM777 306c-13 6-54-4-56-5a27 27 0 015-5l51 2a65 65 0 000 8z" opacity=".1"/><path d="M734 195s-9 3-23-10c0 0-31-30-33-38l-24-42s-11 11-15 10l27 47s5 9 10 11c0 0 33 43 33 51s16 32 16 32 4 37-4 43c0 0 47 13 58 4 0 0-5-46 0-51 0 0 14-16 4-34 0 0-2-9 3-14s29-42 29-42 6-8 6-13c0 0 11-36 9-45 0 0-9 2-12 0 0 0-14 42-16 43s-13 35-28 39l-17 5s29 18 15 26-38-22-38-22z" fill="#ffaac4"/><path d="M753 179a78 78 0 01-1-12l-23 7a31 31 0 012 5l9 3a21 21 0 0013-4z" opacity=".1"/><circle cx="739.6" cy="160" r="21.2" fill="#c77485"/><path d="M714 127c-4 1-9 4-9 9l2 7c2 6-2 12-5 17s-7 12-4 17a42 42 0 003 4c3 5 3 12 5 18a32 32 0 0038 23 20 20 0 01-4-14v-10c-2-4-7-6-10-10s-3-9-1-13l4-13a39 39 0 011-4c2-5 8-8 13-10s12-1 17-3 11-6 11-11c-4 2-9-3-13-5-7-4-15-1-23 0s-16-2-25-2z" opacity=".1"/><path d="M714 127c-5 0-10 3-10 8l3 7c2 6-2 12-6 17s-7 12-4 17a42 42 0 003 4c4 5 4 12 6 18a32 32 0 0037 23 20 20 0 01-4-13c0-4 2-8 0-11-2-4-7-6-10-9s-2-9-1-14l5-13a39 39 0 011-4c2-5 7-8 13-9l17-4c6-2 10-5 11-11-5 2-9-3-13-5-7-4-16 0-23 0-8 1-16-2-25-1z" fill="#493545"/><path d="M761 207s8 8 10 11M779 252l-16 1h-16" opacity=".1"/><g opacity=".1"><path d="M772 217a10 10 0 01-3 2 11 11 0 008-2c14-8-15-26-15-26h-5s29 18 15 26zM830 105v-1a48 48 0 01-5 1 22 22 0 005 0zM726 299c8-6 3-43 3-43s-14-23-15-32-33-51-33-51c-5-2-10-11-10-11s-28-46-32-47l27 47s5 9 10 11c0 0 33 43 33 51s16 32 16 32 4 37-4 43c0 0 29 8 47 7-18 0-42-7-42-7zM735 195h-1a6 6 0 01-1 0h2z"/></g><g opacity=".1"><path d="M830 104c-1 12-9 42-9 42 0 5-6 13-6 13s-24 36-29 41-3 15-3 15c0-3 0-8 3-11 6-5 29-42 29-42s6-8 6-13c0 0 11-36 9-45zM778 249l1 3s10-11 7-26c1 13-8 23-8 23z"/></g><ellipse cx="469.8" cy="620.4" rx="427.7" ry="41.1" fill="#0899bc" opacity=".1"/><path d="M304 579s-15-50 3-86a78 78 0 006-49 131 131 0 00-7-23" fill="none" stroke="#535461" stroke-miterlimit="10" stroke-width="2"/><path d="M317 398c0 6-11 24-11 24s-11-18-11-24a11 11 0 1122 0zM335 432c-3 5-22 13-22 13s0-20 4-25a11 11 0 1118 11zM334 489c-5 3-26 1-26 1s11-18 16-21a11 11 0 1110 20zM324 532c-5 4-26 5-26 5s8-19 13-23a11 11 0 0113 18zM290 447c4 4 24 8 24 8s-4-20-9-24a11 11 0 10-15 16zM278 497c6 3 26 1 26 1s-10-18-16-20a11 11 0 00-10 19zM274 548c5 4 26 5 26 5s-8-19-13-22a11 11 0 10-13 17z" fill="#0899bc"/><path d="M317 398c0 6-11 24-11 24s-11-18-11-24a11 11 0 1122 0zM335 432c-3 5-22 13-22 13s0-20 4-25a11 11 0 1118 11zM334 489c-5 3-26 1-26 1s11-18 16-21a11 11 0 1110 20zM324 532c-5 4-26 5-26 5s8-19 13-23a11 11 0 0113 18zM290 447c4 4 24 8 24 8s-4-20-9-24a11 11 0 10-15 16zM278 497c6 3 26 1 26 1s-10-18-16-20a11 11 0 00-10 19zM274 548c5 4 26 5 26 5s-8-19-13-22a11 11 0 10-13 17z" fill="#0899bc" opacity=".1"/><path d="M599 579s-15-49 2-85a78 78 0 007-49 131 131 0 00-7-23" fill="none" stroke="#535461" stroke-miterlimit="10" stroke-width="2"/><path d="M612 399c0 6-11 23-11 23s-11-17-11-23a11 11 0 0121 0zM630 432c-4 5-22 14-22 14s0-21 3-26a11 11 0 1119 12zM629 490c-6 2-26 0-26 0s11-17 16-20a11 11 0 1110 20zM618 533c-4 3-25 5-25 5s8-19 12-23a11 11 0 0113 18zM585 447c4 4 24 9 24 9s-5-20-9-24a11 11 0 10-15 15zM573 498c5 3 26 1 26 1s-11-18-16-21a11 11 0 00-10 20zM569 549c5 3 25 5 25 5s-7-19-12-23a11 11 0 00-13 18z" fill="#0899bc"/><path d="M612 399c0 6-11 23-11 23s-11-17-11-23a11 11 0 0121 0zM630 432c-4 5-22 14-22 14s0-21 3-26a11 11 0 1119 12zM629 490c-6 2-26 0-26 0s11-17 16-20a11 11 0 1110 20zM618 533c-4 3-25 5-25 5s8-19 12-23a11 11 0 0113 18zM585 447c4 4 24 9 24 9s-5-20-9-24a11 11 0 10-15 15zM573 498c5 3 26 1 26 1s-11-18-16-21a11 11 0 00-10 20zM569 549c5 3 25 5 25 5s-7-19-12-23a11 11 0 00-13 18z" fill="#0899bc" opacity=".1"/><path d="M670 15h-6a4 4 0 100-8h-51a4 4 0 000 8h6a4 4 0 000 9h-9a4 4 0 100 9h51a4 4 0 100-9h9a4 4 0 000-9zM376 41h-5a3 3 0 100-7h-39a3 3 0 000 7h5a3 3 0 100 7h-7a3 3 0 100 6h39a3 3 0 100-6h7a3 3 0 000-7z" fill="#dee3f3" opacity=".5"/><path d="M51 515s17 34 3 53 1 70 1 70" fill="none" stroke="#0899bc" stroke-miterlimit="10"/><path d="M56 504c0 7-5 12-5 12s-5-5-5-12 5-12 5-12 5 5 5 12z" fill="#0899bc"/><path d="M60 515s-18 34-3 53-2 70-2 70" fill="none" stroke="#0899bc" stroke-miterlimit="10"/><path d="M55 504c0 7 4 12 4 12s5-5 5-12-5-12-5-12-4 5-4 12z" fill="#0899bc"/><path d="M55 504c0 7 4 12 4 12s5-5 5-12-5-12-5-12-4 5-4 12z" opacity=".1"/><path d="M67 515s17 34 3 53 1 70 1 70" fill="none" stroke="#0899bc" stroke-miterlimit="10"/><path d="M72 504c0 7-5 12-5 12s-5-5-5-12 5-12 5-12 5 5 5 12zM69 532c-4 4-11 5-11 5s0-7 4-12 12-5 12-5 0 7-5 12zM70 555c-5 5-12 6-12 6s0-8 5-12 12-6 12-6-1 7-5 12zM45 568c4 5 4 13 4 13s-7-1-11-6-5-13-5-13 8 1 12 6zM49 518c5 3 7 10 7 10s-7 2-12-2-8-11-8-11 7-1 13 3z" fill="#0899bc"/><path d="M49 518c5 3 7 10 7 10s-7 2-12-2-8-11-8-11 7-1 13 3z" opacity=".1"/><path d="M76 515s-18 34-3 53-2 70-2 70" fill="none" stroke="#0899bc" stroke-miterlimit="10"/><path d="M71 504c0 7 5 12 5 12s4-5 4-12-4-12-4-12-5 5-5 12z" fill="#0899bc"/><path d="M71 504c0 7 5 12 5 12s4-5 4-12-4-12-4-12-5 5-5 12z" opacity=".1"/><path d="M72 532c-4 5-5 12-5 12s7 0 12-5 5-12 5-12-7 0-12 5z" fill="#0899bc"/><path d="M72 532c-4 5-5 12-5 12s7 0 12-5 5-12 5-12-7 0-12 5z" opacity=".1"/><path d="M81 565c-4 5-5 12-5 12s8-1 12-5 5-12 5-12-7 0-12 5z" fill="#0899bc"/><path d="M68 558s10-17 25-17M60 548s-11-17-26-17M58 571s11-16 26-17" fill="none" stroke="#0899bc" stroke-miterlimit="10"/><circle cx="92.7" cy="540.6" r="2.7" fill="#0899bc"/><circle cx="34.6" cy="530.8" r="2.7" fill="#0899bc"/><path d="M66 577s-10-17-25-17" fill="none" stroke="#0899bc" stroke-miterlimit="10"/><circle cx="41" cy="559.9" r="2.7" fill="#0899bc"/><circle cx="83.8" cy="554.5" r="2.7" fill="#0899bc"/><path d="M124 618s-25-5-32-12-37-19-40-10-46 37-17 42 67 7 76 4 13-24 13-24z" fill="#a8a8a8"/><path d="M35 635c28 5 67 7 76 3 6-2 11-15 12-20h1s-5 20-13 24-48 1-76-4c-9-1-11-5-10-9 1 3 3 5 10 6z" opacity=".2"/><path d="M895 523s8 11-4 27-22 31-18 41c0 0 18-31 33-31s5-19-11-37z" fill="#0899bc"/><path d="M895 523a14 14 0 012 3c14 17 22 33 8 34-13 0-29 24-33 30a13 13 0 001 1s18-31 33-31 5-19-11-37z" opacity=".1"/><path d="M910 537l-1 7-1-7c0-3 1-2 1-2s1-2 1 2zM916 541l-7 3s2-3 6-5 2 0 2 0 2 0-1 2z" fill="#ffd037"/><path d="M851 523s-9 11 3 27 23 31 19 41c0 0-19-31-34-31s-5-19 12-37z" fill="#0899bc"/><path d="M851 523a14 14 0 00-2 3c-15 17-23 33-9 34 14 0 29 24 33 30a13 13 0 010 1s-19-31-34-31-5-19 12-37z" opacity=".1"/><path d="M835 537l1 7 1-7c0-3-1-2-1-2s-1-2-1 2zM830 541l6 3-5-5c-3-2-2 0-3 0s-2 0 2 2z" fill="#ffd037"/><path d="M838 589s23 0 30-5 36-11 38-3 35 40 9 40-62-4-69-8-8-24-8-24z" fill="#a8a8a8"/><path d="M915 618c-26 0-61-4-68-8-6-3-8-15-9-21s1 19 8 24 42 8 69 8c7 0 10-3 10-7-1 3-4 4-10 4z" opacity=".2"/><path d="M178 75h-6a4 4 0 100-9h-51a4 4 0 000 9h6a4 4 0 000 8h-9a4 4 0 000 9h51a4 4 0 100-9h9a4 4 0 000-8z" fill="#dee3f3" opacity=".5"/></svg>