<svg data-name="Layer 1" xmlns="http://www.w3.org/2000/svg" xmlns:xlink="http://www.w3.org/1999/xlink" width="1077.9" height="813"><defs><linearGradient id="a" x1="975.8" y1="484.9" x2="975.8" y2="87.9" gradientTransform="translate(-77)" gradientUnits="userSpaceOnUse"><stop offset="0" stop-color="gray" stop-opacity=".3"/><stop offset=".5" stop-color="gray" stop-opacity=".1"/><stop offset="1" stop-color="gray" stop-opacity=".1"/></linearGradient><linearGradient id="b" x1="649.1" y1="832.9" x2="649.1" y2="382.1" xlink:href="#a"/></defs><path d="M664 111c-46 40-106 37-159 17S404 71 353 45C310 23 265 9 219 3 154-6 81 5 36 68c-51 71-47 198 8 263 28 33 64 49 96 75s61 69 58 119c-2 46-31 81-61 103-24 17-52 36-55 71s21 62 44 77c75 50 168 49 243-1 27-18 52-42 80-57 73-37 154 1 232 14 66 12 134 6 198-17 39-14 78-35 105-75 19-28 32-64 43-99l35-115c7-23 14-46 15-71 4-45-10-89-28-126-43-90-116-153-194-169s-162 15-223 84" fill="#0899bc" opacity=".1"/><ellipse cx="489.6" cy="532.5" rx="227" ry="10.4" fill="#0899bc" opacity=".1"/><path d="M482 490a206 206 0 110-412 206 206 0 010 412zm0-410a204 204 0 100 408 204 204 0 000-408z" fill="#fff"/><path d="M482 444a160 160 0 110-320 160 160 0 010 320zm0-318a158 158 0 100 316 158 158 0 000-316z" fill="#fff"/><path d="M482 394a110 110 0 11110-110 110 110 0 01-110 110zm0-218a108 108 0 10108 108 108 108 0 00-108-108z" fill="#fff"/><ellipse cx="980" cy="403.2" rx="14.3" ry="4.7" fill="#0899bc" opacity=".1"/><ellipse cx="178.6" cy="651.8" rx="84" ry="13.8" fill="#0899bc" opacity=".1"/><g opacity=".1"><path d="M326 270H69a13 13 0 00-13 13v162a13 13 0 0013 14h202s5 27-12 30c0 0 38 3 31-30h36a13 13 0 0013-14V283a13 13 0 00-13-13z"/><g opacity=".2"><rect x="93.8" y="312.7" width="207.7" height="12.7" rx="5.7" ry="5.7"/><rect x="93.8" y="369.3" width="207.7" height="12.7" rx="5.7" ry="5.7"/><rect x="93.8" y="397.6" width="174.2" height="12.7" rx="5.7" ry="5.7"/><rect x="93.8" y="341" width="90.1" height="12.7" rx="5.7" ry="5.7"/></g></g><path d="M328 269H72a13 13 0 00-14 13v162a13 13 0 0014 13h201s5 28-12 31c0 0 38 3 32-31h35a13 13 0 0013-13V282a13 13 0 00-13-13z" fill="#fff"/><g opacity=".2" fill="#0899bc"><rect x="96.1" y="311.6" width="207.7" height="12.7" rx="5.7" ry="5.7"/><rect x="96.1" y="368.2" width="207.7" height="12.7" rx="5.7" ry="5.7"/><rect x="96.1" y="396.5" width="174.2" height="12.7" rx="5.7" ry="5.7"/><rect x="96.1" y="339.9" width="90.1" height="12.7" rx="5.7" ry="5.7"/></g><path d="M233 266l-14 30-4 7c-2 1-7 19-7 19l-15 24-1 1-6-2-4-15v-5l11-11s2 0 5-7 6-10 6-10l2-5 17-28s15-22 19-12-9 14-9 14zM174 481a3 3 0 01-1 1 827 827 0 00-13 64c-2 3-4 19-4 19s-1 33-3 39 0 16 0 16c0 5 3 11 5 13l1 1 1 1a8 8 0 002 3 24 24 0 008 4h3v4l-7 2-16 1s-17 1-13-7a13 13 0 000-1l1-2c2-7 1-17 1-17l-4-26c-6-26 5-54 5-54s-1-2 1-8 0-18 0-18l-3-24a48 48 0 010-10 50 50 0 010-5l34-5 2 9z" fill="#ffd2c6"/><path d="M173 646l-7 2-16 1s-17 1-13-7a13 13 0 000-1l1-2a27 27 0 019 2c5 2 9-3 9-3l2-5h1l1 1a8 8 0 002 3v1l-3 5 7 1a3 3 0 004-2h3z" opacity=".1"/><path d="M181 650c-1 3-17 3-17 3s-10 0-12 2-11 1-11 1-4 0-6-7c-1-7 2-8 2-8a27 27 0 0110 1c5 2 9-3 9-3l3-5 1 1a8 8 0 002 3l-3 6 7 1c4 1 5-2 5-3a3 3 0 000-1l6 2a6 6 0 014 7z" fill="#626696"/><path d="M212 516l-1 9c2 5-2 17-2 17l-2 7c1 9-5 31-5 31l-5 29a24 24 0 001 15v2a11 11 0 002 3 10 10 0 001 1 22 22 0 007 4h1a30 30 0 003 1 3 3 0 000 1l-1 4-10-2-14-5-7-4v-1-1c1-6 4-24 3-36-2-16 4-38 6-43a26 26 0 001-9c-2-4-3-19-3-19l-9-20a53 53 0 01-3-11 37 37 0 010-8s32-29 36 0v2c3 26 2 31 1 33z" fill="#ffd2c6"/><path d="M212 636l-1 4-10-2-14-5-7-4v-1-1h1a13 13 0 016 0l6 2a8 8 0 013-1l2-3v-1a11 11 0 002 4 11 11 0 001 1v3a21 21 0 005 2 3 3 0 002 0h1a30 30 0 003 1 3 3 0 000 1z" opacity=".1"/><path d="M207 646c-3-1-10-3-11-2h-11a6 6 0 01-5-3c-2-3-1-13-1-13h2a13 13 0 016 1l6 1a7 7 0 014-1l1-3a11 11 0 002 3 11 11 0 001 1v3a21 21 0 005 2 2 2 0 003-1l4 1c3 0 7 2 8 6s-11 5-14 5z" fill="#626696"/><path d="M174 481h-2a25 25 0 01-4 1h-30a50 50 0 010-6l34-4 2 9z" opacity=".1"/><path d="M204 472l-23 5-9 2a27 27 0 01-4 1h-32c-5-18 7-41 7-41l2-7h1l1-7h47v3l2 6 7 34z" fill="#626696"/><path d="M211 483l-6 3c-6 3-23 3-30 3a37 37 0 010-8s32-29 36-1v3z" opacity=".1"/><path d="M212 481h-1l-6 2c-6 3-24 4-30 4h-1c-3 0-6-3-6-4v-3l-1-2-18-10c-4-3-3-25-2-36v-7l47 3 7 1h4l1 1 4 21c2 2 0 7 0 10a19 19 0 010 4l1 9a17 17 0 001 7z" fill="#626696"/><circle cx="161.3" cy="297.3" r="19.3" fill="#ffd2c6"/><path d="M152 305s1 19-2 23l-14 12 3 12 17 2 20-21-5-5s-3-12 0-18-19-5-19-5z" fill="#ffd2c6"/><path d="M193 346l-1 1-6-2-4-15v-5l1-2s7 1 6 7c0 5 3 14 4 16zM206 432l-10 2c-5 1-12 1-15-1-4-2-28-1-34-1h-1l1-7h47v3l7 1h4l1 3z" opacity=".1"/><path d="M182 325s6 0 6 6 4 16 4 16l-2 4s-2 8 0 10 7 2 4 19c0 0-1 13 1 17s2 15 4 19l7 14s-20 4-25 1-36-1-36-1v-6a5 5 0 011-4c1-2 2-4 1-6s3-5 1-8-4-4-3-6-1-4-2-6l-9-17-2-7s-10-8-10-12 4-8 4-8l10-10s6 6 11 4 17-12 17-12 4-3 4-4h3l5-2 4 2z" fill="#ffcde5"/><path d="M125 356l-3 2s-3 6-4 17l-4 25-6 11s-11 22-12 28-7 15-7 15-21 19-7 22 15-15 15-15l4-6 19-35s7-9 5-14c0 0 9-19 9-24a87 87 0 00-2-12l2-11z" fill="#ffd2c6"/><path d="M168 397l-17 8 12-1zM180 403s-19 7-28 5c0 0 22 4 28-5z" opacity=".1"/><path d="M182 405s-18 11-28 9c0 0 24 5 28 3l-11-3s12-7 11-9zM161 263c-5-1-10 0-14 3-3 2-5 6-9 8a49 49 0 01-5 2 16 16 0 00-10 17l3 8c1 6 0 11-1 16a167 167 0 01-17 42 4 4 0 00-1 2 4 4 0 001 2c7 8 18 11 29 11 4 0 8 0 11-2a17 17 0 006-5 27 27 0 005-17c0-5-2-10-1-15a4 4 0 011-2l5-1c4-1 7-5 8-10s-1-8-1-13a28 28 0 015-16l4-7c1-3-1-5-3-8s-3-8-7-11a20 20 0 00-9-4z" opacity=".1"/><path d="M160 262c-5-1-11 0-15 3l-8 8a48 48 0 01-5 2 16 16 0 00-10 17c0 3 2 5 3 8 1 5 0 11-2 16a167 167 0 01-16 41 4 4 0 00-1 3 4 4 0 001 2c7 8 18 11 29 11 4 0 8 0 11-2a17 17 0 006-5 27 27 0 005-17c-1-5-2-11-1-15a4 4 0 011-2l5-1c4-1 7-5 7-10v-13a28 28 0 015-16l4-7c0-3-1-5-3-8l-7-11a20 20 0 00-9-4z" fill="#985c7e"/><path d="M154 449s4 18 10 23z" opacity=".1"/><g opacity=".1"><path d="M123 296zM178 280a6 6 0 010 2l-4 6a28 28 0 00-5 16v14c-1 5-3 9-8 9l-4 1a4 4 0 00-1 2c-1 5 0 10 1 15a27 27 0 01-6 17 17 17 0 01-5 5c-4 2-8 2-12 2-10 0-21-3-28-10a3 3 0 000 1 4 4 0 001 2c7 8 18 11 29 11 4 0 8 0 11-2a17 17 0 006-5 27 27 0 005-17c-1-5-2-11-1-15a4 4 0 011-2l5-1c4-1 7-5 7-10v-13a28 28 0 015-16l4-7a7 7 0 00-1-5z"/></g><path d="M521 764s-38-2-33 24c0 0-1 5 3 7 0 0 0-2 4-1a18 18 0 004 0 9 9 0 005-2s11-4 15-22l3-5-6 3s2 5 0 9l-1-9-4 2s4 8 1 14c0 0 1-10-2-13l-4 2s4 9 1 15c0 0 1-10-2-14l-4 3s4 8 1 14c0 0 0-12-2-13l-4 4s2 6 1 9l-2-8s-4 6-4 9a19 19 0 013-9 11 11 0 00-6 3s1-4 7-4l3-5-9 1s3-3 10-2l4-3s-7-1-10 0c0 0 3-3 12-1l4-2-10-1s4-2 11 0l3-2-6-1h-1a16 16 0 019 1l6-3z" fill="#0899bc"/><ellipse cx="495.1" cy="797.5" rx="26.9" ry="4.5" fill="#0899bc" opacity=".1"/><path d="M819 731s-38-2-33 25c0 0-1 4 3 7 0 0 0-2 4-2a18 18 0 004 0 9 9 0 005-2s11-4 15-21l3-5-6 3s2 4 0 8l-1-8-4 1s4 9 1 14c0 0 1-10-2-13l-4 3s4 8 1 15c0 0 1-11-2-15l-4 4s4 8 1 13c0 0 0-12-2-13 0 0-4 3-4 5 0 0 2 6 1 9l-2-8s-4 5-4 9a19 19 0 013-10 11 11 0 00-6 3s1-4 7-4l3-4s-5-1-9 1c0 0 3-4 11-2l4-4s-8-1-11 1c0 0 3-4 12-1l4-3-10-1s4-2 11 0l3-1-6-1c-2 0-1-1-1-1a16 16 0 019 1l6-3z" fill="#0899bc"/><ellipse cx="793.2" cy="764.9" rx="26.9" ry="4.5" fill="#0899bc" opacity=".1"/><ellipse cx="848.1" cy="436.8" rx="77.5" ry="12.7" fill="#0899bc" opacity=".1"/><path d="M999 229c4-10 0-21 0-21v-10s4-19-12-32l-11-9-7-6a8 8 0 00-1 0h-1a32 32 0 01-2-5 5 5 0 004-1 5 5 0 001-2l1-4a11 11 0 012-4l-1 1 5-6a12 12 0 001-1c2-3 3-7 3-10a10 10 0 000-4 13 13 0 00-1-3c-2-4-2-10-6-14-3-3-7-4-11-4s-8-1-12-3a13 13 0 00-3-2 3 3 0 00-3 1 2 2 0 010 1 1 1 0 01-1 0l-6-1v1h1l-1 1a13 13 0 01-5-1 2 2 0 000 1l2 3a3 3 0 010 2 4 4 0 01-1 2c-1 2-4 1-6 2a1 1 0 00-1 1 1 1 0 000 1 1 1 0 001 0 10 10 0 002 2h-1a24 24 0 008 39v2l-7 3a6 6 0 01-5-3c-2-4-7 0-7 0s-18-2-25 2l-12-5c-1 0-4-2-5-1s-2-2-3-2l-4-2c-3 0-3 0-6-3s-24-13-24-13l-10-8-11-9v0a100 100 0 00-4-12c-1-2-1-4-2-3s-2-1-3-2a2 2 0 00-4 1c-8 13-11 14-6 19 4 4 7 8 10 9h1l20 24s14 13 24 17 9 5 9 5 30 15 35 15 4 31 2 36-5 42-5 42-3 8 0 13v13c-3 4-7 12-7 19l-1 1a3 3 0 010 1v-1a38 38 0 01-2 9 37 37 0 00-2 13v24l-2 15s-2 11 0 14a6 6 0 011 4 9 9 0 002 6 4 4 0 011 3c-1 3 1 30 1 30l-1 8 1 9s-8 7-6 10l2 4h-1a3 3 0 00-2 0 78 78 0 01-8 7l-14 7h-8s-4 0-1 6 21 4 21 4l11-2 25-1c2 0 3-2 3-3a8 8 0 00-2-3 2 2 0 000-1v-4c8-4-2-14-2-14l5-10c2-2 2-41 2-41s1-14-1-17a6 6 0 012-5c2-2 8-19 12-34l3 18s-1 8 1 10a4 4 0 011 3 14 14 0 000 7 4 4 0 002 3l2 4c0 1 5-1 5 1a49 49 0 010 6l1 36s-2 3-2 10l-2 7a3 3 0 000 4h1l-2 1a3 3 0 00-1 4 3 3 0 00-1 4 4 4 0 001 0 6 6 0 00-3 2 25 25 0 01-6 5 100 100 0 00-8 7 12 12 0 01-5 4 8 8 0 01-2 1c-4 0-2 5 1 5s14 4 22 2c0 0 3 1 6-1l12-4 5-1a7 7 0 000-2h1-1a24 24 0 000-4 23 23 0 00-2-6 2 2 0 000-1c2-3-1-10-1-10a19 19 0 014-4l6-32s-1-8 2-12-3-25-3-25-3-5-2-7-1-8-1-8v-8a9 9 0 000-3c-1-2-2-5-1-8 2-3 5-25 5-25s-3-10 1-18a17 17 0 011-2c3-4 2-12 1-18l-1-3v-1-1a11 11 0 008-5s9-11 17-15 9-11 9-11c-2-2 2-10 2-10zm-32-78zm6 92l-9 10c-2-3 2-10 2-10l8-16-1 5c-2 2 3 7 3 7-3 0-3 4-3 4z" transform="translate(-61 -43)" fill="url(#a)"/><path d="M759 68l-5 9a18 18 0 01-4-1 17 17 0 01-11-9c-4-10 3-16 6-17s6-4 9 2a101 101 0 014 12l1 4zM910 116l-8 11s-36 17-29-3c3-9 3-16 3-20-1-6-3-8-3-8s35-18 30-6a17 17 0 00-1 8 27 27 0 003 11 37 37 0 005 7z" fill="#cc818c"/><path d="M899 339s5 22 3 25-2 12-2 12-4 31-6 32a19 19 0 00-3 4s2 7 1 10a2 2 0 01-1 1c-3 1-13-4-18-7a3 3 0 01-2-2 3 3 0 011-3 3 3 0 011-4l1-1v-1a3 3 0 010-3l1-7c1-7 3-10 3-10l-2-36a51 51 0 000-5c0-3-4-1-4-2s-1-3-2-4a4 4 0 01-2-2 14 14 0 010-7 4 4 0 00-1-4c-2-2-1-10-1-10l-3-17c-4 14-10 32-12 33a6 6 0 00-2 5c2 3 1 17 1 17s0 38-2 41l-5 10s10 9 2 14c-9 5-26-8-26-8l2-2v-1l-2-3c-2-3 6-10 6-10l-1-9 1-8s-2-27-1-30a4 4 0 00-1-3 9 9 0 01-1-5 6 6 0 00-2-5c-2-3 0-14 0-14l2-14v-24a37 37 0 013-13 40 40 0 002-10c0-8 5-15 7-19l3-4 63-2a86 86 0 003 9c1 6 2 14-1 18a14 14 0 00-1 2c-3 7-1 17-1 17l-4 26v8a9 9 0 011 2v17c-1 2 2 6 2 6z" fill="#444053"/><path d="M902 262a16 16 0 00-1 1h-4l-2-19h7c2 6 2 13 0 18z" opacity=".1"/><path d="M902 261a14 14 0 00-1 2h-3l-2-20h7c1 6 2 14-1 18z" fill="#444053"/><path d="M902 261a14 14 0 00-1 2h-3l-2-20h7c1 6 2 14-1 18zM892 422a2 2 0 01-1 1c-3 1-13-4-18-7a3 3 0 01-2-2c3 0 5 3 5 3a5 5 0 017 2c3 4 8 2 8 2l1 1z" opacity=".1"/><path d="M893 434c0 2-5 2-5 2l-11 4c-3 2-6 1-6 1-8 2-19-2-22-2s-5-5-1-6a8 8 0 002 0 12 12 0 005-4 101 101 0 018-7 24 24 0 005-6c5-4 8 2 8 2a5 5 0 017 1c3 4 8 3 8 3a72 72 0 002 6 16 16 0 010 6z" fill="#ff748f"/><circle cx="879.8" cy="421.1" r=".6" fill="#575988"/><circle cx="875.1" cy="425.4" r=".6" fill="#575988"/><circle cx="870.4" cy="429.4" r=".6" fill="#575988"/><circle cx="872.8" cy="427.6" r=".6" fill="#575988"/><circle cx="877.5" cy="423.1" r=".6" fill="#575988"/><path d="M893 434c0 2-5 2-5 2l-11 4c-3 2-6 1-6 1-8 2-19-2-22-2s-5-5-1-6a8 8 0 002 0 38 38 0 0011 2h14l8-3a14 14 0 015-2 13 13 0 005-2 16 16 0 010 6z" fill="#dce6f2"/><path d="M873 439a7 7 0 01-1 0 9 9 0 005-1l2-1 2-1 1-1h2a8 8 0 012-1 9 9 0 011 0 9 9 0 001 0 8 8 0 002-1 8 8 0 012-1 2 2 0 001 0h1a3 3 0 01-2 1 8 8 0 00-2 1 8 8 0 01-2 0 7 7 0 01-1 0 9 9 0 00-1 1 8 8 0 00-1 0l-1 1h-2l-3 1-2 1a11 11 0 01-4 1z" fill="#575988" opacity=".5"/><path d="M875 341s4-6 11-6l10-1s-4 3-7 3l-14 4zM877 342l6-3h4a11 11 0 01-3 2l-7 1zM878 344s6 0 6 2M826 260l6-7a5 5 0 012-3s3 1 0 5-8 5-8 5zM903 90l-2 6a20 20 0 01-5 3c-3 2-7 6-12 6a23 23 0 01-8-1c-1-6-3-8-3-8s35-18 30-6z" opacity=".1"/><path d="M908 81a24 24 0 11-24-24 24 24 0 0124 24z" fill="#cc818c"/><path d="M910 116l-8 11s-36 17-29-3c3-9 3-16 3-20a19 19 0 011 5c0 3 0 7 7 8 13 2 20-6 21-8a37 37 0 005 7zM759 68l-5 9a18 18 0 01-4-1l-1-1c2 1 9-11 9-11l1 4zM902 240c-15 7-68 1-68 1a7 7 0 000-1l3-4 63-2 2 6z" opacity=".1"/><path d="M876 105l-7 3a6 6 0 01-5-4c-2-3-8 0-8 0s-17-1-24 2l-12-5-5-1-3-2-3-2c-2-1-3 1-6-2s-25-13-25-13l-9-8-11-9s-6 13-8 12l20 24s14 12 24 16 9 5 9 5 29 16 34 15 4 31 2 36-5 42-5 42-3 8 0 13v13s53 6 68-1c0 0 3-25 0-28s2-10 2-10l10-21 23-23s4-20-12-32l-11-10-7-5h-2s-6 10-21 7c-7-1-7-5-7-8a19 19 0 00-1-4z" fill="#67647e"/><path d="M905 185s-33 1-39 11c0 0 8-4 16-3s23-8 23-8zM869 221s15 1 19-3 3-5 3-5zM908 153s-13 16 3 22zM831 123s4 10 7 11zM815 119l14 12-14-12zM862 109s-11 17-4 27c0 0-4-12 4-27z" opacity=".1"/><path d="M891 238l-4 4-4 4-1 1c-17 11-20-7-20-7s-7 5-8 1 17-9 19-9a3 3 0 001 0 11 11 0 004-1h1a30 30 0 002-2z" fill="#cc818c"/><path d="M909 81a24 24 0 01-12 20 14 14 0 01-1-2l-2-6a19 19 0 00-4-6 3 3 0 00-1 0 3 3 0 00-2 0 10 10 0 01-3 2 4 4 0 01-4-1v-4l1-10c0-3-1-6-4-8l-8-1a9 9 0 01-1-1 24 24 0 0141 17z" opacity=".1"/><path d="M867 60l-1 2a10 10 0 004 2c3 1 6 0 8 2 3 1 4 5 4 8l-2 9 1 4a4 4 0 003 1 10 10 0 003-1 3 3 0 013-1 3 3 0 011 1 19 19 0 014 6l2 6a10 10 0 004 5 5 5 0 006-1l2-6 6-8c3-3 3-8 4-12a10 10 0 000-3 14 14 0 00-1-3c-2-4-2-10-6-14-3-3-7-4-11-4s-8-1-11-3a13 13 0 00-3-2 3 3 0 00-3 1 2 2 0 01-1 1 1 1 0 01-1 0l-5-1v2a13 13 0 01-5-1l2 4a4 4 0 01-1 4c-2 2-4 1-6 2z" fill="#585268"/><path d="M845 416v2c-9 5-26-8-26-8l2-2a3 3 0 010 2l4 1 4 4 15 1z" opacity=".1"/><path d="M844 429l-25 1-11 2s-19 1-21-4 2-6 2-6h8l13-7a78 78 0 008-7s4-1 3 3h4l4 5h16v6c1 1 4 6-1 7z" fill="#ff748f"/><circle cx="823.7" cy="414.3" r=".6" fill="#575988"/><circle cx="809.7" cy="420.4" r=".6" fill="#575988"/><circle cx="802.5" cy="422.6" r=".6" fill="#575988"/><circle cx="813.4" cy="419.2" r=".6" fill="#575988"/><circle cx="806.1" cy="421.5" r=".6" fill="#575988"/><circle cx="817.1" cy="417.5" r=".6" fill="#575988"/><circle cx="820.7" cy="415.9" r=".6" fill="#575988"/><path d="M844 429l-25 1-11 2s-19 1-21-4 2-6 2-6c1 2 4 3 8 4h14l14-1 15-1a32 32 0 005-2c1 1 4 6-1 7z" fill="#dce6f2"/><path d="M809 430a9 9 0 01-2 0 11 11 0 005-1h2a23 23 0 0110-1h1a91 91 0 0017-1 7 7 0 004-2l1 1a7 7 0 01-4 1 93 93 0 01-18 1h-1a29 29 0 00-6 0 31 31 0 00-3 1l-2 1a15 15 0 01-4 0z" fill="#575988" opacity=".5"/><path d="M891 238l-4 4-8-11a30 30 0 002-2z" opacity=".1"/><path d="M930 147l7 10v10s3 10 0 21v9s-3 8-2 10c0 0 0 7-8 11s-17 15-17 15-4 6-13 5l-9 3-10-13 14-7s5-6 7-6l12-14s0-4 3-4c0 0-5-4-3-7s0-15 0-15z" fill="#67647e"/><path d="M917 190s16 0 18 4-13-6-18-4zM887 241a4 4 0 010 1 5 5 0 01-5 5 5 5 0 01-6-6 5 5 0 011-1c-3-2-3-6-3-8a11 11 0 004-1 25 25 0 002 5 5 5 0 012 0 5 5 0 015 5z" opacity=".1"/><path d="M878 230l-3 1s-1 7 3 9 3-3 3-3-3-5-3-7z" fill="#575988"/><circle cx="882.3" cy="241.3" r="5.3" fill="#e4aab4"/><circle cx="882.3" cy="241.3" r="4.5" fill="#dce6f2"/><path d="M862 243s11 10 25 4v4s-9 7-18 3-7-11-7-11z" opacity=".1"/><path d="M862 242s11 9 25 4v4s-9 7-18 3-7-11-7-11z" opacity=".1"/><path d="M862 242s11 9 25 4v4s-9 7-18 3-7-11-7-11z" fill="#444053"/><path d="M862 242s11 9 25 4v4s-9 7-18 3-7-11-7-11zM827 408l17 3c2 0-1 2-1 2s-13-3-16-5zM827 400s10-3 12-8M841 343s4 5 7 5-5-5-7-5zM843 352s2 3 4 2M853 270l10 28s2-18-2-23a9 9 0 00-8-5z" opacity=".1"/><g opacity=".1"><path d="M879 50l-1-1h-1v1a12 12 0 002 0zM874 56a4 4 0 001-3 5 5 0 00-1-2 13 13 0 01-2-1l2 4a3 3 0 010 2zM902 102a10 10 0 01-4-5l-2-6a19 19 0 00-4-6 3 3 0 00-1 0 3 3 0 00-2 0 10 10 0 01-4 2 4 4 0 01-3-1l-1-5 2-9c0-3-1-6-4-8l-8-2a10 10 0 01-4-1v-1a6 6 0 00-1 1v1a10 10 0 004 2l8 2c3 2 4 5 4 8l-2 9 1 4a4 4 0 003 1 10 10 0 003-1 3 3 0 013-1 3 3 0 011 1 19 19 0 014 6l2 6a10 10 0 004 5c2 1 4 1 6-1a5 5 0 001-1 5 5 0 01-6 0zM910 95l5-6a14 14 0 001-1l-6 7z"/></g><g opacity=".1"><path d="M822 66H586a12 12 0 00-13 13v149a12 12 0 0013 13h185s5 25-11 28c0 0 36 2 29-28h33a12 12 0 0013-13V79a12 12 0 00-13-13z"/><g opacity=".2"><rect x="608.1" y="106.1" width="191.7" height="11.7" rx="5.7" ry="5.7"/><rect x="608.1" y="158.3" width="158.2" height="11.7" rx="5.7" ry="5.7"/><rect x="608.1" y="132.2" width="113.8" height="11.7" rx="5.7" ry="5.7"/></g></g><path d="M825 64H589a12 12 0 00-13 13v149a12 12 0 0013 13h185s5 25-11 28c0 0 36 2 30-28h32a12 12 0 0013-13V77a12 12 0 00-13-13z" fill="#fff"/><g opacity=".2" fill="#0899bc"><rect x="611.2" y="104" width="191.7" height="11.7" rx="5.7" ry="5.7"/><rect x="611.2" y="156.2" width="158.2" height="11.7" rx="5.7" ry="5.7"/><rect x="611.2" y="130.1" width="113.8" height="11.7" rx="5.7" ry="5.7"/></g><path d="M81 553s4 5-2 12-9 13-7 17c0 0 8-13 14-13s2-8-5-16z" fill="#0899bc"/><path d="M81 553a6 6 0 011 1c6 8 9 15 3 15-5 0-12 10-13 12v1s8-13 14-13 2-8-5-16z" opacity=".1"/><path d="M88 559l-1 3v-3-1s1-1 1 1zM90 561l-3 1 3-2h1l-1 1z" fill="#ffd037"/><path d="M62 553s-3 5 2 12 9 13 8 17c0 0-8-13-15-13s-2-8 5-16z" fill="#0899bc"/><path d="M62 553a6 6 0 000 1c-7 8-10 15-4 15s12 10 14 12v1s-8-13-15-13-2-8 5-16z" opacity=".1"/><path d="M56 559v-1 1zM53 561l3 1-2-2h-1v1z" fill="#ffd037"/><ellipse cx="71.7" cy="612" rx="37.3" ry="5.7" fill="#0899bc" opacity=".1"/><path d="M91 576v3l-1 1v5l-3 24c0 2-4 3-8 3H64c-4 0-7-1-7-3l-3-24-1-2v-7c-1-1 1-2 4-2h30l4 2z" fill="#65617d"/><path fill="#9d9cb5" d="M91 577l-1 2H53v-2h38zM90 580v2H53v-2h37zM90 583v2H54l-1-2h37z"/><ellipse cx="645.8" cy="789.4" rx="84" ry="13.8" fill="#0899bc" opacity=".1"/><g opacity=".1"><path d="M743 366H487a13 13 0 00-14 13v162a13 13 0 0014 14h201s5 27-12 30c0 0 38 3 32-30h35a13 13 0 0014-14V379a13 13 0 00-14-13z"/><g opacity=".2"><rect x="511.1" y="465.4" width="207.7" height="12.7" rx="5.7" ry="5.7"/><rect x="511.1" y="437.2" width="90.1" height="12.7" rx="5.7" ry="5.7"/></g></g><path d="M741 364H485a13 13 0 00-14 13v162a13 13 0 0014 13h201s5 28-12 31c0 0 38 3 31-31h36a13 13 0 0013-13V377a13 13 0 00-13-13z" fill="#fff"/><g opacity=".2" fill="#0899bc"><rect x="508.9" y="463.2" width="207.7" height="12.7" rx="5.7" ry="5.7"/><rect x="508.9" y="434.9" width="90.1" height="12.7" rx="5.7" ry="5.7"/></g><path d="M755 823l-2-9s0-6-2-10v-12a35 35 0 013-5v-15s-7-17-6-28-14-47-14-47a46 46 0 012-10 8 8 0 000-3c0-7-6-20-6-20l1-25s3-15-2-35l-5-16v-2l21-3s-7-29-11-34-9-21-9-21-2-20 2-26 4-17 4-17 9-6 10-9l3-13v-8c1-2-3-9-2-12a9 9 0 001-3 44 44 0 00-1-9 24 24 0 00-9-4v-3l-1-1v-3l1-7c3-11-12-13-12-13a8 8 0 00-5-4c-3-1 0 17 1 19l6 9a6 6 0 000 1v5a17 17 0 00-2 4s3 3 2 6 1 8 1 8-2-2-4-1l-7 2-4 1-3 5-11-10v-1a26 26 0 01-1-5 26 26 0 003-1 8 8 0 003-2l2-5 4-9a30 30 0 002-16 11 11 0 00-1-5l-8-5-6-7-9-1a45 45 0 00-15 6l-6 2-3-3a19 19 0 00-2 8v2a2 2 0 010 1 4 4 0 01-1 1 8 8 0 00-1 1 7 7 0 00-1 3 3 3 0 001 3 12 12 0 002 1 21 21 0 0010 22v1l2 12v1l-1 1s-18 0-22-4-11 9-11 9-6 2-8 0-9 0-9 0a16 16 0 00-11-4 34 34 0 00-8-5 9 9 0 00-5 0l-11-12c-2-4-15-18-15-18v-3a7 7 0 01-1 0l-1-1a42 42 0 00-2-6v-3-11s-8-19-15-5c0 0-14 9-2 20l5 4 3 6v4l-3 3a20 20 0 011 5s16 20 18 29c0 0 43 25 57 27l-3 12a101 101 0 000 10l-2 15s-2 18-4 21-2 13-2 13a91 91 0 01-3 16c-2 7 0 15 0 15s-7 16 10 5l17-1v5l1 32c0 17 6 51 6 51v17a23 23 0 00-1 5 32 32 0 005 17l1 12s3 7 3 12a7 7 0 010 1 8 8 0 000 1l3 18s0 12 2 13c1 1-2 7-3 9h-1a9 9 0 000 3 5 5 0 002 5c3 2 5 4 2 4a32 32 0 00-3 1 2 2 0 00-1 2 9 9 0 001 4l5 9h1a8 8 0 01-1 2 6 6 0 01-2 1 6 6 0 01-2 1 7 7 0 00-6 3c-2 2-3 6 1 8l13 5s23 3 22-2l-2-10a20 20 0 00-2-9 12 12 0 00-1-1h1s2-12 4-14l1-1-2-1a11 11 0 00-2 0s-1-6 2-8a2 2 0 000-2 10 10 0 000-2c-1-6-5-14-5-14s-1-6 1-8 0-29 0-29 0-13-1-19 2-14 2-14l-1-2-1-13v-24l3-8 6 14 7 20s3 4 3 8a4 4 0 010 1 12 12 0 000 1 12 12 0 002 7s1 9 4 11 3 7 3 7l4 16c2 2 2 7 2 9v11a15 15 0 010 3v-1a34 34 0 00-1 9c0 4 0 10 3 13 5 6 8 5 8 5s-2 8-5 9a4 4 0 00-1 3l3 10a6 6 0 003 2h-1a10 10 0 01-1 1 5 5 0 01-1 0 7 7 0 00-5 3c-2 2-3 5 0 8l14 5s22 3 21-3z" transform="translate(-61 -43)" fill="url(#b)"/><path d="M607 789l-13-5c-4-3-3-6-1-9a7 7 0 015-2 6 6 0 003-1 6 6 0 002-2 9 9 0 001-5s14-4 18 0a11 11 0 012 3 21 21 0 012 9l2 9c2 5-21 3-21 3zM670 782l-13-4c-4-3-3-7-1-9a7 7 0 015-3 5 5 0 002 0 8 8 0 001 0c3-2 3-7 3-7s14-4 18 0a10 10 0 012 2c2 4 2 9 2 9l2 10c1 5-21 2-21 2z" fill="#2d293d"/><path d="M622 765a11 11 0 012 3l-21 2a9 9 0 001-5s14-4 18 0zM687 761v4c-4 5-20 4-24 1a8 8 0 001 0c3-2 3-7 3-7s14-4 18 0a10 10 0 012 2z" opacity=".1"/><path d="M689 743a37 37 0 00-2 6v14c-4 6-23 4-25 1s-5-12-3-13 6-9 6-9-3 1-8-5-4-19-3-22v-13l-1-10-5-15s0-5-2-7-4-12-4-12a12 12 0 01-2-7c0-5-3-10-3-10l-6-19-6-15-3 9v24l1 15s-3 7-2 13l1 19s2 28 1 30l-2 7s8 16 5 18-1 8-1 8 5 0 3 3-4 13-4 13l-22 3-5-10c-3-7 1-6 4-6s1-3-3-5-1-7-1-7 5-9 3-9-2-14-2-14-3-14-2-18-3-14-3-14l-2-11a31 31 0 01-4-22v-17s-5-34-5-51v-36-8l78-8a64 64 0 001 11l4 17c6 20 2 34 2 34l-1 26s7 16 6 22a48 48 0 00-2 11s16 36 14 47 5 27 5 27 2 12 0 15z" fill="#575988"/><path d="M645 649l23-3s-13 14-23 3zM665 623s1 8-4 12c0 0 9-2 4-12zM663 596s-19 17-27 15 27-15 27-15zM615 657s-15 4-15 10 15-10 15-10zM619 732s-22 4-16 7 16 5 16 5 7 0 0-12z" opacity=".1"/><g opacity=".1"><path d="M599 743a4 4 0 01-2-3v1s-2 4 1 7h3c3-1 1-3-2-5zM626 742l1-4a10 10 0 00-2 5 4 4 0 011-1zM623 652a24 24 0 00-1 7 26 26 0 011-5v-2zM672 643a8 8 0 000-2 46 46 0 000 2zM623 716a12 12 0 000-4 14 14 0 00-1 5 5 5 0 011-1zM627 750a71 71 0 00-2 11l-22 3-5-9-1-2v6l5 9 22-2s2-12 4-14c1-1 0-1-1-2zM598 718s0 12 2 13l1-4c-2-1-2-14-2-14s-4-14-3-18-3-14-3-14l-1-11a31 31 0 01-4-22v-17s-5-34-6-51v-35-5l-1 9 1 35c0 17 5 51 5 51v18a31 31 0 004 21l2 12s3 9 3 13l2 19zM663 759a21 21 0 01-4-9c-2 2 0 10 3 13 2 4 21 6 25 0v-4c-5 5-22 3-24 0zM690 739a35 35 0 00-3 5v3l2-4a11 11 0 001-5 1 1 0 000 1zM664 741a35 35 0 001-4s-3 1-8-5c-3-4-3-12-3-17-1 3-2 16 3 21 3 4 5 5 7 5zM654 701a96 96 0 011 11 16 16 0 010-2v-13l-1-9-5-16s0-5-2-7-4-12-4-12a12 12 0 01-2-7c0-5-3-10-3-10l-6-19-6-15-4 9v2l3-6 6 14 6 20s4 5 3 9a12 12 0 002 8s1 9 4 11 2 7 2 7l5 16 1 9z"/></g><path d="M669 370l-1 6v5l-7 1-1-2-6-9c-1-1-4-20-1-18a8 8 0 014 3s15 2 12 14z" fill="#ffcdd3"/><path d="M668 381l-7 1-1-2a7 7 0 018-1z" opacity=".1"/><path d="M670 385l-10 2v-1l-1-4s4-6 10-2v2z" fill="#dce6f2"/><path d="M509 370l-10 6-1-2-3-6-5-4c-11-11 2-20 2-20 7-14 15 5 15 5v10l-1 4a41 41 0 013 6v1z" fill="#ffcdd3"/><path d="M509 370l-10 6-1-2c1-1 6-6 8-5a13 13 0 003 0v1z" opacity=".1"/><path d="M510 374l-12 5v-4s7-6 9-6a11 11 0 003 0v3z" fill="#dce6f2"/><path d="M641 413s-52 6-43 3c7-2 10-6 10-11 1-4 0-9-2-12a52 52 0 00-4-10s39-21 31-2a32 32 0 00-2 10 26 26 0 001 9 28 28 0 009 13z" fill="#ffcdd3"/><path d="M633 381a32 32 0 00-2 10c-4 3-8 3-13 3-4 0-8 1-12-1a52 52 0 00-4-10s39-21 31-2z" opacity=".1"/><circle cx="617.4" cy="373.6" r="21.5" fill="#ffcdd3"/><path d="M641 413s-52 6-43 3c7-2 10-6 10-11 3-3 8-5 11-6a16 16 0 0110 0 13 13 0 013 1 28 28 0 009 13zM670 385l-10 2v-1a9 9 0 019-4zM510 374l-12 5v-2a87 87 0 0112-6zM661 544a324 324 0 01-79 5v-8l78-8a64 64 0 001 11z" opacity=".1"/><path d="M681 539s-66 12-73 10-44 0-44 0c-16 11-9-5-9-5s-2-9 0-16a93 93 0 003-15s0-11 2-13 4-21 4-21l2-15a103 103 0 010-10l2-13c-13-2-54-27-54-27-2-8-18-28-18-28a21 21 0 00-1-5c-1-3 15-9 15-9l15 19 11 11a9 9 0 014 1 32 32 0 018 4 16 16 0 0111 5s8-1 9 0h8s6-14 10-10 22 4 22 4c2-3 8-5 11-6a16 16 0 0110-1 12 12 0 014 2l10 11 3-5 4-2 7-2c2-1 4 2 4 2s-2-5-1-8-2-7-2-7c6-15 20-2 20-2s2 8 1 12 1 10 1 11v9c0 4-1 10-3 13l-9 9s-1 10-5 16-1 27-1 27 3 15 8 21 11 33 11 33z" fill="#656691"/><path d="M585 421s-2-6-4-7a43 43 0 01-5-2l1-2s6 1 8 3 0 8 0 8zM548 408l-16 3 8-8a32 32 0 018 5z" opacity=".1"/><circle cx="501.9" cy="382.8" r="1.4" fill="#575988"/><circle cx="503.7" cy="385.6" r="1.4" fill="#575988"/><circle cx="505.5" cy="388.3" r="1.4" fill="#575988"/><circle cx="507.4" cy="391.2" r="1.4" fill="#575988"/><circle cx="677.5" cy="391" r="1.2" fill="#575988"/><circle cx="677.6" cy="393.7" r="1.2" fill="#575988"/><circle cx="677.8" cy="396.4" r="1.2" fill="#575988"/><path d="M585 470c0-1 40 51 72 21 0 0-50 7-72-21zM561 496s25 1 27 8v7a5 5 0 01-4 0c-3-1-18-9-23-5z" opacity=".1"/><path d="M562 496s23 1 25 8v7a4 4 0 01-4 0c-2-2-16-9-21-5z" fill="#656691"/><path d="M575 443a79 79 0 009 17 63 63 0 0015 14s-24-27-24-31zM567 415s4 18 14 24zM560 417s-3 14 14 22c0 0-7-3-14-22zM667 405l10 8s-5-8-10-8z" opacity=".1"/><path d="M612 393a5 5 0 001 3 5 5 0 002 0c7 1 14 1 20-1a7 7 0 003-2l1-5 4-9a31 31 0 003-17 11 11 0 00-2-4l-7-6c-2-2-4-5-7-6-2-2-5-2-8-1a43 43 0 00-15 6c-2 1-3 2-5 1l-4-2a20 20 0 00-1 9 4 4 0 010 1 4 4 0 01-1 2c-2 2-3 5-1 6l2 3 1 5a3 3 0 000 2 3 3 0 003 1 7 7 0 013-1 5 5 0 012 2c3 4 4 8 6 13z" fill="#2d293d"/><g opacity=".1"><path d="M638 391a7 7 0 01-3 2c-6 3-12 2-19 2a4 4 0 01-2-1 5 5 0 01-2-3c-1-4-2-8-5-12a5 5 0 00-3-2 7 7 0 00-2 0 3 3 0 01-3 0 3 3 0 01-1-2v-6l-3-2a4 4 0 010-4c-1 1-2 4 0 5l2 2 1 6a3 3 0 000 2 3 3 0 003 1 7 7 0 013-1 5 5 0 012 2c3 4 4 8 6 13a3 3 0 003 3c7 1 14 1 20-2a7 7 0 003-2 6 6 0 001-1 3 3 0 01-1 0zM597 360a3 3 0 000-1 4 4 0 000-2 20 20 0 011-8 20 20 0 00-1 10 6 6 0 010 1z"/></g><path d="M608 406s27 4 29 0M660 395s15 0 18 6" opacity=".1"/><path d="M981 382s2 2-1 6-5 6-4 9c0 0 4-7 7-7s1-4-2-8z" fill="#0899bc"/><path d="M981 382c3 4 5 8 2 8s-6 5-7 6v1s4-7 7-7 1-4-2-8z" opacity=".1"/><path d="M984 385v-1 1zM985 386h-1l1-1h1l-1 1z" fill="#ffd037"/><path d="M971 382s-2 2 1 6 5 6 4 9c0 0-4-7-8-7s-1-4 3-8z" fill="#0899bc"/><path d="M971 382a3 3 0 00-1 0c-3 4-5 8-1 8 3 0 6 5 7 6v1s-4-7-8-7-1-4 3-8z" opacity=".1"/><path d="M967 385l1 1a3 3 0 000-1v-1l-1 1zM966 386h2l-2-1c-1-1 0 0 0 0v1z" fill="#ffd037"/><path d="M968 396l7-1 8-1c0 1 8 9 2 9l-15-1-2-6z" fill="#a8a8a8"/><path d="M985 403l-15-2-2-5s0 5 2 5l15 2 2-1-2 1z" opacity=".2"/></svg>