<svg xmlns="http://www.w3.org/2000/svg" width="275" height="64" viewBox="0 0 275 64"><g transform="translate(-62 -172)"><path d="M0,0H275V64H0Z" transform="translate(62 172)" fill="#0899bc"/><g transform="translate(71.902 164)"><g transform="translate(21.748 23.789)"><path d="M80.982,77.18a2.168,2.168,0,0,0-1.142-.418A1.7,1.7,0,0,1,78.79,76.3a1.287,1.287,0,0,1,0-2.033L80.2,73.015a4.52,4.52,0,0,0,0-6.926A8.925,8.925,0,0,0,74.264,64a11.223,11.223,0,0,0-7.372,2.79,8.134,8.134,0,0,0,0,12.465,10.869,10.869,0,0,0,7.1,2.572h.079a10.448,10.448,0,0,0,6.908-2.433A1.568,1.568,0,0,0,80.982,77.18Z" transform="translate(-63.985 -64)" fill="none" stroke="#030303" stroke-miterlimit="10" stroke-width="1"/><circle cx="1.486" cy="1.486" r="1.486" transform="translate(2.229 5.199)"/><circle cx="1.486" cy="1.486" r="1.486" transform="translate(2.6 9.981)"/><circle cx="1.486" cy="1.486" r="1.486" transform="translate(5.943 2.228)"/><circle cx="2.228" cy="2.228" r="2.228" transform="translate(6.686 11.838)"/><circle cx="1.486" cy="1.486" r="1.486" transform="translate(10.771 2.228)"/></g><path d="M41.551,160.713,32,152.357,41.551,144" transform="translate(-23.902 -119.705)" fill="none" stroke="#030303" stroke-linecap="round" stroke-linejoin="round" stroke-width="1"/><path d="M352,160.713l9.551-8.357L352,144" transform="translate(-307.769 -119.705)" fill="none" stroke="#030303" stroke-linecap="round" stroke-linejoin="round" stroke-width="1"/><path d="M4.774-9.814c-2.184,0-4,1.722-4,4.984s1.694,5,4.032,5A3.794,3.794,0,0,0,7.56-.91L6.9-1.75a3.266,3.266,0,0,1-2.058.8c-1.5,0-2.66-1.092-2.66-3.878,0-2.912,1.218-3.892,2.674-3.892a2.833,2.833,0,0,1,1.862.714l.728-.854A3.8,3.8,0,0,0,4.774-9.814Zm5.8.168H9.24V0h5.138l.154-1.162H10.57Zm11.9,0H21.126v6.454c0,1.5-.658,2.24-2.044,2.24s-2.03-.742-2.03-2.24V-9.646h-1.33v6.552A3.057,3.057,0,0,0,19.082.168,3.093,3.093,0,0,0,22.47-3.094ZM29.386-5.1A2.149,2.149,0,0,0,31.192-7.21c0-1.68-1.4-2.436-3.78-2.436H25.13V0h2.66c2.24,0,3.822-.7,3.822-2.744C31.612-4.382,30.506-4.9,29.386-5.1ZM27.552-8.6c1.428,0,2.282.294,2.282,1.484,0,1.022-.84,1.554-1.918,1.554H26.46V-8.6Zm.238,7.532H26.46V-4.536h1.582c1.162,0,2.17.434,2.17,1.792C30.212-1.344,29.19-1.064,27.79-1.064Z" transform="translate(15.5 57)"/></g><path d="M4.392-12.4H1.8V0H4.77C7.452,0,10.6-1.206,10.6-6.264,10.6-11.412,7.56-12.4,4.392-12.4Zm.378,1.368c1.98,0,4.014.576,4.014,4.77C8.784-2.178,6.84-1.35,4.9-1.35H3.51v-9.684Zm15.7,6.012c0-2.9-1.35-4.68-3.906-4.68-2.448,0-3.942,2.106-3.942,5.058,0,3.006,1.548,4.86,4.194,4.86A5.171,5.171,0,0,0,20.124-.972l-.72-.99a3.993,3.993,0,0,1-2.466.828c-1.368,0-2.394-.846-2.556-3.042H20.43C20.448-4.392,20.466-4.7,20.466-5.022ZM18.828-5.4H14.382c.126-2.106.954-2.988,2.214-2.988,1.494,0,2.232,1.026,2.232,2.88Zm6.858-4.3c-1.962,0-3.42,1.1-3.42,2.61,0,1.332.81,2.214,2.862,2.754,1.836.486,2.3.846,2.3,1.782,0,.9-.792,1.44-2.034,1.44a4.3,4.3,0,0,1-2.664-.918l-.882,1.008A5.26,5.26,0,0,0,25.434.216c1.926,0,3.744-.9,3.744-2.88,0-1.656-1.152-2.448-3.15-2.952-1.53-.4-2.034-.756-2.034-1.53,0-.756.666-1.242,1.746-1.242a4.376,4.376,0,0,1,2.466.81l.7-1.044A5.037,5.037,0,0,0,25.686-9.7Zm6.642-4.338a1.1,1.1,0,0,0-1.152,1.134,1.1,1.1,0,0,0,1.152,1.116,1.1,1.1,0,0,0,1.17-1.116A1.106,1.106,0,0,0,32.328-14.04Zm.846,4.554H31.518V0h1.656Zm10.584-1.062A8.153,8.153,0,0,1,39.42-9.7,3.382,3.382,0,0,0,35.766-6.39a2.716,2.716,0,0,0,1.6,2.628,2.06,2.06,0,0,0-1.044,1.674c0,.954.756,1.8,2.448,1.8h1.494c1.188,0,1.908.45,1.908,1.35,0,.954-.72,1.476-2.772,1.476-2.088,0-2.574-.5-2.574-1.584H35.334c0,1.926.972,2.88,4.068,2.88,2.934,0,4.446-1.044,4.446-2.88,0-1.512-1.3-2.628-3.24-2.628H39.1c-.972,0-1.242-.342-1.242-.774a1.143,1.143,0,0,1,.468-.882,3.838,3.838,0,0,0,1.206.18c2.268,0,3.618-1.35,3.618-3.222a2.5,2.5,0,0,0-1.674-2.394,9.24,9.24,0,0,0,2.772-.288ZM39.42-8.514a1.84,1.84,0,0,1,2.034,2.106,1.886,1.886,0,0,1-2,2.16,1.921,1.921,0,0,1-2-2.142A1.9,1.9,0,0,1,39.42-8.514Zm11-1.188a3.441,3.441,0,0,0-2.9,1.62l-.144-1.4H45.954V0H47.61V-6.732a2.869,2.869,0,0,1,2.412-1.674c.918,0,1.494.414,1.494,1.836V0h1.656V-6.8A2.6,2.6,0,0,0,50.418-9.7Zm18.27-2.7H59.832v1.458H63.36V0h1.71V-10.944h3.438Zm8.064,7.38c0-2.9-1.35-4.68-3.906-4.68C70.4-9.7,68.9-7.6,68.9-4.644c0,3.006,1.548,4.86,4.194,4.86A5.171,5.171,0,0,0,76.41-.972l-.72-.99a3.993,3.993,0,0,1-2.466.828c-1.368,0-2.394-.846-2.556-3.042h6.048C76.734-4.392,76.752-4.7,76.752-5.022ZM75.114-5.4H70.668c.126-2.106.954-2.988,2.214-2.988,1.494,0,2.232,1.026,2.232,2.88Zm7.74-4.3c-2.574,0-4.14,2.016-4.14,5.04,0,3.06,1.584,4.878,4.14,4.878a4.476,4.476,0,0,0,2.9-1.044L85-1.908a3.523,3.523,0,0,1-2.07.72c-1.494,0-2.43-1.026-2.43-3.51,0-2.466.936-3.636,2.43-3.636a3.245,3.245,0,0,1,2.034.7l.792-1.044A4.216,4.216,0,0,0,82.854-9.7Zm9.612,0a3.406,3.406,0,0,0-2.808,1.53v-5.292L88-13.284V0h1.656V-6.75a2.9,2.9,0,0,1,2.394-1.656c.9,0,1.512.414,1.512,1.836V0H95.22V-6.8A2.613,2.613,0,0,0,92.466-9.7Zm10.548,0a3.441,3.441,0,0,0-2.9,1.62l-.144-1.4H98.55V0h1.656V-6.732a2.869,2.869,0,0,1,2.412-1.674c.918,0,1.494.414,1.494,1.836V0h1.656V-6.8A2.6,2.6,0,0,0,103.014-9.7Zm9.648,0c-2.7,0-4.248,2.034-4.248,4.968,0,3.006,1.53,4.95,4.23,4.95,2.682,0,4.23-2.034,4.23-4.968C116.874-7.758,115.362-9.7,112.662-9.7Zm0,1.332c1.566,0,2.43,1.152,2.43,3.618,0,2.484-.864,3.636-2.448,3.636S110.2-2.268,110.2-4.734C110.2-7.218,111.078-8.37,112.662-8.37ZM121.5.216a2.782,2.782,0,0,0,1.314-.324l-.432-1.152a1.615,1.615,0,0,1-.612.108c-.432,0-.594-.252-.594-.756V-13.5l-1.656.2v11.43A1.867,1.867,0,0,0,121.5.216ZM128.358-9.7c-2.7,0-4.248,2.034-4.248,4.968,0,3.006,1.53,4.95,4.23,4.95,2.682,0,4.23-2.034,4.23-4.968C132.57-7.758,131.058-9.7,128.358-9.7Zm0,1.332c1.566,0,2.43,1.152,2.43,3.618,0,2.484-.864,3.636-2.448,3.636s-2.448-1.152-2.448-3.618C125.892-7.218,126.774-8.37,128.358-8.37Zm14.112-2.178a8.153,8.153,0,0,1-4.338.846,3.382,3.382,0,0,0-3.654,3.312,2.716,2.716,0,0,0,1.6,2.628,2.06,2.06,0,0,0-1.044,1.674c0,.954.756,1.8,2.448,1.8h1.494c1.188,0,1.908.45,1.908,1.35,0,.954-.72,1.476-2.772,1.476-2.088,0-2.574-.5-2.574-1.584h-1.494c0,1.926.972,2.88,4.068,2.88,2.934,0,4.446-1.044,4.446-2.88,0-1.512-1.3-2.628-3.24-2.628h-1.512c-.972,0-1.242-.342-1.242-.774a1.143,1.143,0,0,1,.468-.882,3.838,3.838,0,0,0,1.206.18c2.268,0,3.618-1.35,3.618-3.222a2.5,2.5,0,0,0-1.674-2.394,9.24,9.24,0,0,0,2.772-.288Zm-4.338,2.034a1.84,1.84,0,0,1,2.034,2.106,1.886,1.886,0,0,1-2,2.16,1.921,1.921,0,0,1-2-2.142A1.9,1.9,0,0,1,138.132-8.514Zm7.344-5.526a1.1,1.1,0,0,0-1.152,1.134,1.1,1.1,0,0,0,1.152,1.116,1.1,1.1,0,0,0,1.17-1.116A1.106,1.106,0,0,0,145.476-14.04Zm.846,4.554h-1.656V0h1.656Zm5.994-.216c-1.962,0-3.42,1.1-3.42,2.61,0,1.332.81,2.214,2.862,2.754,1.836.486,2.3.846,2.3,1.782,0,.9-.792,1.44-2.034,1.44a4.3,4.3,0,0,1-2.664-.918l-.882,1.008A5.26,5.26,0,0,0,152.064.216c1.926,0,3.744-.9,3.744-2.88,0-1.656-1.152-2.448-3.15-2.952-1.53-.4-2.034-.756-2.034-1.53,0-.756.666-1.242,1.746-1.242a4.376,4.376,0,0,1,2.466.81l.7-1.044A5.037,5.037,0,0,0,152.316-9.7Zm9.99,8.172a2.584,2.584,0,0,1-1.26.378c-.828,0-1.134-.45-1.134-1.4V-8.208h2.07l.18-1.278h-2.25v-2.34l-1.656.2v2.142H156.6v1.278h1.656v5.724a2.383,2.383,0,0,0,2.556,2.7,3.616,3.616,0,0,0,2.124-.648Z" transform="translate(156 211)"/><line y2="38" transform="translate(142 185.5)" fill="none" stroke="#030303" stroke-width="1"/></g></svg>