<svg xmlns="http://www.w3.org/2000/svg" width="64" height="64" viewBox="0 0 64 64"><rect width="64" height="64" fill="#0899bc"/><g transform="translate(21.748 23.789)"><path d="M80.982,77.18a2.168,2.168,0,0,0-1.142-.418A1.7,1.7,0,0,1,78.79,76.3a1.287,1.287,0,0,1,0-2.033L80.2,73.015a4.52,4.52,0,0,0,0-6.926A8.925,8.925,0,0,0,74.264,64a11.223,11.223,0,0,0-7.372,2.79,8.134,8.134,0,0,0,0,12.465,10.869,10.869,0,0,0,7.1,2.572h.079a10.448,10.448,0,0,0,6.908-2.433A1.568,1.568,0,0,0,80.982,77.18Z" transform="translate(-63.985 -64)" fill="none" stroke="#000" stroke-miterlimit="10" stroke-width="1"/><circle cx="1.486" cy="1.486" r="1.486" transform="translate(2.229 5.199)"/><circle cx="1.486" cy="1.486" r="1.486" transform="translate(2.6 9.981)"/><circle cx="1.486" cy="1.486" r="1.486" transform="translate(5.943 2.228)"/><circle cx="2.228" cy="2.228" r="2.228" transform="translate(6.686 11.838)"/><circle cx="1.486" cy="1.486" r="1.486" transform="translate(10.771 2.228)"/></g><path d="M41.551,160.713,32,152.357,41.551,144" transform="translate(-23.902 -119.705)" fill="none" stroke="#000" stroke-linecap="round" stroke-linejoin="round" stroke-width="1"/><path d="M352,160.713l9.551-8.357L352,144" transform="translate(-307.769 -119.705)" fill="none" stroke="#000" stroke-linecap="round" stroke-linejoin="round" stroke-width="1"/></svg>