<svg xmlns="http://www.w3.org/2000/svg" width="303" height="64" viewBox="0 0 303 64"><g transform="translate(-61 -175)"><path d="M0,0H303V64H0Z" transform="translate(61 175)" fill="#233d4d"/><g transform="translate(15.092 2.5)"><g transform="translate(56.902 164)"><g transform="translate(10.098 23.787)"><g transform="translate(13.65 0.002)"><path d="M80.982,77.18a2.168,2.168,0,0,0-1.142-.418,1.7,1.7,0,0,1-1.05-.462,1.287,1.287,0,0,1,0-2.033l1.41-1.252a4.52,4.52,0,0,0,0-6.926A8.925,8.925,0,0,0,74.264,64a11.223,11.223,0,0,0-7.372,2.79,8.134,8.134,0,0,0,0,12.465,10.869,10.869,0,0,0,7.1,2.572h.079a10.448,10.448,0,0,0,6.908-2.433,1.568,1.568,0,0,0,0-2.214Z" transform="translate(-63.985 -64)" fill="none" stroke="#fff" stroke-miterlimit="10" stroke-width="1"/><circle cx="1.486" cy="1.486" r="1.486" transform="translate(2.229 5.199)" fill="#fff"/><circle cx="1.486" cy="1.486" r="1.486" transform="translate(2.6 9.981)" fill="#fff"/><circle cx="1.486" cy="1.486" r="1.486" transform="translate(5.943 2.228)" fill="#fff"/><circle cx="2.228" cy="2.228" r="2.228" transform="translate(6.686 11.838)" fill="#fff"/><circle cx="1.486" cy="1.486" r="1.486" transform="translate(10.771 2.228)" fill="#fff"/></g><path d="M19.649,41.008,10.1,32.652,19.649,24.3" transform="translate(-10.098 -23.787)" fill="none" stroke="#fff" stroke-linecap="round" stroke-linejoin="round" stroke-width="1"/><path d="M46.231,41.008l9.551-8.357L46.231,24.3" transform="translate(-10.098 -23.787)" fill="none" stroke="#fff" stroke-linecap="round" stroke-linejoin="round" stroke-width="1"/></g><path d="M6.765-7.18V0H5.7V-3.235H1.955V0H.885V-7.18h1.07v3.17H5.7V-7.18Zm5.59,4.505L11.29-5.46a6.208,6.208,0,0,1-.23-.72q-.055.215-.112.4t-.113.33L9.775-2.675ZM14.46,0h-.82a.364.364,0,0,1-.23-.07.393.393,0,0,1-.13-.18l-.635-1.665H9.48L8.845-.25a.405.405,0,0,1-.13.172A.352.352,0,0,1,8.485,0h-.82l2.86-7.18H11.6Zm6.775-7.18V0h-.54a.43.43,0,0,1-.208-.045A.615.615,0,0,1,20.32-.19L16.265-5.435q.01.135.017.265t.007.245V0h-.935V-7.18h.55a.521.521,0,0,1,.21.032A.458.458,0,0,1,16.27-7l4.065,5.25q-.015-.145-.022-.282t-.007-.258V-7.18Zm8.04,3.59a4,4,0,0,1-.258,1.465A3.268,3.268,0,0,1,28.29-.993a3.264,3.264,0,0,1-1.125.733A3.912,3.912,0,0,1,25.71,0h-2.7V-7.18h2.7a3.912,3.912,0,0,1,1.455.26,3.264,3.264,0,0,1,1.125.732,3.263,3.263,0,0,1,.727,1.135A4.005,4.005,0,0,1,29.275-3.59Zm-1.09,0a3.508,3.508,0,0,0-.175-1.148,2.428,2.428,0,0,0-.5-.86,2.118,2.118,0,0,0-.78-.538A2.705,2.705,0,0,0,25.71-6.32H24.08V-.86h1.63a2.705,2.705,0,0,0,1.023-.185,2.118,2.118,0,0,0,.78-.537,2.431,2.431,0,0,0,.5-.858A3.5,3.5,0,0,0,28.185-3.59Zm5,2.745a2.221,2.221,0,0,0,.692-.095,1.3,1.3,0,0,0,.47-.26.989.989,0,0,0,.268-.393,1.411,1.411,0,0,0,.085-.5,1.037,1.037,0,0,0-.37-.843A1.77,1.77,0,0,0,33.18-3.24h-1.5V-.845Zm-1.5-5.5V-4H32.9a1.8,1.8,0,0,0,1.167-.317,1.056,1.056,0,0,0,.383-.858,1.057,1.057,0,0,0-.365-.9,1.864,1.864,0,0,0-1.135-.28Zm1.275-.835a4.5,4.5,0,0,1,1.158.13,2.177,2.177,0,0,1,.792.375,1.489,1.489,0,0,1,.458.592,2,2,0,0,1,.147.788,1.571,1.571,0,0,1-.08.5,1.454,1.454,0,0,1-.245.447,1.768,1.768,0,0,1-.415.373,2.417,2.417,0,0,1-.59.275q1.565.31,1.565,1.635a2.017,2.017,0,0,1-.17.837,1.832,1.832,0,0,1-.495.653,2.289,2.289,0,0,1-.8.425A3.583,3.583,0,0,1,33.2,0H30.615V-7.18ZM43.8-3.59a4.1,4.1,0,0,1-.257,1.477,3.4,3.4,0,0,1-.728,1.16A3.276,3.276,0,0,1,41.69-.2a3.784,3.784,0,0,1-1.455.27A3.789,3.789,0,0,1,38.782-.2a3.245,3.245,0,0,1-1.125-.758,3.454,3.454,0,0,1-.727-1.16,4.065,4.065,0,0,1-.26-1.477,4.07,4.07,0,0,1,.26-1.475,3.448,3.448,0,0,1,.727-1.163,3.274,3.274,0,0,1,1.125-.76,3.758,3.758,0,0,1,1.453-.273,3.753,3.753,0,0,1,1.455.273,3.306,3.306,0,0,1,1.125.76,3.4,3.4,0,0,1,.728,1.163A4.106,4.106,0,0,1,43.8-3.59Zm-1.09,0a3.531,3.531,0,0,0-.175-1.15,2.45,2.45,0,0,0-.5-.865,2.156,2.156,0,0,0-.78-.545,2.642,2.642,0,0,0-1.022-.19,2.642,2.642,0,0,0-1.023.19,2.18,2.18,0,0,0-.782.545,2.43,2.43,0,0,0-.5.865,3.531,3.531,0,0,0-.175,1.15,3.525,3.525,0,0,0,.175,1.153,2.433,2.433,0,0,0,.5.862,2.153,2.153,0,0,0,.782.543,2.673,2.673,0,0,0,1.023.187,2.673,2.673,0,0,0,1.022-.187,2.13,2.13,0,0,0,.78-.543,2.454,2.454,0,0,0,.5-.862A3.525,3.525,0,0,0,42.71-3.59Zm9.115,0a4.1,4.1,0,0,1-.257,1.477,3.4,3.4,0,0,1-.728,1.16A3.276,3.276,0,0,1,49.715-.2a3.784,3.784,0,0,1-1.455.27A3.789,3.789,0,0,1,46.807-.2a3.245,3.245,0,0,1-1.125-.758,3.454,3.454,0,0,1-.727-1.16,4.065,4.065,0,0,1-.26-1.477,4.07,4.07,0,0,1,.26-1.475,3.448,3.448,0,0,1,.727-1.163,3.274,3.274,0,0,1,1.125-.76A3.758,3.758,0,0,1,48.26-7.26a3.753,3.753,0,0,1,1.455.273,3.306,3.306,0,0,1,1.125.76,3.4,3.4,0,0,1,.728,1.163A4.106,4.106,0,0,1,51.825-3.59Zm-1.09,0a3.531,3.531,0,0,0-.175-1.15,2.45,2.45,0,0,0-.5-.865,2.156,2.156,0,0,0-.78-.545,2.642,2.642,0,0,0-1.022-.19,2.642,2.642,0,0,0-1.023.19,2.18,2.18,0,0,0-.782.545,2.43,2.43,0,0,0-.5.865,3.531,3.531,0,0,0-.175,1.15,3.525,3.525,0,0,0,.175,1.153,2.433,2.433,0,0,0,.5.862,2.153,2.153,0,0,0,.782.543,2.673,2.673,0,0,0,1.023.187,2.673,2.673,0,0,0,1.022-.187,2.13,2.13,0,0,0,.78-.543,2.454,2.454,0,0,0,.5-.862A3.525,3.525,0,0,0,50.735-3.59Zm3.49-.485h.35a.833.833,0,0,0,.308-.047.539.539,0,0,0,.212-.163L57.38-6.94a.648.648,0,0,1,.225-.187.685.685,0,0,1,.285-.053h.91L56.14-4.12a1.28,1.28,0,0,1-.2.21,1.189,1.189,0,0,1-.2.135.988.988,0,0,1,.48.385L58.985,0H58.06a.863.863,0,0,1-.173-.015.478.478,0,0,1-.125-.043.427.427,0,0,1-.095-.067.493.493,0,0,1-.077-.1l-2.365-2.8a.821.821,0,0,0-.1-.11A.408.408,0,0,0,55.01-3.2a.614.614,0,0,0-.15-.04,1.394,1.394,0,0,0-.2-.013h-.435V0H53.16V-7.18h1.065Z" transform="translate(4.006 58.5)" fill="#fff"/></g><path d="M0,0V38" transform="translate(137 184.5)" fill="none" stroke="#fff" stroke-width="1"/><path d="M1.017-11.839V.016H3.558A5.208,5.208,0,0,0,6.119-.459c1.7-.873,2.623-2.89,2.623-5.48,0-2.279-.676-4.274-2.2-5.265a4.655,4.655,0,0,0-2.756-.635Zm1.263,1.131H3.706a3.162,3.162,0,0,1,2.228.65c1.1.912,1.468,2.6,1.468,4.3,0,2.257-.749,3.556-1.695,4.194a3.633,3.633,0,0,1-2.214.534H2.279ZM14.414-8.892c-2.073,0-3.991,1.483-3.991,4.651,0,2.892,1.81,4.44,4.168,4.44A3.949,3.949,0,0,0,17.7-1.148l-.754-.738A2.991,2.991,0,0,1,14.7-.909c-1.161,0-2.843-.64-2.946-3.239h6.16a6.514,6.514,0,0,0-.06-1.658A3.356,3.356,0,0,0,14.414-8.892ZM11.8-5.2c.27-2.047,1.592-2.643,2.523-2.643A2.3,2.3,0,0,1,16.567-5.2ZM27.215-7.526a4.293,4.293,0,0,0-3.238-1.361c-2.016,0-3.337,1.127-3.337,2.423,0,1.516,1.644,2.068,2.115,2.238.734.265,1.693.5,2.333.8.716.335.866.792.866,1.106,0,.813-.992,1.373-2.232,1.373A3.715,3.715,0,0,1,21.006-2.16a.232.232,0,0,1-.053-.2.174.174,0,0,0-.084-.179l-.787,1.361A5.333,5.333,0,0,0,23.746.2c2.372,0,3.611-1.4,3.611-2.71a2.2,2.2,0,0,0-1.274-1.963c-.981-.551-2.379-.747-3.19-1.139-.709-.343-.86-.764-.86-1.055,0-.7.848-1.185,1.829-1.185a3.134,3.134,0,0,1,2.41,1.192.23.23,0,0,1,.041.181c0,.114.065.145.1.153Zm3.3-1.164v1.115h2.1V-1.1H30.4V0h5.624V-1.1H33.993V-8.69Zm2.82-3.771a.981.981,0,0,0-.984.976.98.98,0,0,0,.984.976.981.981,0,0,0,.984-.976A.98.98,0,0,0,33.337-12.462Zm7.056,6.489A1.911,1.911,0,0,1,42.3-7.88a1.91,1.91,0,0,1,1.911,1.906A1.911,1.911,0,0,1,42.3-4.066,1.91,1.91,0,0,1,40.393-5.973Zm1.995-2.989a3.2,3.2,0,0,0-3.244,3.069,2.811,2.811,0,0,0,1.283,2.351,2.348,2.348,0,0,0-.983,1.675,1.277,1.277,0,0,0,.7,1.157c-.932.595-1.412,1.233-1.412,1.923,0,.946.883,2.056,3.925,2.056,2.94,0,3.994-1.49,3.994-2.654A2.021,2.021,0,0,0,45.3-1.269a7.835,7.835,0,0,0-2.938-.246,5.245,5.245,0,0,1-1.24-.109c-.332-.091-.526-.3-.526-.57,0-.459.535-.9.62-.971a3.173,3.173,0,0,0,1.1.2A3.085,3.085,0,0,0,45.444-5.94,2.658,2.658,0,0,0,45-7.411a2.946,2.946,0,0,1,1.516-.42,2.945,2.945,0,0,1,.5.043L46.854-8.9a3.344,3.344,0,0,0-2.41.771A2.884,2.884,0,0,0,42.388-8.962Zm-1.323,8.5c.329.043.79.08,1.454.1.641.024,1.341-.024,1.839.051.8.121,1.036.628,1.036,1.01a1.347,1.347,0,0,1-.812,1.152,4.089,4.089,0,0,1-1.951.38,5.017,5.017,0,0,1-1.791-.284A1.158,1.158,0,0,1,39.984.89C39.984.266,40.566-.19,41.065-.464ZM48.8,0h1.394V-5a2.207,2.207,0,0,1,.431-1.49A2.965,2.965,0,0,1,52.7-7.7a1.514,1.514,0,0,1,1.177.55,2.867,2.867,0,0,1,.474,1.919V0H55.7V-5.263h0a4.986,4.986,0,0,0-.313-2.092,2.494,2.494,0,0,0-2.311-1.532,3.622,3.622,0,0,0-2.885,1.738V-8.674H48.8ZM67.09-11.855v1.2h3.361V.016H71.8V-10.658h3.493v-1.2ZM80.914-8.892c-2.073,0-3.991,1.483-3.991,4.651,0,2.892,1.81,4.44,4.168,4.44A3.949,3.949,0,0,0,84.2-1.148l-.754-.738A2.991,2.991,0,0,1,81.2-.909c-1.161,0-2.843-.64-2.946-3.239h6.16a6.514,6.514,0,0,0-.06-1.658A3.356,3.356,0,0,0,80.914-8.892ZM78.3-5.2c.27-2.047,1.592-2.643,2.523-2.643A2.3,2.3,0,0,1,83.067-5.2Zm15.878-2.05a3.825,3.825,0,0,0-3.246-1.607,4.29,4.29,0,0,0-4.362,4.518A4.3,4.3,0,0,0,90.842.213a4.349,4.349,0,0,0,3.2-1.377l-.787-.918a3.084,3.084,0,0,1-2.3,1.05c-1.691,0-2.981-1.417-2.981-3.446a2.926,2.926,0,0,1,2.866-3.213,2.655,2.655,0,0,1,2.245,1.137c.073.147-.031.325.12.439ZM96.328,0h1.394V-5a2.207,2.207,0,0,1,.431-1.49A2.965,2.965,0,0,1,100.236-7.7a1.514,1.514,0,0,1,1.177.55,2.867,2.867,0,0,1,.474,1.919V0h1.345V-5.263h0a4.985,4.985,0,0,0-.313-2.092,2.494,2.494,0,0,0-2.311-1.532,3.622,3.622,0,0,0-2.885,1.738v-5.034a.223.223,0,0,1,.069-.182.3.3,0,0,0,.121-.2.177.177,0,0,0-.009-.057H96.328ZM105.8,0h1.394V-5a2.207,2.207,0,0,1,.431-1.49A2.965,2.965,0,0,1,109.7-7.7a1.514,1.514,0,0,1,1.177.55,2.867,2.867,0,0,1,.474,1.919V0H112.7V-5.263h0a4.986,4.986,0,0,0-.313-2.092,2.494,2.494,0,0,0-2.311-1.532,3.622,3.622,0,0,0-2.885,1.738V-8.674H105.8Zm16.946-4.3c0-3-1.892-4.57-3.864-4.57a4.322,4.322,0,0,0-4.109,4.6,4.244,4.244,0,0,0,4.068,4.5C120.892.23,122.741-1.423,122.741-4.3Zm-3.958-3.407c1.252,0,2.581,1.081,2.581,3.464,0,2.185-1.251,3.293-2.518,3.293-1.383,0-2.634-1.3-2.634-3.44S117.456-7.708,118.784-7.708Zm6.323-4.917v1.1h2.46V-1.1h-2.574V0h6.51V-1.1h-2.558V-12.626ZM141.741-4.3c0-3-1.892-4.57-3.864-4.57a4.322,4.322,0,0,0-4.109,4.6,4.244,4.244,0,0,0,4.068,4.5C139.892.23,141.741-1.423,141.741-4.3Zm-3.958-3.407c1.252,0,2.581,1.081,2.581,3.464,0,2.185-1.251,3.293-2.518,3.293-1.383,0-2.634-1.3-2.634-3.44S136.456-7.708,137.784-7.708Zm7.109,1.735A1.911,1.911,0,0,1,146.8-7.88a1.91,1.91,0,0,1,1.911,1.906A1.911,1.911,0,0,1,146.8-4.066,1.91,1.91,0,0,1,144.893-5.973Zm1.995-2.989a3.2,3.2,0,0,0-3.244,3.069,2.811,2.811,0,0,0,1.283,2.351,2.349,2.349,0,0,0-.983,1.675,1.277,1.277,0,0,0,.7,1.157c-.932.595-1.412,1.233-1.412,1.923,0,.946.883,2.056,3.925,2.056,2.94,0,3.994-1.49,3.994-2.654a2.021,2.021,0,0,0-1.35-1.884,7.835,7.835,0,0,0-2.938-.246,5.245,5.245,0,0,1-1.24-.109c-.332-.091-.526-.3-.526-.57,0-.459.535-.9.62-.971a3.173,3.173,0,0,0,1.1.2,3.085,3.085,0,0,0,3.128-2.973,2.658,2.658,0,0,0-.443-1.471,2.946,2.946,0,0,1,1.516-.42,2.945,2.945,0,0,1,.5.043L151.354-8.9a3.343,3.343,0,0,0-2.41.771A2.884,2.884,0,0,0,146.888-8.962Zm-1.323,8.5c.329.043.79.08,1.454.1.641.024,1.341-.024,1.839.051.8.121,1.036.628,1.036,1.01a1.347,1.347,0,0,1-.812,1.152,4.089,4.089,0,0,1-1.951.38,5.017,5.017,0,0,1-1.791-.284,1.158,1.158,0,0,1-.855-1.06C144.484.266,145.066-.19,145.565-.464Zm8.452-8.226v1.115h2.1V-1.1H153.9V0h5.624V-1.1h-2.033V-8.69Zm2.82-3.771a.981.981,0,0,0-.984.976.98.98,0,0,0,.984.976.981.981,0,0,0,.984-.976A.981.981,0,0,0,156.837-12.462Zm12.878,4.935a4.293,4.293,0,0,0-3.238-1.361c-2.016,0-3.337,1.127-3.337,2.423,0,1.516,1.644,2.068,2.115,2.238.734.265,1.693.5,2.333.8.716.335.866.792.866,1.106,0,.813-.992,1.373-2.232,1.373a3.715,3.715,0,0,1-2.716-1.209.232.232,0,0,1-.053-.2.174.174,0,0,0-.084-.179l-.787,1.361A5.333,5.333,0,0,0,166.246.2c2.372,0,3.611-1.4,3.611-2.71a2.2,2.2,0,0,0-1.274-1.963c-.981-.551-2.379-.747-3.19-1.139-.709-.343-.86-.764-.86-1.055,0-.7.848-1.185,1.829-1.185a3.134,3.134,0,0,1,2.41,1.192.23.23,0,0,1,.041.181c0,.114.065.145.1.153ZM174.575-11l-.164,2.328h-2.066l-.016,1.115h2.033q-.182,2.229-.18,4.438a3.931,3.931,0,0,0,.512,2.363,2.313,2.313,0,0,0,1.977.924A4.862,4.862,0,0,0,179.444-.8l-.426-1.082a3.426,3.426,0,0,1-1.944.792,1.428,1.428,0,0,1-1.46-1.4,13.458,13.458,0,0,1-.056-1.669q0-1.7.165-3.4h2.853V-8.69h-2.837s.131-1.563.22-2.045c.038-.2.174-.321.108-.513Z" transform="translate(152.908 211)" fill="#fff"/></g></g></svg>