<?xml version="1.0" encoding="UTF-8" standalone="no"?>
<svg
   xmlns:dc="http://purl.org/dc/elements/1.1/"
   xmlns:cc="http://creativecommons.org/ns#"
   xmlns:rdf="http://www.w3.org/1999/02/22-rdf-syntax-ns#"
   xmlns:svg="http://www.w3.org/2000/svg"
   xmlns="http://www.w3.org/2000/svg"
   width="275"
   height="64"
   viewBox="0 0 275 64"
   version="1.1"
   id="svg32">
  <metadata
     id="metadata38">
    <rdf:RDF>
      <cc:Work
         rdf:about="">
        <dc:format>image/svg+xml</dc:format>
        <dc:type
           rdf:resource="http://purl.org/dc/dcmitype/StillImage" />
        <dc:title></dc:title>
      </cc:Work>
    </rdf:RDF>
  </metadata>
  <defs
     id="defs36" />
  <g
     transform="translate(-62 -172)"
     id="g30">
    <path
       d="M0,0H275V64H0Z"
       transform="translate(62 172)"
       fill="#0899bc"
       id="path2" />
    <g
       transform="translate(68.902 164)"
       id="g24">
      <g
         transform="translate(23.748,23.789)"
         id="g16">
        <path
           d="M 80.982,77.18 A 2.168,2.168 0 0 0 79.84,76.762 1.7,1.7 0 0 1 78.79,76.3 a 1.287,1.287 0 0 1 0,-2.033 l 1.41,-1.252 a 4.52,4.52 0 0 0 0,-6.926 8.925,8.925 0 0 0 -5.936,-2.089 11.223,11.223 0 0 0 -7.372,2.79 8.134,8.134 0 0 0 0,12.465 10.869,10.869 0 0 0 7.1,2.572 h 0.079 a 10.448,10.448 0 0 0 6.908,-2.433 1.568,1.568 0 0 0 0,-2.214 z"
           transform="translate(-63.985,-64)"
           fill="none"
           stroke="#030303"
           stroke-miterlimit="10"
           stroke-width="1"
           id="path4" />
        <circle
           cx="1.4859999"
           cy="1.4859999"
           r="1.4859999"
           transform="translate(2.229,5.199)"
           id="circle6" />
        <circle
           cx="1.4859999"
           cy="1.4859999"
           r="1.4859999"
           transform="translate(2.6,9.981)"
           id="circle8" />
        <circle
           cx="1.4859999"
           cy="1.4859999"
           r="1.4859999"
           transform="translate(5.943,2.228)"
           id="circle10" />
        <circle
           cx="2.2279999"
           cy="2.2279999"
           r="2.2279999"
           transform="translate(6.686,11.838)"
           id="circle12" />
        <circle
           cx="1.4859999"
           cy="1.4859999"
           r="1.4859999"
           transform="translate(10.771,2.228)"
           id="circle14" />
      </g>
      <path
         d="m 19.649,41.008 -9.551,-8.356 9.551,-8.357"
         fill="none"
         stroke="#030303"
         stroke-linecap="round"
         stroke-linejoin="round"
         stroke-width="1"
         id="path18" />
      <path
         d="m 46.231,41.008 9.551,-8.357 -9.551,-8.356"
         fill="none"
         stroke="#030303"
         stroke-linecap="round"
         stroke-linejoin="round"
         stroke-width="1"
         id="path20" />
      <path
         d="M7.547,0H6.416V-3.943h-4.3V0H.99V-8.531H2.115v3.668h4.3V-8.531H7.547Zm6.814-2.227H10.787L9.984,0H8.824l3.258-8.531h.984L16.33,0H15.176Zm-3.234-.926h2.9l-1.453-3.99ZM24.035,0H22.9L18.609-6.574V0H17.479V-8.531h1.131l4.307,6.6v-6.6h1.119Zm2,0V-8.531h2.408a3.877,3.877,0,0,1,1.969.492,3.329,3.329,0,0,1,1.321,1.4A4.558,4.558,0,0,1,32.2-4.553v.545a4.574,4.574,0,0,1-.466,2.115A3.277,3.277,0,0,1,30.407-.5a4.124,4.124,0,0,1-2.013.5Zm1.125-7.605V-.92h1.184a2.576,2.576,0,0,0,2.024-.809,3.339,3.339,0,0,0,.724-2.3v-.5a3.392,3.392,0,0,0-.683-2.259,2.43,2.43,0,0,0-1.937-.817ZM33.9,0V-8.531h2.789a3.238,3.238,0,0,1,2.089.574,2.07,2.07,0,0,1,.7,1.7,1.733,1.733,0,0,1-.34,1.058,2.2,2.2,0,0,1-.926.712,1.979,1.979,0,0,1,1.093.735,2.11,2.11,0,0,1,.4,1.292,2.282,2.282,0,0,1-.744,1.8,3.077,3.077,0,0,1-2.1.656Zm1.125-3.99V-.92h1.857a1.788,1.788,0,0,0,1.239-.407,1.43,1.43,0,0,0,.454-1.122q0-1.541-1.676-1.541Zm0-.9h1.7a1.784,1.784,0,0,0,1.181-.369,1.236,1.236,0,0,0,.442-1,1.216,1.216,0,0,0-.41-1.022,2.017,2.017,0,0,0-1.248-.319H35.027Zm12.908.9A5.277,5.277,0,0,1,47.514-1.8a3.2,3.2,0,0,1-1.2,1.427,3.289,3.289,0,0,1-1.8.492,3.261,3.261,0,0,1-1.787-.5,3.272,3.272,0,0,1-1.21-1.412,5.064,5.064,0,0,1-.442-2.124v-.615A5.215,5.215,0,0,1,41.5-6.7a3.26,3.26,0,0,1,1.21-1.444,3.247,3.247,0,0,1,1.79-.5,3.307,3.307,0,0,1,1.808.5,3.19,3.19,0,0,1,1.2,1.436,5.3,5.3,0,0,1,.422,2.188Zm-1.119-.551a3.825,3.825,0,0,0-.609-2.329A2.01,2.01,0,0,0,44.5-7.682a1.988,1.988,0,0,0-1.679.812,3.747,3.747,0,0,0-.63,2.253v.627a3.831,3.831,0,0,0,.618,2.312,2,2,0,0,0,1.7.841A1.989,1.989,0,0,0,46.2-1.632a3.809,3.809,0,0,0,.615-2.276Zm9.369.551A5.277,5.277,0,0,1,55.764-1.8a3.2,3.2,0,0,1-1.2,1.427,3.289,3.289,0,0,1-1.8.492,3.261,3.261,0,0,1-1.787-.5,3.272,3.272,0,0,1-1.21-1.412,5.064,5.064,0,0,1-.442-2.124v-.615A5.215,5.215,0,0,1,49.752-6.7a3.26,3.26,0,0,1,1.21-1.444,3.247,3.247,0,0,1,1.79-.5,3.307,3.307,0,0,1,1.808.5,3.19,3.19,0,0,1,1.2,1.436,5.3,5.3,0,0,1,.422,2.188Zm-1.119-.551a3.825,3.825,0,0,0-.609-2.329,2.01,2.01,0,0,0-1.705-.812,1.988,1.988,0,0,0-1.679.812,3.747,3.747,0,0,0-.63,2.253v.627a3.831,3.831,0,0,0,.618,2.312,2,2,0,0,0,1.7.841,1.989,1.989,0,0,0,1.688-.794,3.809,3.809,0,0,0,.615-2.276Zm4.975.574L59-2.883V0H57.873V-8.531H59v4.219l3.791-4.219h1.359L60.791-4.764,64.412,0H63.064Z"
         transform="translate(1.098 58)"
         id="path22" />
    </g>
    <path
       d="M4.392-12.4H1.8V0H4.77C7.452,0,10.6-1.206,10.6-6.264,10.6-11.412,7.56-12.4,4.392-12.4Zm.378,1.368c1.98,0,4.014.576,4.014,4.77C8.784-2.178,6.84-1.35,4.9-1.35H3.51v-9.684ZM20.47-5.02c0-2.9-1.35-4.68-3.906-4.68-2.448,0-3.942,2.106-3.942,5.058,0,3.006,1.548,4.86,4.194,4.86a5.171,5.171,0,0,0,3.308-1.19l-.72-.99a3.993,3.993,0,0,1-2.466.828c-1.368,0-2.394-.846-2.556-3.042H20.43c.018-.216.036-.524.036-.846ZM18.828-5.4H14.382c.126-2.106.954-2.988,2.214-2.988,1.494,0,2.232,1.026,2.232,2.88Zm6.858-4.3c-1.962,0-3.42,1.1-3.42,2.61,0,1.332.81,2.214,2.862,2.754,1.836.486,2.3.846,2.3,1.782,0,.9-.792,1.44-2.034,1.44a4.3,4.3,0,0,1-2.664-.918l-.882,1.008A5.26,5.26,0,0,0,25.434.216c1.926,0,3.744-.9,3.744-2.88,0-1.656-1.152-2.448-3.15-2.952-1.53-.4-2.034-.756-2.034-1.53,0-.756.666-1.242,1.746-1.242a4.376,4.376,0,0,1,2.466.81l.7-1.044A5.037,5.037,0,0,0,25.686-9.7Zm6.642-4.338a1.1,1.1,0,0,0-.824.315,1.1,1.1,0,0,0-.328.819,1.1,1.1,0,0,0,.334.807,1.1,1.1,0,0,0,.818.309,1.1,1.1,0,0,0,.829-.3A1.1,1.1,0,0,0,33.5-12.9a1.106,1.106,0,0,0-.335-.825,1.106,1.106,0,0,0-.835-.311Zm.846,4.554H31.518V0h1.656Zm10.584-1.062A8.153,8.153,0,0,1,39.42-9.7a3.382,3.382,0,0,0-2.543.864A3.382,3.382,0,0,0,35.766-6.39a2.716,2.716,0,0,0,1.6,2.628,2.06,2.06,0,0,0-1.044,1.674c0,.954.756,1.8,2.448,1.8h1.494c1.188,0,1.908.45,1.908,1.35,0,.954-.72,1.476-2.772,1.476-2.088,0-2.574-.5-2.574-1.584H35.334c0,1.926.972,2.88,4.068,2.88,2.934,0,4.446-1.044,4.446-2.88,0-1.512-1.3-2.628-3.24-2.628H39.1c-.972,0-1.242-.342-1.242-.774a1.143,1.143,0,0,1,.468-.882,3.838,3.838,0,0,0,1.206.18c2.268,0,3.618-1.35,3.618-3.222a2.5,2.5,0,0,0-1.674-2.394,9.24,9.24,0,0,0,2.772-.288ZM39.42-8.514a1.84,1.84,0,0,1,1.539.549,1.84,1.84,0,0,1,.5,1.557,1.886,1.886,0,0,1-.481,1.56,1.886,1.886,0,0,1-1.519.6,1.921,1.921,0,0,1-1.5-.608,1.921,1.921,0,0,1-.5-1.534,1.9,1.9,0,0,1,.492-1.516,1.9,1.9,0,0,1,1.474-.608Zm11-1.188a3.441,3.441,0,0,0-2.9,1.62l-.144-1.4H45.954V0H47.61V-6.732a2.869,2.869,0,0,1,2.412-1.674c.918,0,1.494.414,1.494,1.836V0h1.656V-6.8a2.6,2.6,0,0,0-.7-2.1,2.6,2.6,0,0,0-2.057-.8Zm18.27-2.7H59.832v1.458H63.36V0h1.71V-10.944h3.438Zm8.064,7.38c0-2.9-1.35-4.68-3.906-4.68C70.4-9.7,68.9-7.6,68.9-4.644c0,3.006,1.548,4.86,4.194,4.86A5.171,5.171,0,0,0,76.41-.972l-.72-.99a3.993,3.993,0,0,1-2.466.828c-1.368,0-2.394-.846-2.556-3.042h6.048c.018-.216.036-.524.036-.846ZM75.114-5.4H70.668c.126-2.106.954-2.988,2.214-2.988,1.494,0,2.232,1.026,2.232,2.88Zm7.74-4.3c-2.574,0-4.14,2.016-4.14,5.04,0,3.06,1.584,4.878,4.14,4.878a4.476,4.476,0,0,0,2.9-1.044L85-1.908a3.523,3.523,0,0,1-2.07.72c-1.494,0-2.43-1.026-2.43-3.51,0-2.466.936-3.636,2.43-3.636a3.245,3.245,0,0,1,2.034.7l.792-1.044a4.216,4.216,0,0,0-2.9-1.022Zm9.612,0a3.406,3.406,0,0,0-2.808,1.53v-5.292L88-13.284V0h1.656V-6.75A2.9,2.9,0,0,1,92.05-8.406c.9,0,1.512.414,1.512,1.836V0H95.22V-6.8a2.613,2.613,0,0,0-.7-2.091A2.613,2.613,0,0,0,92.466-9.7Zm10.548,0a3.441,3.441,0,0,0-2.9,1.62l-.144-1.4H98.55V0h1.656V-6.732a2.869,2.869,0,0,1,2.412-1.674c.918,0,1.494.414,1.494,1.836V0h1.656V-6.8a2.6,2.6,0,0,0-.7-2.1,2.6,2.6,0,0,0-2.057-.8Zm9.648,0c-2.7,0-4.248,2.034-4.248,4.968,0,3.006,1.53,4.95,4.23,4.95,2.682,0,4.23-2.034,4.23-4.968,0-3.008-1.512-4.95-4.212-4.95Zm0,1.332c1.566,0,2.43,1.152,2.43,3.618,0,2.484-.864,3.636-2.448,3.636S110.2-2.268,110.2-4.734c0-2.484.878-3.636,2.462-3.636ZM121.5.216a2.782,2.782,0,0,0,1.314-.324l-.432-1.152a1.615,1.615,0,0,1-.612.108c-.432,0-.594-.252-.594-.756V-13.5l-1.656.2V-1.87a1.867,1.867,0,0,0,.5,1.509A1.867,1.867,0,0,0,121.5.216ZM128.358-9.7c-2.7,0-4.248,2.034-4.248,4.968,0,3.006,1.53,4.95,4.23,4.95,2.682,0,4.23-2.034,4.23-4.968C132.57-7.758,131.058-9.7,128.358-9.7Zm0,1.332c1.566,0,2.43,1.152,2.43,3.618,0,2.484-.864,3.636-2.448,3.636s-2.448-1.152-2.448-3.618c0-2.486.882-3.638,2.466-3.638Zm14.112-2.178a8.153,8.153,0,0,1-4.338.846,3.382,3.382,0,0,0-2.544.865,3.382,3.382,0,0,0-1.11,2.447,2.716,2.716,0,0,0,1.6,2.628,2.06,2.06,0,0,0-1.044,1.674c0,.954.756,1.8,2.448,1.8h1.494c1.188,0,1.908.45,1.908,1.35,0,.954-.72,1.476-2.772,1.476-2.088,0-2.574-.5-2.574-1.584h-1.494c0,1.926.972,2.88,4.068,2.88,2.934,0,4.446-1.044,4.446-2.88,0-1.512-1.3-2.628-3.24-2.628h-1.512c-.972,0-1.242-.342-1.242-.774a1.143,1.143,0,0,1,.468-.882,3.838,3.838,0,0,0,1.206.18c2.268,0,3.618-1.35,3.618-3.222a2.5,2.5,0,0,0-1.674-2.394,9.24,9.24,0,0,0,2.772-.288Zm-4.338,2.034a1.84,1.84,0,0,1,1.539.549,1.84,1.84,0,0,1,.5,1.557,1.886,1.886,0,0,1-.481,1.56,1.886,1.886,0,0,1-1.519.6,1.921,1.921,0,0,1-1.5-.608,1.921,1.921,0,0,1-.5-1.534,1.9,1.9,0,0,1,.491-1.518,1.9,1.9,0,0,1,1.475-.608Zm7.344-5.526a1.1,1.1,0,0,0-.824.315,1.1,1.1,0,0,0-.328.819,1.1,1.1,0,0,0,.334.807,1.1,1.1,0,0,0,.818.309,1.1,1.1,0,0,0,.829-.3,1.1,1.1,0,0,0,.341-.814,1.106,1.106,0,0,0-.335-.825,1.106,1.106,0,0,0-.835-.311Zm.846,4.554h-1.656V0h1.656Zm5.994-.216c-1.962,0-3.42,1.1-3.42,2.61,0,1.332.81,2.214,2.862,2.754,1.836.486,2.3.846,2.3,1.782,0,.9-.792,1.44-2.034,1.44a4.3,4.3,0,0,1-2.664-.918l-.882,1.008a5.26,5.26,0,0,0,3.586,1.24c1.926,0,3.744-.9,3.744-2.88,0-1.656-1.152-2.448-3.15-2.952-1.53-.4-2.034-.756-2.034-1.53,0-.756.666-1.242,1.746-1.242a4.376,4.376,0,0,1,2.466.81l.7-1.044a5.037,5.037,0,0,0-3.22-1.078Zm9.99,8.172a2.584,2.584,0,0,1-1.26.378c-.828,0-1.134-.45-1.134-1.4V-8.208h2.07l.18-1.278h-2.25v-2.34l-1.656.2v2.142H156.6v1.278h1.656v5.724a2.383,2.383,0,0,0,.63,1.963,2.383,2.383,0,0,0,1.926.737,3.616,3.616,0,0,0,2.124-.648Z"
       transform="translate(156 211)"
       id="path26" />
    <line
       y2="38"
       transform="translate(142 185.5)"
       fill="none"
       stroke="#030303"
       stroke-width="1"
       id="line28" />
  </g>
</svg>
