<svg data-name="Layer 1" xmlns="http://www.w3.org/2000/svg" width="1104.5" height="797.5"><path fill="#3f3d56" d="M959 389h10v388h-10z"/><path d="M1060 438c0 136-95 246-95 246s-97-109-97-245 94-246 94-246 97 109 98 245zM767 571h5v200h-5z" fill="#3f3d56"/><path d="M819 597c0 69-49 126-49 126s-50-56-50-126 49-127 49-127 50 57 50 127z" fill="#3f3d56"/><ellipse cx="872" cy="776.5" rx="137" ry="21" fill="#3f3d56"/><path d="M883 287c-11-20-34-20-34-20s-23-3-37 27c-13 27-32 54-3 61l5-16 3 17a113 113 0 0013 0c31-1 60 1 59-11-1-14 5-39-6-58z" fill="#2f2e41"/><path d="M841 324s15 21 6 38 21 35 21 35l22-48s-26-17-19-33z" fill="#fbbebe"/><circle cx="851.5" cy="307" r="26" fill="#fbbebe"/><path d="M761 337l22-28s8-29 19-28-4 35-4 35l-22 31zM871 710l7 37 15 4-4-44-18 3zM1022 670l27 37 11 5 9-15-27-35-20 8z" fill="#fbbebe"/><path d="M865 381l-16-22s-33 6-36 9 8 58 8 58 2 15 11 23l9 6 74-15 3-33a86 86 0 00-23-66l-12 2z" fill="#575a89"/><path d="M817 370l-5-2-23-2s-8-2-6-6 4-5 0-6-5-2-4-5 7-9 7-9l-17-14-2 2c-8 7-35 31-16 56 23 29 50 46 72 40z" fill="#575a89"/><path d="M839 450v14s-9 17-6 33l4 24a137 137 0 007 40c7 20-16 151 13 153s45 4 54-6-15-182-15-182 82 171 99 164 60-23 55-32L919 449l-4-9zM887 740s-16-1-16 4-8 22-8 22-6 20 10 18 26-20 26-20l-4-19zM1054 705s-14-9-13-3 2 22 9 23 28 7 29 9 25 10 25-3-15-23-15-23l-17-13s-11-1-13 6-5 4-5 4z" fill="#2f2e41"/><circle cx="851.5" cy="266.7" r="16.6" fill="#2f2e41"/><path d="M833 262a17 17 0 0115-16 17 17 0 00-2 0 17 17 0 100 33 17 17 0 002 0 17 17 0 01-15-17z" fill="#2f2e41"/><path fill="#2f2e41" d="M878 285l-23-12-31 5-6 29 16-1 4-10v10h8l4-17 3 18 26-1-1-21z"/><path d="M877 452l-35 1s-30 6-28-6 30-8 30-8l32-5z" fill="#fbbebe"/><path d="M904 339a7 7 0 019 5c7 22 28 94 7 104-25 12-43 11-43 11l-10-23 9-9 9-60 5-25z" fill="#575a89"/><path opacity=".4" d="M898 380l-4 40-35 15 39-9v-46z"/><path d="M709 247a47 47 0 0128 20l3 5v1l57 16a4 4 0 013 6l-4 16a4 4 0 01-5 3l-58-16-6 2a52 52 0 01-33 1z" fill="#3f3d56"/><ellipse cx="811.1" cy="344.2" rx="3.5" ry="6.6" transform="rotate(-74 753 350)" fill="#575a89"/><circle cx="766.7" cy="294.1" r="2.4" fill="#3f3d56"/><ellipse cx="749.7" cy="325.7" rx="28.1" ry="12.7" transform="rotate(-72 691 333)" fill="#0899bc"/><path d="M712 278c5-14 4-28-2-30a6 6 0 011 0c6 2 8 16 3 30s-14 25-21 23c6 1 15-9 19-23z" opacity=".4"/><path d="M710 248L580 146a862 862 0 01-66-57c-38-35-88-64-147-79A261 261 0 0060 134C-18 280-78 516 270 390c76-27 153-30 211-45l212-43z" fill="#0899bc"/><circle cx="319" cy="70.5" r="7" fill="#f2f2f2"/><path fill="#f2f2f2" d="M455 87h-2v-2 2h-2 2v2-2h2zM638 239h-2v-2 2h-2 2v2-2h2zM625 286h-2v-2 2h-2 2v2-2h2zM66 326h-2v-2 2h-2 2v2-2h2zM146 108h-2v-2 2h-2 2v2-2h2zM457 294h-2v-2 2h-2 2v2-2h2zM266 44h-2v-2 2h-2 2v2-2h2z"/><path d="M267 188h-3l2 14h2l-1-14zM260 160l-2 1 4 13h2l-4-14zM251 134l-3 1 6 13 2-1-5-13zM237 110l-2 1 7 12 2-1c-2-4-4-9-7-12zM220 87l-1 1 8 11 2-1-9-11zM201 67l-2 2 10 9 2-1-10-10zM179 50l-2 2 12 8 1-2-11-8zM159 38v2l7 4 1-2-8-4zM267 216h2v7h-2v-7zM132 385h-3l2 14h2l-1-14zM125 357l-2 1 4 13h2l-4-14zM116 331l-3 1 6 13 2-1-5-13zM102 307l-2 1 7 12 2-1c-2-4-4-9-7-12zM85 284l-1 1 8 11 2-1-9-11zM66 264l-2 2 10 9 2-1-10-10zM44 247l-2 2 12 8 1-2-11-8zM24 235v2l7 4 1-2-8-4zM132 413h2v7h-2v-7zM594 286h-3l2 14h2l-1-14zM587 258l-2 1 4 13h2l-4-14zM578 232l-3 1 6 13 2-1-5-13zM564 208l-2 1 7 12 2-1c-2-4-4-9-7-12zM547 185l-1 1 8 11 2-1-9-11zM528 165l-2 2 10 9 2-1-10-10zM506 148l-2 2 12 8 1-2-11-8zM486 136v2l7 4 1-2-8-4zM594 314h2v7h-2v-7z" fill="#e6e6e6"/><path fill="#f2f2f2" d="M149 200h-1v-2h-1v2h-1 1v2h1v-2h1zM130 302h-2v-1 1h-2v1h2v1-1h2v-1zM72 392h-1v-2h-1v2h-1 1v2h1v-2h1z"/><path d="M232 278a123 123 0 1157 46 40 40 0 11-57-46z" fill="#3f3d56"/><path d="M333 139c28 0 48 16 48 39 0 14-8 25-21 33-14 7-18 13-18 23a6 6 0 01-6 6h-14a6 6 0 01-6-6v-1c-1-15 4-25 18-33 12-8 18-12 18-22s-9-16-21-16c-8 0-15 4-18 11a13 13 0 01-12 8c-10 0-16-11-12-19 7-14 23-23 44-23zm-20 129c0-9 8-15 16-15 9 0 17 6 17 15s-8 16-17 16-16-7-16-16z" fill="#0899bc"/></svg>