<svg data-name="Layer 1" xmlns="http://www.w3.org/2000/svg" width="925.5" height="645.2"><circle cx="233.1" cy="328.5" r="18.4" fill="#f2f2f2"/><circle cx="170.1" cy="540.5" r="11.4" fill="#f2f2f2"/><path fill="#f2f2f2" d="M380 21.5h140v2H380z"/><path fill="#f2f2f2" d="M418 3.5h2V22h-2zM479 3.5h2V22h-2zM606 505.5h140v2H606z"/><path fill="#f2f2f2" d="M644 487.5h2V506h-2zM705 487.5h2V506h-2zM613 200.5h140v2H613z"/><path fill="#f2f2f2" d="M651 182.5h2V201h-2zM712 182.5h2V201h-2zM613 128.5h140v2H613z"/><path fill="#f2f2f2" d="M651 110.5h2V129h-2zM712 110.5h2V129h-2zM306 138.5h140v2H306z"/><path fill="#f2f2f2" d="M344 120.5h2V139h-2zM405 120.5h2V139h-2zM204 91.5h140v2H204z"/><path fill="#f2f2f2" d="M242 73.5h2V92h-2zM303 73.5h2V92h-2zM141 276.5h140v2H141z"/><path fill="#f2f2f2" d="M179 258.5h2V277h-2zM240 258.5h2V277h-2zM71 480.5h140v2H71z"/><path fill="#f2f2f2" d="M109 462.5h2V481h-2zM170 462.5h2V481h-2zM733 396.5h140v2H733z"/><path fill="#f2f2f2" d="M771 378.5h2V397h-2zM832 378.5h2V397h-2zM692 268.5h140v2H692z"/><path fill="#f2f2f2" d="M792 270h2v18.5h-2zM731 270h2v18.5h-2zM14 118.5h140v2H14z"/><path fill="#f2f2f2" d="M114 120h2v18.5h-2zM53 120h2v18.5h-2zM23 380.5h140v2H23z"/><path fill="#f2f2f2" d="M123 382h2v18.5h-2zM62 382h2v18.5h-2zM464 53.5h140v2H464z"/><path fill="#f2f2f2" d="M564 55h2v18.5h-2zM503 55h2v18.5h-2zM71 192.5h140v2H71z"/><path fill="#f2f2f2" d="M109 174.5h2V193h-2zM170 174.5h2V193h-2z"/><path d="M233.5 173v471h436V173zm218 34a15 15 0 1115-15 15 15 0 01-15 15zM37.3 603.8c6.9 25.6 30.6 41.4 30.6 41.4s12.4-25.6 5.5-51.2-30.6-41.4-30.6-41.4-12.5 25.6-5.5 51.2z" fill="#3f3d56"/><path d="M47.4 598.3c19 18.5 21.3 46.9 21.3 46.9s-28.4-1.6-47.4-20-21.3-47-21.3-47 28.4 1.6 47.4 20.1z" fill="#0899bc"/><path fill="#3f3d56" d="M16.5 643h909v2h-909z"/><path d="M192 581.3a22 22 0 00-14-20.5 22 22 0 10-16 0 22 22 0 000 41 22 22 0 1016 0 22 22 0 0014-20.5zm-42-41a20 20 0 1124.5 19.5 22 22 0 00-9 0 20 20 0 01-15.5-19.5zm40 82a20 20 0 11-24.5-19.4 22 22 0 009 0 20 20 0 0115.5 19.4zm-15.5-21.5a22 22 0 00-9 0 20 20 0 010-39 22 22 0 009 0 20 20 0 010 39z" fill="#3f3d56"/><path d="M511 271.5H282a7 7 0 110-14h229a7 7 0 010 14zM511 343.5H282a7 7 0 110-14h229a7 7 0 010 14zM511 415.5H282a7 7 0 110-14h229a7 7 0 010 14zM511 487.5H282a7 7 0 110-14h229a7 7 0 010 14zM511 559.5H282a7 7 0 110-14h229a7 7 0 010 14z" fill="#f2f2f2"/><path d="M471 271.5H281a7 7 0 110-14h190a7 7 0 010 14zM412 343.5H281a7 7 0 110-14h131a7 7 0 010 14zM340 415.5h-59a7 7 0 110-14h59a7 7 0 010 14zM489 487.5H281a7 7 0 110-14h208a7 7 0 010 14zM443 559.5H281a7 7 0 110-14h162a7 7 0 010 14zM604 257.5h2v14h-2zM621 272.5a8 8 0 118-8 8 8 0 01-8 8zm0-14a6 6 0 106 6 6 6 0 00-6-6zM604 329.5h2v14h-2zM621 344.5a8 8 0 118-8 8 8 0 01-8 8zm0-14a6 6 0 106 6 6 6 0 00-6-6zM604 401.5h2v14h-2zM621 416.5a8 8 0 118-8 8 8 0 01-8 8zm0-14a6 6 0 106 6 6 6 0 00-6-6zM604 473.5h2v14h-2zM621 488.5a8 8 0 118-8 8 8 0 01-8 8zm0-14a6 6 0 106 6 6 6 0 00-6-6zM604 545.5h2v14h-2zM621 560.5a8 8 0 118-8 8 8 0 01-8 8zm0-14a6 6 0 106 6 6 6 0 00-6-6z" fill="#0899bc"/><circle cx="621" cy="264.5" r="4" fill="#0899bc"/><circle cx="621" cy="480.5" r="4" fill="#0899bc"/><circle cx="621" cy="552.5" r="4" fill="#0899bc"/><circle cx="451.5" cy="192" r="7" fill="#3f3d56"/><circle cx="451.5" cy="7" r="7" fill="#3f3d56"/><path fill="#3f3d56" d="M450.5 7h2v185h-2z"/><path d="M856.6 384.5v24.8s6 39.9 6 74.7-9.7 116.1-9.7 116.1-19.2 6.9-20.6-3.7-5-66.5-5-74.7-16.1-71.2-16.1-71.2L801 520.3s3.2 82.6 0 84.9-18.8 6.4-20.6 2.3-11.5-92.7-11.5-92.7-7.8-115.6-3.2-122.5 8.7-12.4 8.7-12.4 65.6-16 82.1 4.6z" fill="#2f2e41"/><path d="M850.6 597.4l1.2 7.4a73.7 73.7 0 01.8 7.7c.1 3.8.8 9.6 2.9 10.5 3.2 1.4 24 19 9.4 19.9s-22 2.5-26.4-.9c-5.1-4 .7-2.2-1.6-2.2s-5 0-6-3.7 1.4-10 1.4-10v-28.7zM782.1 597l-1.1 7.5a73.7 73.7 0 00-.8 7.7c-.1 3.7-.8 9.5-2.9 10.4-3.2 1.4-24 19-9.4 20s22 2.4 26.4-1c5.1-4-.7-2.1 1.6-2.1s5 0 6-3.7-1.4-10.1-1.4-10.1V597z" fill="#2f2e41"/><path d="M795.1 185.4s7.8 19.2 13.3 22.4 2.8 18 2.8 18L797.4 245h-11l-13.3-23s-.9-15-3.7-18.7 25.7-18 25.7-18z" fill="#ffb9b9"/><path d="M795.1 185.4s7.8 19.2 13.3 22.4 2.8 18 2.8 18L797.4 245h-11l-13.3-23s-.9-15-3.7-18.7 25.7-18 25.7-18z" opacity=".1"/><path d="M806.6 224.8l20.7 4.6 15 152.3s-8.2 1.4-16.4 12.4-18.4 9.2-23.4 6.4-25.3-10.5-25.7-13.7.9-59.7.9-59.7l-12.8-88 6.4-9.7h11.4l9.2 7.8z" fill="#0899bc"/><circle cx="775.4" cy="185.4" r="23.9" fill="#ffb9b9"/><path d="M809.8 217s45 4.6 49.1 14.2-2.7 52.3-2.7 52.3 16.5 37.2 16 46 15.6 68.3-1.8 61.4-12-24.8-20.7-12-12.4 11-12.4 11-8.7 14.3-11.4 13-4.6-12 1.4-17 5-13.8-6.5-30.3-23.4-103.3-16.5-116.6 5.5-22 5.5-22z" fill="#575a89"/><path fill="#ffb9b9" d="M856.6 393.2l-7.8 7.3-9.6-6.4 4.1-9.6 13.3 8.7z"/><path d="M776.8 224.8s-34.9 12.9-34.9 26.6 21.1 73.9 21.1 73.9 0 15.6-.9 19.3-15.4 35.6-2.8 38.5c8 1.8 14.4 6.5 15 13 .7 8-5.4 17.8-4.9 19.6 1 3.2 6.5 7.8 6 5.5s3.7-35.3 10.1-50-2.8-113.3-4.6-126.2a142 142 0 00-4.1-20.2z" fill="#575a89"/><path fill="#ffb9b9" d="M758.4 392.3l8.3 19.7 6.2-12.6-7.1-15.8-7.4 8.7z"/><path d="M802.3 200.1s7.5 3.2 12.1 3.2 23.4 9.6 17 15.6-16 7.3-20.7 16S804 245 804 245l-8.2-11s11.4-12.9 11-17-4.4-16.9-4.4-16.9zM771.9 211.2s-5.7 2.1-7 5.8-10.1 10.6-6.5 12.4 19.8 9.2 23 10.6 9.2-4 9.2-4-8-4.5-8-7.7-10.7-17.1-10.7-17.1z" fill="#0899bc"/><path d="M753 245l-11 2.8s-15.2 67.9-10.6 84.8 26.1 68 26.1 68l13.8-16.1s-6-36.5-9.4-39-1.2-7.4-1.2-8.7 1.4-.5-1.8-3.7 12-21.1 7.8-26.2-13.8-61.9-13.8-61.9z" fill="#575a89"/><path d="M861.4 257.6l-6.6-25s17.9 12.9 21.5 31.7 18 56.4 8.8 73-25.3 64.2-30.8 63.2-18.8-12.4-19.2-14.2 23.8-44 20.1-47.2-2.7-11.5 0-13.3 6-10.6 3.7-10.1-9.2-4.2-7.8-9.2-6.9-39-6.9-39z" opacity=".1"/><path d="M852.5 229.4l6.4 1.8s17.9 12.9 21.6 31.7 17.9 56.4 8.7 73-25.2 64.2-30.8 63.3-18.8-12.4-19.2-14.3 23.8-44 20.2-47.2-2.8-11.5 0-13.3 6-10.6 3.6-10.1-9.1-4.1-7.8-9.2-6.8-39-6.8-39z" fill="#575a89"/><path d="M794 163.8l4.4-1.6s-9.4-9.4-22.4-8.5l3.7-3.7s-9-3.3-17.1 5.3a72.7 72.7 0 00-12.3 15.7h-4.8l2 4-7 4 7.2-.7a20.2 20.2 0 00.7 10.3l1.6 4.5s6.5-13 6.5-14.6v4s4.5-3.6 4.5-6l2.4 2.8 1.2-4.5 15 4.5-2.4-3.7 9.4 1.2-3.7-4.4s10.6 5.3 11 9.7 5.7 10.2 5.7 10.2l2.5-4s3.6-18.4-8.2-24.5z" fill="#2f2e41"/><ellipse cx="793" cy="182.5" rx="3.5" ry="5.5" fill="#ffb9b9"/></svg>