<svg data-name="Layer 1" xmlns="http://www.w3.org/2000/svg" width="1001" height="551"><path fill="#3f3d56" d="M1 548h1000v2H1z"/><path d="M636 424s0 68 16 86l5 12a47 47 0 002 6v4s30-3 33-11l-5-7s-1-1 0-4a2 2 0 00-2-4l-8-18 1-73-6-102-48-2z" fill="#2f2e41"/><path d="M661 525s-8 24 0 25 76 2 75-7-24-8-24-8l-23-14zM592 313s-3 14 6 30 4 68 4 68l-80 70s16 26 22 25 94-72 94-72l34-117z" fill="#2f2e41"/><path d="M523 478s-24 6-20 13 38 65 45 60-6-24-6-24v-28z" fill="#2f2e41"/><circle cx="635.3" cy="104.6" r="25.7" fill="#ffb8b8"/><path d="M615 114l1 33 22 8s2-34 5-35-28-6-28-6z" fill="#ffb8b8"/><path d="M643 159s-30-30-38-29-8 5-8 7 2 3 0 5-4 0-4 3-20 37-14 74 15 55 12 75-2 24-2 24 84 7 85-1-3-3 3-9 3-5 3-9-25-140-37-140z" fill="#575a89"/><path d="M627 312s14 32 24 24-5-34-5-34z" fill="#ffb8b8"/><path d="M595 162s-26 3-17 51 48 104 48 104l26-12-34-66 8-41s5-40-31-36z" fill="#575a89"/><path opacity=".2" d="M618 239l37 62-3 3-34-65zM598 268l30 49h-10l-20-49z"/><path d="M624 120l6-2c8-2 14-11 12-20a10 10 0 010-3c0-2 3-4 5-5l7-1c4-1 6-5 7-9a18 18 0 00-3-11l-1 3a9 9 0 01-3-4 6 6 0 00-4 3c-1 1-2-2-3-3a3 3 0 00-2 1c-3 1-7 0-10-1a38 38 0 00-18 0c-3 1-7 2-10 5a25 25 0 00-5 9c-3 7-5 15-4 23a33 33 0 008 17c2 3 10 12 14 10s-2-9 4-12z" fill="#2f2e41"/><path opacity=".2" d="M636 434l29-78 2 1-30 77z"/><circle cx="643" cy="164" r="1.6" fill="#d0cde1"/><path fill="#d0cde1" d="M643 164l14 44M656 209a1 1 0 010-1l-14-44a1 1 0 112 0l13 44a1 1 0 01-1 1z"/><path fill="#ffb8b8" d="M253 480l-4 51h16l8-51h-20zM355 480l-4 51h16l8-51h-20zM362 200l-1 25-9 73s-12 34 5 31 11-33 11-33l10-69 5-24z"/><path fill="#575a89" d="M376 166l8 47-26-3 8-46 10 2z"/><circle cx="340.9" cy="100.3" r="23.4" fill="#ffb8b8"/><path d="M356 108l12 26c4 9 3 11 3 11h-34s4-23 0-26 19-11 19-11z" fill="#ffb8b8"/><path d="M351 229s46-57 23-87c1-1-8-12-14-10-1 1-25 5-28 9l-18 20s-8 10-11 32-11 33-11 33" fill="#575a89"/><path d="M292 226l-2 13-34 131-18 115c8 14 27 17 55 8l5-114 25-63 11 177c23 7 43 6 62-3l-32-187s16-27-12-62l-1-12" fill="#2f2e41"/><path d="M317 196l-9 22-32 67s-21 29-5 31 21-28 21-28l32-61 11-22z" fill="#ffb8b8"/><path d="M268 512v13s10 22 3 24-25 0-28 0-33 3-32-6 21-14 21-14l18-17zM371 512v13s10 22 3 24-25 0-28 0-34 3-33-6 21-14 21-14l19-17z" fill="#2f2e41"/><path d="M346 138s-17 4-25 31l-9 31 25 12 19-37s10-32-10-37z" fill="#575a89"/><path d="M316 93s-5-35 33-24c0 0 26-5 35 29l9 35-5-3-2 5-6 1-3-6-2 8-57 5s26-15 26-42l-5 5z" fill="#2f2e41"/><path opacity=".2" d="M351 173l-18 37 4 1 14-38zM330 168l-17 32h-4l21-32zM376 184l-13 27h8l5-27z"/><path fill="#3f3d56" d="M798 47h28v2h-28zM835 47h27v2h-27zM888 68h28v2h-28zM926 68h27v2h-27zM872 47h81v2h-81zM798 68h81v2h-81zM798 89h81v2h-81zM897 89h56v2h-56z"/><path fill="#0899bc" d="M790 56l-10-9 10-10 2 2-8 8 8 7-2 2zM979 101l-2-2 8-8-8-7 2-2 10 9-10 10z"/><path fill="#d0cde1" d="M963 100l6-19 3 1-6 19z"/><path d="M24 523c4 16 19 26 19 26s8-16 4-32-20-26-20-26-7 16-3 32z" fill="#0899bc"/><path d="M44 549c-1 0-19-1-30-12a52 52 0 01-14-30v-1h1s18 2 30 13c12 12 13 30 13 30zM1 508c1 3 3 18 13 28 11 10 26 12 29 12 0-3-3-18-13-28a51 51 0 00-29-12z" fill="#3f3d56"/><path d="M927 521c-5 17-20 27-20 27s-8-17-4-34 20-27 20-27 9 17 4 34z" fill="#0899bc"/><path d="M906 548s1-19 14-31c12-12 31-14 31-14h1v1s-2 19-14 31a55 55 0 01-32 13zm15-30a53 53 0 00-14 29c3 0 19-2 30-13 11-10 13-26 14-29-4 0-19 2-30 13z" fill="#3f3d56"/><path d="M137 113l-11 12-11-12a30 30 0 0122 0z" fill="#0899bc"/><path d="M126 126l-17-18 17-17 18 17zm-16-18l16 16 16-16-16-16z" fill="#3f3d56"/><path fill="#0899bc" d="M130 57l-4 5-4-5V38h8v19z"/><path d="M139 22h-4a10 10 0 002-6c0-6-5-16-11-16s-10 10-10 16a10 10 0 002 6h-5a3 3 0 00-3 3v3a3 3 0 003 3h26a3 3 0 004-3v-3a3 3 0 00-4-3z" fill="#3f3d56"/><path d="M130 75a4 4 0 01-8 0l4-7 4 7z" fill="#0899bc"/><path d="M126 66l-6-5V27h13v34zm-5-6l5 5 5-5V28h-10zM201 114l-20 12-12-20 20-12z" fill="#3f3d56"/><path fill="#d0cde1" d="M83 112l-20 12-12-20 20-12z"/></svg>